<svg width="36" height="37" viewBox="0 0 36 37" fill="none" xmlns="http://www.w3.org/2000/svg">
<circle cx="18" cy="18.0939" r="18" fill="#F2F2F2"/>
<path fill-rule="evenodd" clip-rule="evenodd" d="M7.68164 32.8448L8.10421 30.5206C8.62293 27.6677 11.1077 25.5939 14.0074 25.5939H21.9925C24.8922 25.5939 27.377 27.6676 27.8957 30.5206L28.3183 32.8448C25.3966 34.8923 21.8386 36.0939 18 36.0939C14.1613 36.0939 10.6034 34.8923 7.68164 32.8448ZM24 18.0939C24 21.4076 21.3137 24.0939 18 24.0939C14.6863 24.0939 12 21.4076 12 18.0939C12 14.7802 14.6863 12.0939 18 12.0939C21.3137 12.0939 24 14.7802 24 18.0939Z" fill="#828282"/>
</svg>
