<svg width="80" height="40" viewBox="0 0 80 40" fill="none" xmlns="http://www.w3.org/2000/svg">
<g clip-path="url(#clip0_896_31527)">
<path fill-rule="evenodd" clip-rule="evenodd" d="M2.96258 13.5502H6.65534C7.47839 13.5502 8.06456 13.5955 8.41336 13.6836C8.87175 13.7955 9.22219 14.0122 9.46421 14.3362C9.70389 14.6601 9.81464 15.0246 9.79646 15.4343C9.78177 15.77 9.66542 16.1131 9.44789 16.4609C9.23011 16.8108 8.91628 17.0967 8.50406 17.3229C8.09184 17.5493 7.4665 17.7563 6.6255 17.9469C7.48003 18.1948 8.06362 18.509 8.38282 18.8948C8.70201 19.2832 8.84913 19.7309 8.82652 20.243C8.8053 20.7218 8.61971 21.1956 8.2674 21.6624C7.9151 22.1294 7.46254 22.4722 6.90506 22.689C6.34967 22.9057 5.3429 23.0129 3.88705 23.0129H0.00146484L0.102189 22.7558C0.478507 22.7558 0.750603 22.7199 0.915913 22.651C1.08146 22.5794 1.21785 22.4722 1.32324 22.3247C1.4284 22.1792 1.5571 21.8721 1.71192 21.4076L3.63687 15.5889C3.83226 14.9984 3.93438 14.603 3.94324 14.403C3.95047 14.2387 3.89055 14.1053 3.75882 13.9981C3.62731 13.8909 3.33587 13.8288 2.88051 13.8099L2.96258 13.5502ZM4.8922 17.7301C5.51823 17.7207 6.01416 17.6206 6.38488 17.43C6.75327 17.2395 7.05638 16.9276 7.2942 16.4918C7.52992 16.0583 7.65863 15.6463 7.67565 15.2603C7.69174 14.8983 7.59194 14.603 7.37627 14.3744C7.16293 14.1456 6.86659 14.0361 6.4898 14.0458L6.10812 14.0599L4.8922 17.7301ZM4.70427 18.2543L3.32561 22.4628C3.55597 22.4699 3.72734 22.4746 3.84252 22.4746C4.86585 22.4746 5.59121 22.1865 6.01672 21.6076C6.442 21.0289 6.66957 20.4073 6.69871 19.7476C6.7127 19.4308 6.64742 19.1498 6.50542 18.9069C6.3611 18.6616 6.17084 18.4923 5.93045 18.3971C5.6924 18.3017 5.28297 18.2543 4.70427 18.2543ZM16.8136 16.6417L15.2724 21.2813L15.1085 21.8482C15.0913 21.9174 15.0819 21.9698 15.0805 22.0007C15.078 22.0579 15.0971 22.1056 15.1328 22.1483C15.171 22.1889 15.2102 22.2104 15.25 22.2104C15.3466 22.2104 15.4839 22.1365 15.6599 21.9863C15.7329 21.9268 15.9071 21.7125 16.1845 21.3458L16.4212 21.4719C16.0675 22.0746 15.7 22.5152 15.3184 22.7938C14.9369 23.07 14.531 23.2082 14.1052 23.2082C13.8418 23.2082 13.645 23.1392 13.5144 23.0035C13.3817 22.8653 13.3213 22.6913 13.3304 22.4819C13.3386 22.3008 13.4263 21.9651 13.5962 21.4719L13.786 20.905C13.2111 21.8317 12.6718 22.4866 12.163 22.8724C11.8685 23.0962 11.5603 23.2082 11.2381 23.2082C10.8147 23.2082 10.5167 23.032 10.3439 22.6819C10.1714 22.3294 10.0949 21.9339 10.1145 21.491C10.1434 20.836 10.3742 20.0834 10.807 19.2355C11.2397 18.3853 11.7895 17.7039 12.4545 17.1871C13.0026 16.7586 13.5083 16.5442 13.9719 16.5442C14.2281 16.5442 14.4319 16.6205 14.5827 16.7704C14.7313 16.9229 14.8343 17.1991 14.8896 17.5991L15.1768 16.7395L16.8136 16.6417ZM14.551 17.9684C14.5676 17.592 14.5209 17.3181 14.413 17.1514C14.3358 17.0348 14.2255 16.9777 14.0845 16.9777C13.9409 16.9777 13.7921 17.0466 13.6328 17.1871C13.312 17.4754 12.9546 18.059 12.5603 18.9425C12.1663 19.8239 11.9539 20.5837 11.9254 21.2266C11.9145 21.4742 11.9466 21.6506 12.0217 21.7601C12.0968 21.8697 12.1838 21.9245 12.2803 21.9245C12.4873 21.9245 12.7021 21.8031 12.9243 21.5625C13.2407 21.2171 13.5345 20.7954 13.7989 20.2977C14.2701 19.4237 14.521 18.6471 14.551 17.9684ZM20.8845 16.5442L19.896 19.538C20.5085 18.6639 20.9655 18.0661 21.2641 17.7445C21.7034 17.2801 22.0774 16.9633 22.3882 16.7966C22.699 16.6275 22.9872 16.5442 23.253 16.5442C23.4929 16.5442 23.6936 16.6346 23.855 16.8134C24.0166 16.9918 24.0933 17.2253 24.0805 17.5134C24.0688 17.7755 23.9984 18.0923 23.8713 18.4637L22.8575 21.4433C22.7731 21.703 22.7281 21.8721 22.7246 21.953C22.7225 21.9984 22.7396 22.0411 22.7708 22.077C22.8044 22.115 22.8389 22.1341 22.8764 22.1341C22.9212 22.1341 22.9713 22.115 23.0224 22.077C23.1907 21.9436 23.3614 21.7531 23.537 21.5052C23.5822 21.4409 23.6524 21.3434 23.7498 21.2124L24.0061 21.3744C23.2779 22.5223 22.5446 23.0962 21.799 23.0962C21.5143 23.0962 21.2942 23.0223 21.141 22.8724C20.9876 22.7249 20.9158 22.539 20.9256 22.315C20.9342 22.1197 21.0014 21.8293 21.1289 21.4433L22.1215 18.4637C22.1888 18.2684 22.2259 18.1232 22.2301 18.0305C22.2322 17.9804 22.2131 17.9351 22.1748 17.8947C22.1343 17.8541 22.0881 17.835 22.0317 17.835C21.8575 17.835 21.6407 17.9566 21.3828 18.1995C20.7206 18.8115 20.0664 19.7261 19.4201 20.9409L18.7637 23.0129H17.0069L18.494 18.5329C18.6381 18.0923 18.7131 17.7778 18.7213 17.592C18.725 17.511 18.7089 17.4468 18.6761 17.392C18.6406 17.3396 18.5837 17.2966 18.5028 17.2657C18.4194 17.2372 18.265 17.2206 18.0344 17.2206L18.1237 16.9562L20.4635 16.5442H20.8845ZM29.7007 13.3358L27.5084 19.9358L29.1498 18.4566L29.6951 17.9828C29.8551 17.8232 29.9644 17.6898 30.0307 17.5778C30.0691 17.5063 30.0908 17.4421 30.0934 17.3826C30.0978 17.2848 30.0565 17.2039 29.9677 17.1373C29.8789 17.0728 29.6576 17.0277 29.3055 17.0062L29.3927 16.7395H32.1962L32.1163 17.0062C31.7812 17.0849 31.5091 17.1753 31.2976 17.2778C31.1342 17.3564 30.9309 17.4872 30.6875 17.6683C30.3275 17.9422 30.0663 18.1542 29.9092 18.3017L29.593 18.59L29.929 20.5145C30.0561 21.2601 30.157 21.6886 30.2295 21.8055C30.2757 21.8744 30.3354 21.9101 30.4035 21.9101C30.5634 21.9101 30.7625 21.7195 31.0004 21.3385C31.0356 21.2863 31.081 21.2147 31.1417 21.1217L31.3886 21.2813C31.0165 21.9339 30.6063 22.4295 30.1587 22.7676C29.8593 22.9961 29.593 23.1106 29.358 23.1106C29.1251 23.1106 28.9336 23.0249 28.7835 22.8557C28.6357 22.6866 28.4979 22.2413 28.3745 21.5196L28.0987 19.9358L27.3113 20.6193L26.5163 23.0129H24.7592L27.3962 15.1342C27.5074 14.8006 27.5645 14.5744 27.5697 14.4578C27.5743 14.3506 27.5571 14.2649 27.513 14.1957C27.4713 14.1291 27.41 14.0791 27.3291 14.0458C27.2505 14.0146 27.0912 13.9981 26.8539 13.9981L26.9264 13.7384L29.2869 13.3358H29.7007Z" fill="#093F7A"/>
<path fill-rule="evenodd" clip-rule="evenodd" d="M51.1799 13.1364H55.5379C56.0683 13.1364 56.5008 13.1609 56.8422 13.2077C57.1812 13.2568 57.5039 13.3769 57.8121 13.571C58.1182 13.7649 58.3558 14.021 58.52 14.3376C58.6841 14.6564 58.7569 15.0041 58.7401 15.3829C58.7186 15.8666 58.5577 16.3214 58.2593 16.7515C57.9585 17.1794 57.4957 17.4891 56.8732 17.6808L56.872 17.7075C57.8685 18.0173 58.343 18.6883 58.2971 19.7248C58.2637 20.4824 57.9229 21.169 57.2707 21.784C56.6204 22.4014 55.7176 22.7091 54.56 22.7091H48.7383L51.1799 13.1364ZM53.1559 16.8786H54.1487C54.578 16.8786 54.9116 16.8472 55.1476 16.7872C55.3859 16.7246 55.5808 16.5976 55.7323 16.4038C55.8862 16.2099 55.9653 16.0158 55.9739 15.8199C55.9841 15.5857 55.9154 15.4029 55.7626 15.2714C55.6123 15.1399 55.3068 15.0755 54.8468 15.0755H53.6034L53.1559 16.8786ZM52.1946 20.6519H53.7552C54.8557 20.6519 55.4222 20.282 55.4549 19.5418C55.4665 19.2811 55.3964 19.076 55.2446 18.9246C55.0928 18.7752 54.7703 18.6994 54.2795 18.6994H52.6947L52.1946 20.6519ZM69.719 13.1364L69.1308 15.4877H66.0627L64.2004 22.7091H61.2664L63.1221 15.4877H60.1882L60.7807 13.1364H69.719ZM79.9978 13.1364L77.5429 22.7091H74.8094L72.7135 17.1458H72.6869L71.2679 22.7091H68.5211L70.9758 13.1364H73.7096L75.7917 18.7128H75.818L77.251 13.1364H79.9978Z" fill="#093F7A"/>
<path fill-rule="evenodd" clip-rule="evenodd" d="M78.2994 23.6448C75.8725 23.743 58.106 24.5294 54.9992 25.021C51.8925 25.5126 49.8538 25.5126 49.0772 26.0041C48.3005 26.4957 47.7178 26.8888 48.6887 27.7737C49.6596 28.6584 50.242 28.6584 51.1159 28.8551C51.9895 29.0517 52.7664 29.15 53.8343 28.462C54.9022 27.7737 56.2612 27.3804 58.4942 26.7906C64.9989 25.3159 78.2994 23.6448 78.2994 23.6448Z" fill="#E62129"/>
<path fill-rule="evenodd" clip-rule="evenodd" d="M37.238 20.1467L38.3658 19.428V20.8009L37.2433 21.5406L37.2266 21.5291L37.238 20.1467ZM39.5008 18.7048L40.6206 17.9911L41.7235 18.6977V20.0152L40.6682 19.284L39.5008 20.0532V18.7048ZM42.8214 19.4011L43.9674 20.1351V21.5697L42.8214 20.7757V19.4011ZM44.9611 20.7719L45.0355 20.8196L44.0413 21.5347L44.9611 20.7719Z" fill="#DAB96B"/>
<path fill-rule="evenodd" clip-rule="evenodd" d="M39.5005 21.513L40.5492 20.829L41.7232 21.584V23.0214L40.5965 22.2647L39.4967 23.0457L38.8521 22.5943L39.5005 23.0379V21.513ZM42.8211 22.2904L42.8428 22.3041L42.6329 22.4439L42.8211 22.3169V22.2904Z" fill="#DAB96B"/>
<path fill-rule="evenodd" clip-rule="evenodd" d="M36.1821 20.8196V14.9961L40.6238 12L44.9692 14.931V20.765L43.9673 21.5959V15.8279L40.6919 13.4435L37.2738 15.7172L37.2264 21.5406L36.1821 20.8196Z" fill="#093F7A"/>
<path fill-rule="evenodd" clip-rule="evenodd" d="M38.3657 22.2614V16.4937L40.6658 14.9423L42.8214 16.3962V22.3169L41.7234 23.0575V17.1033L40.6472 16.3773L39.5007 17.1505V23.0379L38.3657 22.2614Z" fill="#093F7A"/>
</g>
<defs>
<clipPath id="clip0_896_31527">
<rect width="80" height="17" fill="white" transform="translate(0 12)"/>
</clipPath>
</defs>
</svg>
