<svg width="64" height="64" viewBox="0 0 64 64" fill="none" xmlns="http://www.w3.org/2000/svg">
<rect width="64" height="64" rx="32" fill="#99D3DE"/>
<path d="M38.2012 24.7979C38.2012 21.6164 35.6222 19.0373 32.4407 19.0373C30.9087 19.0309 29.4373 19.6349 28.3517 20.7159C27.2661 21.7969 26.6558 23.2658 26.6558 24.7979M38.0182 44.6667H26.8877C22.7992 44.6667 19.6627 43.1899 20.5536 37.2464L21.591 29.1914C22.1402 26.2258 24.0319 25.0908 25.6917 25.0908H39.263C40.9472 25.0908 42.7291 26.3112 43.3637 29.1914L44.4011 37.2464C45.1577 42.5187 42.1066 44.6667 38.0182 44.6667Z" stroke="#0092AC" stroke-width="1.5" stroke-linecap="round" stroke-linejoin="round"/>
<path d="M36.3945 30.8026H36.3345" stroke="#0092AC" stroke-width="1.5" stroke-linecap="round" stroke-linejoin="round"/>
<path d="M28.6214 30.8026H28.5601" stroke="#0092AC" stroke-width="1.5" stroke-linecap="round" stroke-linejoin="round"/>
</svg>
