<svg width="152" height="152" viewBox="0 0 152 152" fill="none" xmlns="http://www.w3.org/2000/svg">
<path d="M76.3374 139.785C115.103 139.785 146.528 121.641 146.528 99.2592C146.528 76.8771 115.103 58.7329 76.3374 58.7329C37.5723 58.7329 6.14688 76.8771 6.14688 99.2592C6.14688 121.641 37.5723 139.785 76.3374 139.785Z" fill="#F1F1F1"/>
<path d="M25.7032 124.898L24.7486 124.336C24.5906 124.232 24.4591 124.092 24.3646 123.928C24.2701 123.764 24.2153 123.58 24.2045 123.391V52.6407C24.2158 52.4521 24.2708 52.2688 24.3653 52.1052C24.4597 51.9416 24.591 51.8023 24.7486 51.6983L68.6462 26.3507C68.8156 26.2657 69.0024 26.2214 69.1919 26.2214C69.3814 26.2214 69.5683 26.2657 69.7376 26.3507L70.6922 26.904C70.8504 27.0077 70.9823 27.1469 71.0772 27.3105C71.1722 27.4741 71.2278 27.6576 71.2394 27.8464V98.6085C71.2282 98.7978 71.1729 98.982 71.0779 99.1461C70.9829 99.3103 70.8508 99.4499 70.6922 99.5539L26.7946 124.898C26.6252 124.983 26.4384 125.028 26.2489 125.028C26.0594 125.028 25.8725 124.983 25.7032 124.898Z" fill="#37474F"/>
<path d="M71.2333 27.7583C71.1938 27.4786 70.9658 27.3752 70.6922 27.5333L26.7946 52.8778C26.6332 52.9771 26.5002 53.1163 26.4085 53.2821L24.3626 52.1026C24.4552 51.9375 24.588 51.7984 24.7486 51.6983L68.6462 26.3507C68.8156 26.2657 69.0024 26.2214 69.1919 26.2214C69.3814 26.2214 69.5683 26.2657 69.7376 26.3507L70.6922 26.904C70.8384 26.9993 70.9624 27.1248 71.0557 27.2722C71.1491 27.4196 71.2097 27.5854 71.2333 27.7583Z" fill="#455A64"/>
<path d="M26.6973 124.944C26.6873 124.946 26.6769 124.946 26.6669 124.944L26.6091 124.965H26.5878C26.5544 124.965 26.521 124.984 26.4875 124.993C26.2712 125.035 26.0476 125.018 25.84 124.944C25.7981 124.929 25.7575 124.911 25.7184 124.889L24.7486 124.336C24.5906 124.232 24.4591 124.092 24.3646 123.928C24.2701 123.764 24.2153 123.58 24.2045 123.391V52.6406C24.2112 52.4508 24.2655 52.2658 24.3626 52.1025L26.4085 53.2821C26.3095 53.4446 26.254 53.6299 26.2474 53.8201V124.585C26.2425 124.687 26.2713 124.787 26.3294 124.871C26.3665 124.913 26.4145 124.944 26.4681 124.961C26.5218 124.978 26.579 124.979 26.6334 124.965L26.6973 124.944Z" fill="#263238"/>
<path d="M42.0888 49.8012C42.0746 49.7269 42.0411 49.6577 41.9915 49.6006L41.955 49.5702C41.9263 49.5485 41.8926 49.5344 41.8571 49.5291C41.8215 49.5238 41.7852 49.5275 41.7514 49.5398C41.7242 49.5463 41.6985 49.5576 41.6754 49.5732C41.5404 49.6662 41.4349 49.796 41.3714 49.9471C41.2901 50.1183 41.2465 50.3049 41.2437 50.4943C41.2315 50.6359 41.2751 50.7767 41.3653 50.8865C41.4053 50.9251 41.4575 50.9487 41.5129 50.9531C41.5684 50.9575 41.6236 50.9426 41.6693 50.9108C41.7344 50.8716 41.792 50.8211 41.8395 50.7618C41.8829 50.7053 41.9215 50.6453 41.955 50.5825C42.0484 50.3996 42.0993 50.198 42.104 49.9927C42.1057 49.9285 42.1006 49.8643 42.0888 49.8012ZM49.2267 33.8503C49.0683 33.7573 48.8876 33.7089 48.7038 33.7105C48.3551 33.7268 48.0162 33.8314 47.7189 34.0145C46.8891 34.5223 46.2485 35.2879 45.8949 36.1942C45.8371 36.3218 45.7824 36.4556 45.7338 36.5863C45.6851 36.717 45.6334 36.8508 45.5909 36.9876C45.5483 37.1244 45.4997 37.2612 45.4602 37.398C45.445 37.4436 45.4328 37.4922 45.4176 37.5348L45.3386 37.8114C45.3399 37.8246 45.3399 37.8378 45.3386 37.851C45.293 38.0182 45.2504 38.1914 45.2018 38.3617C45.1774 38.4559 45.1562 38.5441 45.1318 38.6353L45.0619 38.9058C44.9646 39.2676 44.8674 39.6142 44.7579 39.9455L44.688 40.1462C44.6546 40.2404 44.6211 40.3346 44.5846 40.4258C44.5482 40.517 44.5269 40.5657 44.4995 40.6295C44.4539 40.742 44.4053 40.8484 44.3536 40.9518C44.3019 41.0551 44.2898 41.0825 44.2563 41.1463C43.4872 42.6238 42.5478 43.2014 42.0037 43.9614C41.5264 44.6241 41.3957 45.153 40.7512 46.2018C40.5475 46.5362 40.2922 46.9223 39.9578 47.3844C39.0306 48.6612 38.6992 49.2935 38.5867 49.6766C38.5855 49.6867 38.5855 49.6969 38.5867 49.707C38.5867 49.7374 38.5867 49.7647 38.5654 49.7921C38.5643 49.8012 38.5643 49.8104 38.5654 49.8194C38.5642 49.8438 38.5642 49.8681 38.5654 49.8924C38.5548 49.9669 38.5497 50.0421 38.5502 50.1174V52.9567L39.5717 53.5465V50.7041C39.5691 50.5557 39.5907 50.4078 39.6355 50.2663C39.748 49.8833 40.0763 49.254 41.0066 47.9772C41.341 47.5121 41.5963 47.126 41.8 46.7916C42.4384 45.7458 42.5752 45.2138 43.0525 44.5572C43.5966 43.7942 44.536 43.2196 45.3051 41.7391C45.416 41.5116 45.5145 41.2782 45.6 41.0399C46.0925 39.8239 46.3144 38.1854 46.9194 36.8082C47.2724 35.9032 47.9133 35.1394 48.7434 34.6346C49.3666 34.2759 49.8226 34.2455 50.1722 34.4097L49.2267 33.8503ZM53.7046 37.4801C53.6197 37.4317 53.5287 37.3949 53.4341 37.3706C53.048 37.2794 52.4734 37.5044 51.8958 37.4375C52.7075 38.4863 53.8354 37.8114 54.4555 37.9604C54.552 37.9835 54.6443 38.0214 54.7291 38.0729L53.7046 37.4801ZM55.8691 41.3804C55.8388 41.399 55.8103 41.4203 55.784 41.4442L55.7414 41.4868L55.7019 41.5324C55.5314 41.7528 55.4375 42.0229 55.4344 42.3015C55.4243 42.4414 55.4665 42.5801 55.553 42.6906C55.5645 42.7015 55.5767 42.7117 55.5894 42.721C55.6176 42.7427 55.6507 42.7568 55.6858 42.7621C55.7209 42.7674 55.7568 42.7638 55.7901 42.7514C55.8181 42.7448 55.8448 42.7335 55.8691 42.718C55.8995 42.6998 55.9269 42.6754 55.9573 42.6542C56.0014 42.6128 56.0412 42.567 56.0758 42.5174C56.2205 42.3057 56.2998 42.0563 56.3038 41.7999C56.3038 41.4321 56.1093 41.2406 55.8691 41.3804ZM56.5379 38.8116C56.2098 38.6286 55.8532 38.5022 55.483 38.4377C55.325 38.4012 55.179 38.3617 55.0605 38.3222C55.4672 38.6841 55.9657 38.9271 56.5014 39.0244C56.8266 39.0877 57.143 39.1897 57.4438 39.3284L56.5379 38.8116Z" fill="#0092AC"/>
<path d="M57.5259 39.3801L57.4438 39.3315C57.143 39.1928 56.8266 39.0907 56.5014 39.0275C55.9655 38.9308 55.4668 38.6877 55.0605 38.3252C54.9587 38.2312 54.8477 38.1477 54.7291 38.0759C54.644 38.0257 54.5518 37.9888 54.4555 37.9665C53.8475 37.8175 52.7075 38.4924 51.8989 37.4436L51.8715 37.4102C51.3061 36.6471 51.0994 34.9447 50.2512 34.4462L50.1661 34.3975C49.8165 34.2334 49.3605 34.2638 48.7373 34.6225C46.4907 35.9206 46.4147 39.0031 45.6061 41.0308C44.7974 43.0585 43.6483 43.6939 43.0251 44.5663C42.4019 45.4388 42.3594 46.0863 40.9762 47.9894C39.593 49.8924 39.5413 50.3606 39.5413 50.7254V53.5647L57.9394 42.9247V40.0854C57.9505 39.9397 57.9168 39.7941 57.8429 39.6681C57.7691 39.5421 57.6585 39.4416 57.5259 39.3801ZM41.6754 50.9108C41.4352 51.0507 41.2437 50.8652 41.2437 50.4944C41.2413 50.3195 41.2789 50.1464 41.3538 49.9883C41.4286 49.8302 41.5386 49.6914 41.6754 49.5823C41.9155 49.4425 42.107 49.631 42.107 50.0019C42.1094 50.1763 42.0718 50.349 41.9969 50.5066C41.9221 50.6641 41.8121 50.8025 41.6754 50.9108ZM48.7373 42.3563C48.622 42.444 48.4876 42.503 48.345 42.5284C48.2024 42.5538 48.0559 42.5449 47.9174 42.5024C47.779 42.4599 47.6526 42.3851 47.5489 42.2841C47.4451 42.1831 47.3669 42.0588 47.3206 41.9215C47.1618 41.562 47.0859 41.1714 47.0987 40.7785C47.0987 39.3831 47.8314 37.8297 48.7373 37.3068C48.8596 37.2338 48.9931 37.1814 49.1325 37.1518C49.8499 37.0089 50.3758 37.6959 50.3758 38.8846C50.3758 40.2799 49.6432 41.8334 48.7373 42.3563ZM55.8691 42.715C55.629 42.8548 55.4344 42.6694 55.4344 42.3015C55.4326 42.1265 55.4708 41.9533 55.5462 41.7952C55.6215 41.6372 55.732 41.4984 55.8691 41.3895C56.1093 41.2527 56.3038 41.4382 56.3038 41.8091C56.3056 41.9833 56.2674 42.1556 56.192 42.3127C56.1166 42.4697 56.0062 42.6074 55.8691 42.715Z" fill="#0092AC"/>
<path opacity="0.1" d="M57.5259 39.3801L57.4438 39.3315C57.143 39.1928 56.8266 39.0907 56.5014 39.0275C55.9655 38.9308 55.4668 38.6877 55.0605 38.3252C54.9587 38.2312 54.8477 38.1477 54.7291 38.0759C54.644 38.0257 54.5518 37.9888 54.4555 37.9665C53.8475 37.8175 52.7075 38.4924 51.8989 37.4436L51.8715 37.4102C51.3061 36.6471 51.0994 34.9447 50.2512 34.4462L50.1661 34.3975C49.8165 34.2334 49.3605 34.2638 48.7373 34.6225C46.4907 35.9206 46.4147 39.0031 45.6061 41.0308C44.7974 43.0585 43.6483 43.6939 43.0251 44.5663C42.4019 45.4388 42.3594 46.0863 40.9762 47.9894C39.593 49.8924 39.5413 50.3606 39.5413 50.7254V53.5647L57.9394 42.9247V40.0854C57.9505 39.9397 57.9168 39.7941 57.8429 39.6681C57.7691 39.5421 57.6585 39.4416 57.5259 39.3801ZM41.6754 50.9108C41.4352 51.0507 41.2437 50.8652 41.2437 50.4944C41.2413 50.3195 41.2789 50.1464 41.3538 49.9883C41.4286 49.8302 41.5386 49.6914 41.6754 49.5823C41.9155 49.4425 42.107 49.631 42.107 50.0019C42.1094 50.1763 42.0718 50.349 41.9969 50.5066C41.9221 50.6641 41.8121 50.8025 41.6754 50.9108ZM48.7373 42.3563C48.622 42.444 48.4876 42.503 48.345 42.5284C48.2024 42.5538 48.0559 42.5449 47.9174 42.5024C47.779 42.4599 47.6526 42.3851 47.5489 42.2841C47.4451 42.1831 47.3669 42.0588 47.3206 41.9215C47.1618 41.562 47.0859 41.1714 47.0987 40.7785C47.0987 39.3831 47.8314 37.8297 48.7373 37.3068C48.8596 37.2338 48.9931 37.1814 49.1325 37.1518C49.8499 37.0089 50.3758 37.6959 50.3758 38.8846C50.3758 40.2799 49.6432 41.8334 48.7373 42.3563ZM55.8691 42.715C55.629 42.8548 55.4344 42.6694 55.4344 42.3015C55.4326 42.1265 55.4708 41.9533 55.5462 41.7952C55.6215 41.6372 55.732 41.4984 55.8691 41.3895C56.1093 41.2527 56.3038 41.4382 56.3038 41.8091C56.3056 41.9833 56.2674 42.1556 56.192 42.3127C56.1166 42.4697 56.0062 42.6074 55.8691 42.715Z" fill="black"/>
<path opacity="0.25" d="M39.6051 50.2785C39.5603 50.42 39.5387 50.5678 39.5413 50.7162V53.5586L38.5198 52.9689V50.1295C38.5193 50.0543 38.5244 49.9791 38.535 49.9046C38.5338 49.8803 38.5338 49.8559 38.535 49.8316C38.5339 49.8225 38.5339 49.8133 38.535 49.8042C38.535 49.7769 38.535 49.7495 38.5563 49.7191V49.6887L39.6051 50.2785Z" fill="black"/>
<path opacity="0.25" d="M43.0221 44.5694C42.5448 45.2261 42.4141 45.7581 41.7696 46.8038L40.7512 46.208C41.3896 45.1592 41.5264 44.6302 42.0037 43.9675L43.0221 44.5694Z" fill="black"/>
<path opacity="0.25" d="M46.9254 36.784C46.3174 38.1611 46.0986 39.7845 45.6061 41.0157C45.5104 41.2619 45.4008 41.5024 45.2778 41.7361L44.2563 41.1494C44.2898 41.0856 44.3232 41.0187 44.3536 40.9549C44.384 40.891 44.4539 40.7451 44.4995 40.6326C44.5269 40.5688 44.5573 40.4989 44.5846 40.4289C44.612 40.359 44.6546 40.2435 44.688 40.1493L44.7579 39.9486C44.8674 39.6173 44.9646 39.2707 45.0619 38.9089L45.1318 38.6384C45.1562 38.5472 45.1774 38.459 45.2018 38.3648C45.2504 38.1945 45.293 38.0213 45.3386 37.8541C45.3399 37.8409 45.3399 37.8277 45.3386 37.8145L45.4176 37.5379C45.4328 37.4953 45.445 37.4467 45.4602 37.4011C45.4997 37.2643 45.5453 37.1275 45.5909 36.9907C45.6365 36.8539 45.6821 36.7232 45.7338 36.5894C45.7854 36.4557 45.8371 36.3249 45.8949 36.1973L46.9254 36.784Z" fill="black"/>
<path d="M41.3683 49.9473C41.2871 50.1184 41.2435 50.305 41.2406 50.4945C41.2284 50.6361 41.2721 50.7768 41.3622 50.8866C41.2748 50.7755 41.2325 50.6355 41.2437 50.4945C41.2471 50.3054 41.2895 50.1191 41.3683 49.9473ZM42.1101 49.9929C42.1098 49.9285 42.1026 49.8643 42.0888 49.8014C42.1016 49.8644 42.1077 49.9286 42.107 49.9929C42.1034 50.1979 42.0535 50.3995 41.9611 50.5826C42.0545 50.3998 42.1054 50.1982 42.1101 49.9929ZM55.5894 42.7212C55.6176 42.7428 55.6507 42.757 55.6858 42.7623C55.7209 42.7676 55.7568 42.7639 55.7901 42.7516C55.7565 42.7621 55.721 42.7649 55.6862 42.7596C55.6515 42.7543 55.6184 42.7412 55.5894 42.7212Z" fill="#0092AC"/>
<path d="M50.3789 38.8848C50.3789 40.2801 49.6432 41.8336 48.7373 42.3565C48.6212 42.4409 48.4871 42.4973 48.3455 42.5212C48.2039 42.545 48.0587 42.5356 47.9213 42.4938C47.784 42.4519 47.6583 42.3787 47.554 42.28C47.4498 42.1812 47.3699 42.0596 47.3206 41.9248C47.4612 41.8946 47.5958 41.8411 47.7189 41.7667C48.6309 41.2408 49.3574 39.6904 49.3574 38.295C49.3708 37.9018 49.2938 37.5108 49.1325 37.152C49.856 37.0091 50.3789 37.6961 50.3789 38.8848Z" fill="#0092AC"/>
<path opacity="0.3" d="M50.3789 38.8848C50.3789 40.2801 49.6432 41.8336 48.7373 42.3565C48.6212 42.4409 48.4871 42.4973 48.3455 42.5212C48.2039 42.545 48.0587 42.5356 47.9213 42.4938C47.784 42.4519 47.6583 42.3787 47.554 42.28C47.4498 42.1812 47.3699 42.0596 47.3206 41.9248C47.4612 41.8946 47.5958 41.8411 47.7189 41.7667C48.6309 41.2408 49.3574 39.6904 49.3574 38.295C49.3708 37.9018 49.2938 37.5108 49.1325 37.152C49.856 37.0091 50.3789 37.6961 50.3789 38.8848Z" fill="black"/>
<path d="M41.952 50.5826C41.9213 50.6464 41.8836 50.7065 41.8395 50.7619C41.792 50.8212 41.7344 50.8717 41.6693 50.9109C41.6236 50.9427 41.5684 50.9576 41.5129 50.9532C41.4575 50.9487 41.4053 50.9252 41.3653 50.8866C41.2751 50.7768 41.2315 50.636 41.2437 50.4944C41.2466 50.305 41.2901 50.1184 41.3714 49.9472C41.4349 49.7961 41.5404 49.6663 41.6754 49.5733C41.6985 49.5577 41.7242 49.5464 41.7514 49.5399C41.7929 49.5254 41.8379 49.5234 41.8806 49.5342C41.9233 49.545 41.9618 49.5681 41.9915 49.6007C42.0411 49.6578 42.0746 49.727 42.0888 49.8013C42.1026 49.8642 42.1098 49.9284 42.1101 49.9928C42.1054 50.1992 42.0512 50.4015 41.952 50.5826Z" fill="#37474F"/>
<path d="M56.3038 41.8001C56.2998 42.0564 56.2205 42.3059 56.0758 42.5175C56.0412 42.5671 56.0014 42.613 55.9573 42.6543C55.9269 42.6756 55.8995 42.6999 55.8691 42.7182C55.8448 42.7336 55.8181 42.7449 55.7901 42.7516C55.7489 42.7654 55.7046 42.7671 55.6625 42.7563C55.6204 42.7455 55.5824 42.7227 55.553 42.6908C55.4665 42.5803 55.4243 42.4416 55.4344 42.3017C55.4375 42.023 55.5314 41.753 55.7019 41.5326L55.7414 41.487L55.784 41.4444C55.8103 41.4205 55.8388 41.3991 55.8691 41.3806C56.1093 41.2407 56.3038 41.4322 56.3038 41.8001Z" fill="#37474F"/>
<path d="M29.643 59.4959L67.8437 37.4407C67.9451 37.3896 68.057 37.363 68.1705 37.363C68.284 37.363 68.3959 37.3896 68.4973 37.4407L68.8651 37.6535C68.9603 37.7162 69.0395 37.8002 69.0965 37.8989C69.1535 37.9976 69.1867 38.1082 69.1934 38.222V96.4987C69.1869 96.6121 69.1538 96.7224 69.0968 96.8207C69.0398 96.9189 68.9604 97.0023 68.8651 97.0642L30.6645 119.119C30.5635 119.172 30.4514 119.199 30.3377 119.199C30.2239 119.199 30.1118 119.172 30.0109 119.119L29.643 118.907C29.5476 118.845 29.4681 118.762 29.411 118.663C29.354 118.565 29.321 118.455 29.3147 118.341V60.0644C29.3207 59.9504 29.3536 59.8395 29.4107 59.7407C29.4678 59.6419 29.5474 59.558 29.643 59.4959Z" fill="#F5F5F5"/>
<path d="M69.1813 38.1216C69.1387 37.9878 69.0141 37.9452 68.8773 38.0304L30.6645 60.0856C30.5677 60.1465 30.4881 60.2313 30.4334 60.3318L29.412 59.7421C29.4647 59.6409 29.5447 59.5567 29.643 59.4989L67.8437 37.4436C67.9441 37.3912 68.0557 37.3638 68.169 37.3638C68.2822 37.3638 68.3938 37.3912 68.4942 37.4436L68.8651 37.6534C68.9463 37.7065 69.0161 37.7753 69.0704 37.8556C69.1246 37.936 69.1623 38.0264 69.1813 38.1216Z" fill="#FAFAFA"/>
<path d="M30.5885 119.168C30.5492 119.183 30.5084 119.193 30.4669 119.199H30.403C30.3374 119.206 30.2711 119.206 30.2054 119.199C30.1638 119.193 30.123 119.183 30.0838 119.168L30.0109 119.132L29.643 118.919C29.5473 118.858 29.4675 118.774 29.4104 118.676C29.3533 118.578 29.3205 118.467 29.3147 118.353V60.0644C29.3179 59.9503 29.3515 59.839 29.412 59.7422L30.4334 60.3319C30.3759 60.4299 30.3435 60.5406 30.3392 60.6542V118.931C30.3392 119.11 30.4426 119.199 30.5885 119.168Z" fill="#E0E0E0"/>
<path d="M45.679 46.1108L45.6274 46.196C45.5055 46.395 45.4171 46.6127 45.3659 46.8404C45.3659 46.8587 45.3659 46.8678 45.3659 46.8769C45.3652 46.882 45.3652 46.8871 45.3659 46.8921L44.7427 50.4003L44.5482 51.522C44.5482 51.5676 44.5269 51.6132 44.5147 51.6619C44.5029 51.7072 44.4887 51.7518 44.4722 51.7956C44.4722 51.826 44.4509 51.8564 44.4387 51.8868L45.4602 52.4766C45.5089 52.3593 45.5446 52.2369 45.5666 52.1118L45.7672 50.99L46.3752 47.4819C46.4214 47.2007 46.5305 46.9337 46.6944 46.7006L45.679 46.1108Z" fill="#0092AC"/>
<path d="M38.6445 57.4286C38.5411 57.5928 38.4438 57.7569 38.3405 57.9211C38.2979 58.0001 38.2554 58.0791 38.2158 58.1582C38.1763 58.2372 38.1186 58.3619 38.076 58.4622C38.0334 58.5625 37.9787 58.6871 37.9362 58.8027C37.8936 58.9182 37.851 59.0337 37.8115 59.1492C37.772 59.2648 37.7234 59.4198 37.6869 59.5566C37.6626 59.6448 37.6382 59.7329 37.6139 59.8272C37.5572 60.042 37.5055 60.2609 37.4589 60.4838C37.4589 60.5598 37.4254 60.6388 37.4133 60.7148C37.4011 60.7908 37.3738 60.9033 37.3586 60.9945C37.3586 60.9945 37.3586 60.9945 37.3586 61.0097C37.3586 61.0827 37.3586 61.1313 37.395 61.1526C37.3998 61.1548 37.405 61.1559 37.4102 61.1559C37.4155 61.1559 37.4207 61.1548 37.4254 61.1526L38.304 60.4655L38.4469 60.3531L38.5168 60.3014L38.5928 60.2406L38.6536 60.195L38.7053 60.1524C38.9618 59.2231 39.3897 58.3498 39.9669 57.5775L38.9454 56.9878C38.8451 57.1337 38.7418 57.2827 38.6445 57.4286Z" fill="#0092AC"/>
<path d="M49.6979 38.3921C49.6493 38.4711 49.6067 38.5502 49.5642 38.6292C49.5362 38.6728 49.5119 38.7185 49.4912 38.766C49.4547 38.8298 49.4243 38.8967 49.3909 38.9636C49.3574 39.0305 49.3362 39.07 49.3118 39.1247C49.2602 39.2281 49.2146 39.3314 49.172 39.4287C49.1294 39.526 49.0747 39.6537 49.0322 39.7662C48.9896 39.8665 48.9562 39.9668 48.9227 40.0702C48.868 40.2222 48.8224 40.3742 48.7798 40.5292C48.7555 40.6113 48.7373 40.6903 48.716 40.7694C48.7165 40.7754 48.7165 40.7815 48.716 40.7876C48.716 40.8302 48.6947 40.8697 48.6886 40.9122C48.6643 41.0065 48.6461 41.1038 48.6309 41.198C48.6157 41.2922 48.6005 41.347 48.5792 41.423C48.5579 41.499 48.5397 41.581 48.5154 41.6601C48.491 41.7391 48.4667 41.809 48.4424 41.885C48.4424 41.885 48.4424 41.885 48.4424 41.9063C48.412 41.9884 48.3786 42.0735 48.3421 42.1586C48.3056 42.2438 48.2752 42.3258 48.2326 42.414C48.2222 42.4368 48.2131 42.4601 48.2053 42.4839C48.1749 42.5478 48.1414 42.6116 48.111 42.6785L47.9499 42.9825C47.9134 43.0554 47.877 43.1223 47.8374 43.1922L48.8619 43.782C49.23 43.1608 49.4988 42.4859 49.6584 41.7817C49.8517 40.7863 50.2158 39.8318 50.7346 38.9606L49.6979 38.3921Z" fill="#0092AC"/>
<path d="M55.7749 40.6661C55.7241 40.6353 55.6669 40.6166 55.6077 40.6113C55.7068 40.7697 55.8402 40.9037 55.9981 41.0037C56.1559 41.1037 56.3342 41.167 56.5197 41.1889C56.6076 41.1901 56.6944 41.2087 56.775 41.2436L55.7749 40.6661Z" fill="#0092AC"/>
<path opacity="0.4" d="M55.7749 40.6661C55.7241 40.6353 55.6669 40.6166 55.6077 40.6113C55.7068 40.7697 55.8402 40.9037 55.9981 41.0037C56.1559 41.1037 56.3342 41.167 56.5197 41.1889C56.6076 41.1901 56.6944 41.2087 56.775 41.2436L55.7749 40.6661Z" fill="white"/>
<path d="M59.584 45.1074C59.4236 45.029 59.2465 44.9908 59.068 44.9961C58.8895 45.0014 58.715 45.05 58.5595 45.1378C57.3709 45.6607 56.8571 45.8978 56.243 46.1532C56.1245 46.9436 56.5896 47.0166 56.8206 46.9223C57.684 46.5818 58.1248 46.3721 59.584 45.7306C59.7382 45.6441 59.9109 45.5959 60.0876 45.5901C60.2643 45.5843 60.4398 45.621 60.5994 45.6972L59.584 45.1074Z" fill="#0092AC"/>
<path opacity="0.4" d="M59.584 45.1074C59.4236 45.029 59.2465 44.9908 59.068 44.9961C58.8895 45.0014 58.715 45.05 58.5595 45.1378C57.3709 45.6607 56.8571 45.8978 56.243 46.1532C56.1245 46.9436 56.5896 47.0166 56.8206 46.9223C57.684 46.5818 58.1248 46.3721 59.584 45.7306C59.7382 45.6441 59.9109 45.5959 60.0876 45.5901C60.2643 45.5843 60.4398 45.621 60.5994 45.6972L59.584 45.1074Z" fill="white"/>
<path d="M45.4541 52.4765C45.2341 52.958 44.9246 53.3933 44.5421 53.7594L41.344 56.164C40.8328 56.5804 40.3717 57.0548 39.9699 57.5776L38.9485 56.9878C39.3493 56.4633 39.8105 55.9878 40.3226 55.5712L43.5267 53.1696C43.9024 52.8011 44.2065 52.3661 44.4235 51.8867L45.4541 52.4765Z" fill="#0092AC"/>
<path opacity="0.4" d="M45.4541 52.4765C45.2341 52.958 44.9246 53.3933 44.5421 53.7594L41.344 56.164C40.8328 56.5804 40.3717 57.0548 39.9699 57.5776L38.9485 56.9878C39.3493 56.4633 39.8105 55.9878 40.3226 55.5712L43.5267 53.1696C43.9024 52.8011 44.2065 52.3661 44.4235 51.8867L45.4541 52.4765Z" fill="white"/>
<path d="M48.8467 43.8063C48.4056 44.622 47.8621 45.378 47.2294 46.0559C47.0303 46.2509 46.8529 46.467 46.7005 46.7004L45.679 46.1106C45.8289 45.8754 46.0065 45.659 46.208 45.4662C46.8396 44.788 47.382 44.032 47.8222 43.2166L48.8467 43.8063Z" fill="#0092AC"/>
<path opacity="0.4" d="M48.8467 43.8063C48.4056 44.622 47.8621 45.378 47.2294 46.0559C47.0303 46.2509 46.8529 46.467 46.7005 46.7004L45.679 46.1106C45.8289 45.8754 46.0065 45.659 46.208 45.4662C46.8396 44.788 47.382 44.032 47.8222 43.2166L48.8467 43.8063Z" fill="white"/>
<path d="M54.6166 36.2581C54.2397 36.0605 53.7381 36.094 53.1483 36.4041C52.2728 36.8631 51.3912 37.8359 50.7163 38.985L49.6949 38.377C50.3637 37.2279 51.2453 36.249 52.1269 35.7961C52.4134 35.6343 52.7344 35.5436 53.0632 35.5316C53.26 35.5291 53.4539 35.5783 53.6256 35.6745L54.6166 36.2581Z" fill="#0092AC"/>
<path opacity="0.4" d="M54.6166 36.2581C54.2397 36.0605 53.7381 36.094 53.1483 36.4041C52.2728 36.8631 51.3912 37.8359 50.7163 38.985L49.6949 38.377C50.3637 37.2279 51.2453 36.249 52.1269 35.7961C52.4134 35.6343 52.7344 35.5436 53.0632 35.5316C53.26 35.5291 53.4539 35.5783 53.6256 35.6745L54.6166 36.2581Z" fill="white"/>
<path opacity="0.15" d="M39.979 57.5776C39.4019 58.3498 38.974 59.2231 38.7174 60.1525L38.6658 60.195L38.605 60.2406L38.529 60.3014L38.459 60.3531L38.3162 60.4656L37.4498 61.1587C37.445 61.1609 37.4398 61.162 37.4346 61.162C37.4293 61.162 37.4241 61.1609 37.4194 61.1587C37.3859 61.1374 37.3707 61.0888 37.3829 61.0158C37.3829 61.0158 37.3829 61.0158 37.3829 61.0006C37.3829 60.9094 37.4163 60.8152 37.4376 60.7209C37.4589 60.6267 37.468 60.5659 37.4832 60.4899C37.5298 60.269 37.5815 60.0501 37.6382 59.8333C37.6626 59.739 37.6869 59.6509 37.7112 59.5627C37.7477 59.4259 37.7902 59.2921 37.8358 59.1553C37.8814 59.0185 37.9149 58.9243 37.9605 58.8088C38.0061 58.6933 38.0486 58.5808 38.1003 58.4683C38.152 58.3558 38.1915 58.2585 38.2402 58.1643C38.2888 58.0701 38.3222 58.0062 38.3648 57.9272C38.453 57.763 38.5502 57.5989 38.6688 57.4347C38.7874 57.2705 38.8694 57.1307 38.9728 56.9939L39.979 57.5776Z" fill="black"/>
<path opacity="0.15" d="M46.7005 46.7006C46.5366 46.9337 46.4275 47.2007 46.3813 47.4819L45.7733 50.99L45.5726 52.1118C45.5507 52.2369 45.515 52.3593 45.4662 52.4766L44.4448 51.8868C44.4448 51.8564 44.4691 51.826 44.4782 51.7956C44.4947 51.7518 44.5089 51.7072 44.5208 51.6619C44.5208 51.6132 44.5451 51.5676 44.5542 51.522L44.7488 50.4003L45.372 46.8921C45.3713 46.8871 45.3713 46.882 45.372 46.8769C45.372 46.8769 45.372 46.8587 45.372 46.8404C45.4232 46.6127 45.5115 46.395 45.6334 46.196L45.6851 46.1108L46.7005 46.7006Z" fill="black"/>
<path opacity="0.15" d="M50.7194 38.985C50.2006 39.8562 49.8365 40.8107 49.6432 41.8061C49.4836 42.5103 49.2148 43.1852 48.8467 43.8064L47.8222 43.2167C47.8618 43.1467 47.8982 43.0799 47.9347 43.0069L48.0958 42.7029C48.1262 42.636 48.1597 42.5722 48.1901 42.5083C48.1979 42.4845 48.207 42.4612 48.2174 42.4384C48.257 42.3533 48.2934 42.2651 48.3269 42.1831C48.3603 42.101 48.3968 42.0128 48.4272 41.9307C48.4272 41.9307 48.4272 41.9155 48.4272 41.9095C48.4515 41.8335 48.4789 41.7605 48.5002 41.6845C48.5214 41.6085 48.5458 41.5264 48.564 41.4474C48.5822 41.3683 48.6005 41.2954 48.6157 41.2224C48.6309 41.1495 48.6491 41.0309 48.6734 40.9367C48.6734 40.8941 48.6917 40.8546 48.7008 40.812C48.7013 40.806 48.7013 40.7999 48.7008 40.7938C48.7221 40.7147 48.7403 40.6357 48.7646 40.5536C48.8072 40.3986 48.8528 40.2496 48.9075 40.0946C48.941 39.9912 48.9744 39.8909 49.017 39.7906C49.0595 39.6781 49.1082 39.5656 49.1568 39.4531C49.2054 39.3407 49.245 39.2464 49.2966 39.1491C49.321 39.0944 49.3483 39.0427 49.3757 38.988C49.403 38.9333 49.4395 38.8543 49.476 38.7904C49.4967 38.743 49.5211 38.6972 49.549 38.6536C49.5915 38.5746 49.6341 38.4955 49.6827 38.4165L50.7194 38.985Z" fill="black"/>
<path d="M37.4406 61.1587L38.304 60.4656C37.9605 60.7422 37.4923 61.104 37.4406 61.1587Z" fill="#0092AC"/>
<path d="M60.6024 45.7033C60.4424 45.6271 60.2666 45.5901 60.0895 45.5954C59.9124 45.6007 59.7391 45.6481 59.584 45.7337C58.1278 46.3781 57.687 46.5879 56.8237 46.9314C56.5926 47.0226 56.1275 46.9497 56.2461 46.1593C56.2449 46.1421 56.2449 46.1248 56.2461 46.1076L56.4437 44.9858L56.997 41.9276C56.997 41.9276 57.1216 41.4442 56.8024 41.2649H56.7781C56.6997 41.2263 56.6131 41.2075 56.5258 41.2101C56.3398 41.1873 56.1613 41.123 56.0034 41.022C55.8456 40.9209 55.7124 40.7858 55.6138 40.6265C55.4431 40.3726 55.3247 40.0873 55.2657 39.7871C55.2068 39.4869 55.2083 39.178 55.2702 38.8785C55.5043 37.5652 55.249 36.6471 54.6622 36.3066L54.6166 36.2762C54.2397 36.0786 53.7381 36.1121 53.1483 36.4221C51.5949 37.2369 50.0262 39.6537 49.6432 41.8242C49.403 43.1922 48.0259 45.2989 47.2294 46.0802C46.433 46.8615 46.3813 47.506 46.3813 47.506L45.7733 51.0141L45.5726 52.1359C45.4267 52.9749 44.5664 53.7866 44.5664 53.7866L41.344 56.1639C40.0655 57.181 39.1426 58.5775 38.7083 60.1524C38.7083 60.1524 37.4923 61.0826 37.4315 61.1586L37.8419 60.9245L59.9488 48.2143C59.9488 48.2143 60.2042 48.0775 60.2528 48.041C60.3014 48.0045 61.1982 47.1655 61.1982 47.1655C61.183 46.442 60.9733 45.9252 60.6024 45.7033ZM54.2184 39.2554C53.9813 40.59 53.0206 42.0765 52.0661 42.5781C51.4064 42.9217 50.923 42.7089 50.7619 42.1009C50.6912 41.76 50.6912 41.4082 50.7619 41.0673C50.996 39.7327 51.9627 38.2461 52.9173 37.7476C53.0056 37.6995 53.0982 37.6598 53.1939 37.629C53.9752 37.3919 54.416 38.0577 54.2123 39.2554H54.2184Z" fill="#0092AC"/>
<path d="M37.4437 61.1617L59.964 48.2174L60.268 48.0441C60.3227 48.0106 61.2134 47.1655 61.2134 47.1655L38.7174 60.1524C38.7174 60.1524 37.3555 61.2103 37.4437 61.1617Z" fill="#0092AC"/>
<path opacity="0.3" d="M37.4437 61.1617L59.964 48.2174L60.268 48.0441C60.3227 48.0106 61.2134 47.1655 61.2134 47.1655L38.7174 60.1524C38.7174 60.1524 37.3555 61.2103 37.4437 61.1617Z" fill="black"/>
<path d="M53.2 37.6291C53.1043 37.6599 53.0117 37.6996 52.9234 37.7477C51.9688 38.2462 51.0021 39.7328 50.768 41.0674C50.6973 41.4083 50.6973 41.7601 50.768 42.101C50.9291 42.709 51.4125 42.9218 52.0722 42.5782C53.0267 42.0766 53.9874 40.5901 54.2245 39.2555C54.416 38.0578 53.9752 37.392 53.2 37.6291ZM50.8288 42.0766C50.7616 41.7477 50.7616 41.4085 50.8288 41.0795C51.0629 39.7602 52.0144 38.2918 52.9568 37.8024C53.0351 37.761 53.1164 37.7254 53.2 37.696C53.2623 38.0173 53.2623 38.3475 53.2 38.6688C52.9659 40.0034 52.0022 41.4899 51.0446 41.9915C50.9751 42.0282 50.903 42.0597 50.8288 42.0858V42.0766Z" fill="#0092AC"/>
<path opacity="0.4" d="M53.2 37.6291C53.1043 37.6599 53.0117 37.6996 52.9234 37.7477C51.9688 38.2462 51.0021 39.7328 50.768 41.0674C50.6973 41.4083 50.6973 41.7601 50.768 42.101C50.9291 42.709 51.4125 42.9218 52.0722 42.5782C53.0267 42.0766 53.9874 40.5901 54.2245 39.2555C54.416 38.0578 53.9752 37.392 53.2 37.6291ZM50.8288 42.0766C50.7616 41.7477 50.7616 41.4085 50.8288 41.0795C51.0629 39.7602 52.0144 38.2918 52.9568 37.8024C53.0351 37.761 53.1164 37.7254 53.2 37.696C53.2623 38.0173 53.2623 38.3475 53.2 38.6688C52.9659 40.0034 52.0022 41.4899 51.0446 41.9915C50.9751 42.0282 50.903 42.0597 50.8288 42.0858V42.0766Z" fill="black"/>
<path d="M35.4677 78.3378C35.4196 78.338 35.3724 78.3254 35.3309 78.3013C35.2809 78.2691 35.2407 78.2236 35.215 78.1699C35.1892 78.1163 35.1788 78.0565 35.185 77.9973V76.6992C35.1895 76.5826 35.2223 76.4688 35.2806 76.3677C35.3388 76.2665 35.4208 76.181 35.5194 76.1186L36.6533 75.465C36.7003 75.4339 36.755 75.4165 36.8114 75.4147C36.8677 75.4129 36.9234 75.4269 36.9723 75.4549C37.0212 75.483 37.0613 75.5241 37.0882 75.5737C37.1151 75.6232 37.1276 75.6793 37.1245 75.7355V77.0458C37.1205 77.1625 37.0879 77.2765 37.0296 77.3777C36.9713 77.479 36.889 77.5644 36.7901 77.6264L35.6562 78.2831C35.5992 78.3175 35.5342 78.3364 35.4677 78.3378ZM36.8418 75.6808C36.8238 75.6858 36.8064 75.693 36.7901 75.7021L35.6562 76.3557C35.5992 76.3941 35.5518 76.445 35.5175 76.5045C35.4832 76.5641 35.4631 76.6307 35.4586 76.6992V78.0095C35.4535 78.0273 35.4535 78.0463 35.4586 78.0642C35.4767 78.0612 35.4942 78.055 35.5102 78.046L36.6442 77.3893C36.7011 77.3509 36.7486 77.3 36.7828 77.2405C36.8171 77.1809 36.8372 77.1143 36.8418 77.0458V75.7355C36.8433 75.7224 36.8433 75.7091 36.8418 75.696V75.6808Z" fill="#455A64"/>
<path d="M38.0882 75.2765L42.557 72.6956C42.7059 72.6105 42.8245 72.6773 42.8245 72.8476V73.1972C42.8191 73.2894 42.7921 73.379 42.7457 73.4587C42.6992 73.5385 42.6345 73.6062 42.557 73.6562L38.0882 76.2372C37.9422 76.3223 37.8206 76.2554 37.8206 76.0852V75.7356C37.826 75.6434 37.853 75.5538 37.8995 75.4741C37.9459 75.3943 38.0106 75.3266 38.0882 75.2765Z" fill="#E0E0E0"/>
<path d="M46.5424 71.9448C46.4943 71.9453 46.447 71.9326 46.4056 71.9083C46.355 71.8764 46.3143 71.8311 46.288 71.7774C46.2617 71.7237 46.2508 71.6638 46.2566 71.6043V70.294C46.2618 70.1772 46.2951 70.0633 46.3539 69.9622C46.4127 69.8611 46.4951 69.7757 46.5941 69.7134L47.728 69.0598C47.7749 69.0262 47.8304 69.0066 47.888 69.0034C47.9456 69.0002 48.0029 69.0134 48.0533 69.0415C48.1023 69.0711 48.142 69.1138 48.1679 69.1649C48.1937 69.216 48.2045 69.2733 48.1992 69.3303V70.6406C48.1952 70.7573 48.1626 70.8713 48.1043 70.9725C48.046 71.0738 47.9638 71.1592 47.8648 71.2212L46.7309 71.8779C46.6752 71.9166 46.6101 71.9397 46.5424 71.9448ZM47.9134 69.2878C47.8968 69.2938 47.8805 69.3009 47.8648 69.3091L46.7309 69.9627C46.6735 70.0009 46.6256 70.0517 46.5908 70.1112C46.5561 70.1708 46.5353 70.2374 46.5302 70.3062V71.6164C46.5242 71.6342 46.5242 71.6534 46.5302 71.6712C46.5483 71.6676 46.5657 71.6615 46.5819 71.6529L47.7158 70.9963C47.7731 70.9582 47.8208 70.9074 47.8551 70.8478C47.8894 70.7882 47.9094 70.7214 47.9134 70.6528V69.3425C47.9188 69.3247 47.9188 69.3056 47.9134 69.2878Z" fill="#455A64"/>
<path d="M49.1629 68.8835L53.6317 66.3025C53.7806 66.2174 53.8992 66.2843 53.8992 66.4545V66.8041C53.8939 66.8963 53.8669 66.9859 53.8204 67.0657C53.7739 67.1454 53.7092 67.2131 53.6317 67.2632L49.1629 69.8441C49.0139 69.9292 48.8954 69.8624 48.8954 69.6921V69.3425C48.9023 69.2507 48.93 69.1617 48.9763 69.0822C49.0227 69.0027 49.0865 68.9348 49.1629 68.8835Z" fill="#E0E0E0"/>
<path d="M57.6141 65.5517C57.5661 65.5519 57.5188 65.5393 57.4773 65.5152C57.4277 65.4824 57.388 65.4369 57.3623 65.3833C57.3366 65.3298 57.3259 65.2703 57.3314 65.2112V63.9009C57.3362 63.7844 57.3691 63.6707 57.4273 63.5696C57.4855 63.4685 57.5673 63.383 57.6658 63.3203L58.7997 62.6667C58.8469 62.6345 58.9023 62.6163 58.9594 62.6142C59.0166 62.6121 59.0731 62.6261 59.1227 62.6547C59.1722 62.6833 59.2126 62.7252 59.2394 62.7757C59.2661 62.8263 59.2781 62.8833 59.2739 62.9403V64.2475C59.2693 64.3645 59.2361 64.4785 59.1773 64.5797C59.1185 64.6809 59.0358 64.7662 58.9365 64.8281L57.8026 65.4848C57.747 65.5238 57.6818 65.5469 57.6141 65.5517ZM57.8026 63.5696C57.7461 63.6084 57.699 63.6595 57.6648 63.7189C57.6306 63.7784 57.6101 63.8447 57.605 63.9131V65.2233C57.5989 65.2411 57.5989 65.2603 57.605 65.2781C57.6224 65.2761 57.6391 65.2698 57.6536 65.2598L58.7875 64.6032C58.8449 64.565 58.8928 64.5142 58.9276 64.4546C58.9623 64.3951 58.9831 64.3284 58.9882 64.2597V62.9525C58.9938 62.9336 58.9938 62.9135 58.9882 62.8947C58.9882 62.8947 58.9699 62.8947 58.9365 62.916L57.8026 63.5696Z" fill="#455A64"/>
<path d="M60.2376 62.4902L64.7064 59.9092C64.8523 59.8241 64.9739 59.891 64.9739 60.0612V60.4108C64.967 60.5026 64.9393 60.5916 64.893 60.6711C64.8466 60.7506 64.7828 60.8186 64.7064 60.8698L60.2376 63.4508C60.0886 63.5359 59.9701 63.4691 59.9701 63.2988V62.9492C59.9754 62.857 60.0024 62.7674 60.0489 62.6877C60.0954 62.6079 60.16 62.5402 60.2376 62.4902Z" fill="#E0E0E0"/>
<path d="M38.1003 68.8804V69.3911C38.1003 69.6708 38.2949 69.7832 38.535 69.6434L64.679 54.562C64.8058 54.4787 64.9112 54.3668 64.9867 54.2353C65.0622 54.1038 65.1057 53.9564 65.1138 53.805V53.2912C65.1138 53.0146 64.9192 52.9021 64.679 53.0389L38.535 68.1234C38.4083 68.2066 38.3029 68.3185 38.2274 68.45C38.1519 68.5815 38.1083 68.7289 38.1003 68.8804Z" fill="#E0E0E0"/>
<path d="M36.1091 64.8918V65.4025C36.1091 65.6822 36.3037 65.7947 36.5469 65.6549L62.6757 50.5734C62.8033 50.4909 62.9096 50.3792 62.9857 50.2476C63.0618 50.1161 63.1056 49.9683 63.1134 49.8165V49.3027C63.1134 49.0261 62.9189 48.9136 62.6757 49.0504L36.5469 64.144C36.4204 64.2256 36.3149 64.3358 36.2389 64.4657C36.1629 64.5956 36.1184 64.7416 36.1091 64.8918Z" fill="#455A64"/>
<path d="M38.1003 71.972V72.4858C38.1003 72.7624 38.2949 72.8749 38.535 72.7381L64.679 57.6567C64.8058 57.5734 64.9112 57.4616 64.9867 57.3301C65.0622 57.1986 65.1057 57.0511 65.1138 56.8997V56.386C65.1138 56.1093 64.9192 55.9968 64.679 56.1336L38.535 71.2181C38.4087 71.3011 38.3035 71.4125 38.228 71.5434C38.1525 71.6743 38.1088 71.8211 38.1003 71.972Z" fill="#E0E0E0"/>
<path d="M35.2366 72.2365C35.9206 71.5586 36.0909 71.2698 36.0909 71.0205C36.0909 70.7712 35.9906 70.6375 35.6835 70.8138C35.5508 70.891 35.4365 70.9963 35.3488 71.1223C35.2611 71.2484 35.2021 71.3921 35.1758 71.5434L34.428 71.7106C34.4931 71.3188 34.6409 70.9453 34.8616 70.6151C35.0823 70.2849 35.3708 70.0054 35.7078 69.7954C36.4557 69.3637 36.8904 69.6859 36.8904 70.4034C36.8486 71.1018 36.5446 71.7587 36.0392 72.2426V72.8354L35.2366 73.2975V72.2365Z" fill="#455A64"/>
<path d="M35.2275 74.2063C35.2263 74.0602 35.2632 73.9163 35.3347 73.7889C35.4061 73.6615 35.5096 73.5549 35.6349 73.4798C35.9024 73.3247 36.0392 73.4615 36.0392 73.7382C36.0415 73.8849 36.0054 74.0297 35.9345 74.1582C35.8636 74.2868 35.7603 74.3945 35.6349 74.4708C35.3643 74.6258 35.2275 74.4799 35.2275 74.2063Z" fill="#455A64"/>
<path d="M35.644 76.6993L35.9784 76.9516L35.6744 77.5292C35.6482 77.5644 35.6341 77.607 35.6341 77.6508C35.6341 77.6946 35.6482 77.7373 35.6744 77.7724C35.7322 77.815 35.8142 77.7724 35.8629 77.6812L36.1669 77.1067L36.5013 77.359C36.5499 77.3955 36.6229 77.359 36.6654 77.2799C36.6879 77.2496 36.7 77.2128 36.7 77.1751C36.7 77.1373 36.6879 77.1005 36.6654 77.0702L36.331 76.8179L36.635 76.2402C36.6612 76.2051 36.6753 76.1625 36.6753 76.1187C36.6753 76.0748 36.6612 76.0322 36.635 75.9971C36.5773 75.9545 36.4952 75.997 36.4466 76.0882L36.1426 76.6659L35.8082 76.4135C35.7595 76.3771 35.6866 76.4135 35.644 76.4895C35.6215 76.5199 35.6094 76.5567 35.6094 76.5944C35.6094 76.6322 35.6215 76.6689 35.644 76.6993Z" fill="#0092AC"/>
<path d="M35.4677 89.8806C35.4199 89.8818 35.3727 89.8703 35.3309 89.8471C35.2809 89.8149 35.2407 89.7694 35.215 89.7157C35.1892 89.6621 35.1788 89.6023 35.185 89.5431V88.2329C35.189 88.1162 35.2216 88.0022 35.2799 87.9009C35.3382 87.7997 35.4204 87.7143 35.5194 87.6523L36.6533 86.9987C36.7003 86.9676 36.755 86.9502 36.8114 86.9484C36.8677 86.9466 36.9234 86.9605 36.9723 86.9886C37.0212 87.0167 37.0613 87.0578 37.0882 87.1073C37.1151 87.1569 37.1276 87.2129 37.1245 87.2692V88.5795C37.1205 88.6962 37.0879 88.8102 37.0296 88.9114C36.9713 89.0126 36.889 89.098 36.7901 89.1601L35.6562 89.8137C35.6004 89.8524 35.5353 89.8755 35.4677 89.8806ZM36.8418 87.2267C36.8232 87.23 36.8056 87.2373 36.7901 87.2479L35.6562 87.9015C35.5992 87.9399 35.5518 87.9908 35.5175 88.0504C35.4832 88.1099 35.4631 88.1765 35.4586 88.2451V89.5553C35.4535 89.5732 35.4535 89.5921 35.4586 89.61C35.4767 89.607 35.4942 89.6008 35.5102 89.5918L36.6442 88.9351C36.7011 88.8968 36.7486 88.8459 36.7828 88.7863C36.8171 88.7268 36.8372 88.6602 36.8418 88.5916V87.2814C36.8447 87.2633 36.8447 87.2448 36.8418 87.2267Z" fill="#455A64"/>
<path d="M38.0882 86.8194L42.557 84.2415C42.7059 84.1564 42.8245 84.2232 42.8245 84.3935V84.74C42.8196 84.8327 42.7928 84.923 42.7463 85.0033C42.6998 85.0836 42.6349 85.1517 42.557 85.2021L38.0882 87.7831C37.9422 87.8682 37.8206 87.7983 37.8206 87.628V87.2815C37.8257 87.1888 37.8526 87.0987 37.8991 87.0184C37.9456 86.9381 38.0104 86.8699 38.0882 86.8194Z" fill="#E0E0E0"/>
<path d="M46.5424 83.4876C46.4946 83.4892 46.4473 83.4776 46.4056 83.4541C46.355 83.4223 46.3143 83.377 46.288 83.3233C46.2617 83.2696 46.2508 83.2096 46.2566 83.1501V81.8399C46.2613 81.7229 46.2944 81.6089 46.3532 81.5077C46.412 81.4065 46.4947 81.3212 46.5941 81.2593L47.728 80.6057C47.7749 80.5721 47.8304 80.5525 47.888 80.5493C47.9456 80.5461 48.0029 80.5593 48.0533 80.5874C48.1023 80.617 48.142 80.6597 48.1679 80.7108C48.1937 80.7619 48.2045 80.8192 48.1992 80.8762V82.1865C48.1952 82.3032 48.1626 82.4172 48.1043 82.5184C48.046 82.6197 47.9638 82.705 47.8648 82.7671L46.7309 83.4207C46.6752 83.4594 46.6101 83.4825 46.5424 83.4876ZM47.9134 80.8337C47.8961 80.838 47.8797 80.8452 47.8648 80.855L46.7309 81.5086C46.6735 81.5468 46.6256 81.5976 46.5908 81.6571C46.5561 81.7166 46.5353 81.7833 46.5302 81.8521V83.1623C46.5242 83.1801 46.5242 83.1993 46.5302 83.217C46.5483 83.2135 46.5657 83.2074 46.5819 83.1988L47.7158 82.5421C47.7728 82.5038 47.8202 82.4529 47.8545 82.3933C47.8887 82.3338 47.9089 82.2672 47.9134 82.1986V80.8884C47.9188 80.8706 47.9188 80.8515 47.9134 80.8337Z" fill="#455A64"/>
<path d="M49.1629 80.4264L53.6317 77.8484C53.7806 77.7633 53.8992 77.8302 53.8992 78.0004V78.347C53.8943 78.4397 53.8676 78.5299 53.821 78.6102C53.7745 78.6906 53.7096 78.7587 53.6317 78.8091L49.1629 81.39C49.0139 81.4752 48.8954 81.39 48.8954 81.235V80.8884C48.9018 80.7961 48.9293 80.7065 48.9757 80.6265C49.022 80.5464 49.0861 80.4779 49.1629 80.4264Z" fill="#E0E0E0"/>
<path d="M57.6141 77.0944C57.5663 77.0957 57.5191 77.0841 57.4773 77.0609C57.4277 77.0282 57.388 76.9826 57.3623 76.9291C57.3366 76.8756 57.3259 76.8161 57.3314 76.7569V75.4467C57.3362 75.3301 57.3691 75.2164 57.4273 75.1153C57.4855 75.0142 57.5673 74.9287 57.6658 74.8661L58.7997 74.2125C58.8467 74.1805 58.9018 74.1624 58.9586 74.1601C59.0154 74.1579 59.0718 74.1717 59.1212 74.1999C59.1706 74.228 59.2111 74.2695 59.2381 74.3196C59.2651 74.3696 59.2775 74.4263 59.2739 74.483V75.7933C59.2693 75.9102 59.2361 76.0243 59.1773 76.1255C59.1185 76.2267 59.0358 76.312 58.9365 76.3739L57.8026 77.0275C57.747 77.0665 57.6818 77.0896 57.6141 77.0944ZM57.8026 75.1153C57.7461 75.1542 57.699 75.2052 57.6648 75.2647C57.6306 75.3241 57.6101 75.3905 57.605 75.4589V76.7691C57.5989 76.7868 57.5989 76.8061 57.605 76.8238C57.6219 76.8199 57.6383 76.8138 57.6536 76.8056L58.7875 76.1489C58.8449 76.1107 58.8928 76.0599 58.9276 76.0004C58.9623 75.9409 58.9831 75.8742 58.9882 75.8054V74.4952C58.9936 74.4773 58.9936 74.4583 58.9882 74.4405C58.97 74.4449 58.9525 74.4521 58.9365 74.4617L57.8026 75.1153Z" fill="#455A64"/>
<path d="M60.2376 74.0333L64.7064 71.4554C64.8523 71.3702 64.9739 71.4371 64.9739 71.6074V71.9539C64.9674 72.0462 64.94 72.1358 64.8936 72.2159C64.8472 72.296 64.7832 72.3644 64.7064 72.416L60.2376 74.9969C60.0886 75.0821 59.9701 75.0121 59.9701 74.8419V74.4953C59.9749 74.4027 60.0017 74.3124 60.0482 74.2321C60.0947 74.1518 60.1596 74.0836 60.2376 74.0333Z" fill="#E0E0E0"/>
<path d="M38.1003 80.4232V80.937C38.1003 81.2136 38.2949 81.3261 38.535 81.1893L64.679 66.1079C64.8058 66.0246 64.9112 65.9127 64.9867 65.7812C65.0622 65.6497 65.1057 65.5023 65.1138 65.3509V64.8371C65.1138 64.5605 64.9192 64.448 64.679 64.5848L38.535 79.6693C38.4087 79.7522 38.3035 79.8636 38.228 79.9946C38.1525 80.1255 38.1088 80.2723 38.1003 80.4232Z" fill="#E0E0E0"/>
<path d="M38.1003 83.5179V84.0316C38.1003 84.3083 38.2949 84.4207 38.535 84.2839L64.679 69.1995C64.8061 69.1172 64.9117 69.006 64.9873 68.8749C65.0629 68.7438 65.1062 68.5967 65.1138 68.4455V67.9318C65.1138 67.6521 64.9192 67.5396 64.679 67.6795L38.535 82.7639C38.4087 82.8469 38.3035 82.9583 38.228 83.0892C38.1525 83.2201 38.1088 83.367 38.1003 83.5179Z" fill="#E0E0E0"/>
<path d="M35.2366 83.7825C35.9206 83.1045 36.0909 82.8157 36.0909 82.5664C36.0909 82.3172 35.9906 82.1834 35.6835 82.3597C35.5508 82.4369 35.4365 82.5422 35.3488 82.6683C35.2611 82.7943 35.2021 82.938 35.1758 83.0893L34.428 83.2565C34.4931 82.8647 34.6409 82.4913 34.8616 82.161C35.0823 81.8308 35.3708 81.5514 35.7078 81.3413C36.4557 80.9096 36.8904 81.2319 36.8904 81.9645C36.8486 82.663 36.5446 83.3199 36.0392 83.8037V84.3965L35.2366 84.8586V83.7825Z" fill="#455A64"/>
<path d="M35.2275 85.7524C35.2263 85.6064 35.2632 85.4625 35.3347 85.3351C35.4061 85.2076 35.5096 85.1011 35.6349 85.0259C35.9024 84.8709 36.0392 85.0077 36.0392 85.2843C36.0412 85.431 36.005 85.5757 35.9341 85.7042C35.8632 85.8326 35.7601 85.9404 35.6349 86.0169C35.3643 86.172 35.2275 86.0321 35.2275 85.7524Z" fill="#455A64"/>
<path d="M46.7187 81.8398L47.0531 82.0922L46.7491 82.6697C46.723 82.7049 46.7088 82.7475 46.7088 82.7913C46.7088 82.8352 46.723 82.8778 46.7491 82.9129C46.8038 82.9555 46.889 82.9129 46.9376 82.8217L47.2416 82.2472L47.576 82.4995C47.6247 82.536 47.6976 82.4995 47.7371 82.4205C47.7596 82.3901 47.7717 82.3533 47.7717 82.3156C47.7717 82.2778 47.7596 82.2411 47.7371 82.2107L47.4027 81.9584L47.7067 81.3808C47.7312 81.3442 47.743 81.3006 47.7403 81.2566C47.7375 81.2127 47.7204 81.1708 47.6915 81.1376C47.6368 81.0981 47.5517 81.1376 47.503 81.2288L47.199 81.8064L46.8646 81.5541C46.819 81.5176 46.7461 81.5541 46.7035 81.6301C46.6827 81.6619 46.6729 81.6996 46.6757 81.7375C46.6784 81.7754 46.6935 81.8114 46.7187 81.8398Z" fill="#0092AC"/>
<path d="M35.4677 101.427C35.4197 101.427 35.3724 101.414 35.3309 101.39C35.2818 101.361 35.2421 101.318 35.2163 101.267C35.1905 101.216 35.1796 101.158 35.185 101.101V99.791C35.189 99.6743 35.2216 99.5603 35.2799 99.4591C35.3382 99.3578 35.4204 99.2724 35.5194 99.2104L36.6533 98.5568C36.7003 98.5257 36.755 98.5083 36.8114 98.5065C36.8677 98.5047 36.9234 98.5186 36.9723 98.5467C37.0212 98.5748 37.0613 98.6159 37.0882 98.6654C37.1151 98.715 37.1276 98.771 37.1245 98.8273V100.138C37.1205 100.254 37.0879 100.368 37.0296 100.47C36.9713 100.571 36.889 100.656 36.7901 100.718L35.6562 101.372C35.5992 101.406 35.5342 101.425 35.4677 101.427ZM36.8418 98.7726C36.8232 98.776 36.8056 98.7832 36.7901 98.7939L35.6562 99.4475C35.5992 99.4859 35.5518 99.5368 35.5175 99.5963C35.4833 99.6559 35.4631 99.7225 35.4586 99.791V101.101C35.4539 101.119 35.4539 101.138 35.4586 101.156C35.4771 101.153 35.4947 101.145 35.5102 101.135L36.6442 100.481C36.7011 100.443 36.7486 100.392 36.7828 100.332C36.8171 100.273 36.8372 100.206 36.8418 100.138V98.8273C36.8447 98.8092 36.8447 98.7907 36.8418 98.7726Z" fill="#455A64"/>
<path d="M38.0882 98.3653L42.557 95.7843C42.7059 95.6992 42.8245 95.7691 42.8245 95.9394V96.2859C42.8196 96.3786 42.7928 96.4688 42.7463 96.5492C42.6998 96.6295 42.6349 96.6976 42.557 96.748L38.0882 99.329C37.9422 99.4141 37.8206 99.3442 37.8206 99.1739V98.8274C37.8257 98.7347 37.8526 98.6446 37.8991 98.5643C37.9456 98.484 38.0104 98.4159 38.0882 98.3653Z" fill="#E0E0E0"/>
<path d="M46.5424 95.0334C46.4943 95.0339 46.447 95.0213 46.4056 94.9969C46.356 94.9678 46.3157 94.9252 46.2893 94.8741C46.2629 94.823 46.2516 94.7654 46.2566 94.7081V93.3979C46.2613 93.2809 46.2944 93.1669 46.3532 93.0657C46.412 92.9644 46.4947 92.8792 46.5941 92.8173L47.728 92.1637C47.7754 92.1315 47.8306 92.1126 47.8878 92.1088C47.9449 92.1051 48.0021 92.1167 48.0533 92.1424C48.1028 92.1751 48.1426 92.2207 48.1683 92.2742C48.194 92.3277 48.2047 92.3872 48.1992 92.4464V93.7566C48.1952 93.8734 48.1626 93.9873 48.1043 94.0886C48.046 94.1898 47.9638 94.2752 47.8648 94.3373L46.7309 94.9909C46.6728 95.021 46.6078 95.0357 46.5424 95.0334ZM47.9134 92.3795C47.8962 92.3838 47.8797 92.391 47.8648 92.4008L46.7309 93.0544C46.6735 93.0926 46.6256 93.1434 46.5908 93.2029C46.5561 93.2625 46.5353 93.3291 46.5302 93.3979V94.7081C46.5248 94.726 46.5248 94.745 46.5302 94.7629C46.5486 94.759 46.5661 94.7517 46.5819 94.7416L47.728 94.088C47.785 94.0496 47.8324 93.9987 47.8667 93.9391C47.9009 93.8796 47.9211 93.813 47.9256 93.7445V92.4342C47.9278 92.4151 47.9236 92.3958 47.9134 92.3795Z" fill="#455A64"/>
<path d="M49.1629 91.9721L53.6317 89.3911C53.7806 89.3091 53.8992 89.3759 53.8992 89.5462V89.8927C53.8943 89.9854 53.8676 90.0756 53.821 90.156C53.7745 90.2363 53.7096 90.3045 53.6317 90.3548L49.1629 92.9358C49.0139 93.0209 48.8954 92.951 48.8954 92.7808V92.4342C48.9018 92.3419 48.9293 92.2523 48.9757 92.1722C49.022 92.0921 49.0861 92.0237 49.1629 91.9721Z" fill="#E0E0E0"/>
<path d="M57.6141 88.6404C57.5661 88.6406 57.5188 88.628 57.4773 88.604C57.4282 88.5744 57.3885 88.5317 57.3627 88.4806C57.3369 88.4295 57.326 88.3722 57.3314 88.3152V87.0049C57.3354 86.8882 57.368 86.7742 57.4263 86.673C57.4846 86.5717 57.5668 86.4864 57.6658 86.4243L58.7997 85.7707C58.8461 85.7376 58.9009 85.7181 58.9579 85.7147C59.0148 85.7112 59.0716 85.7238 59.1217 85.7511C59.1718 85.7784 59.2132 85.8192 59.2412 85.8689C59.2692 85.9186 59.2826 85.9752 59.28 86.0321V87.3424C59.2754 87.4593 59.2422 87.5734 59.1834 87.6746C59.1246 87.7758 59.0419 87.8611 58.9426 87.923L57.8086 88.5766C57.751 88.6156 57.6836 88.6377 57.6141 88.6404ZM57.8026 86.6614C57.7461 86.7003 57.699 86.7513 57.6648 86.8108C57.6306 86.8702 57.6101 86.9366 57.605 87.0049V88.3152C57.5996 88.333 57.5996 88.352 57.605 88.3699C57.6223 88.3656 57.6387 88.3584 57.6536 88.3486L58.7875 87.695C58.8449 87.6568 58.8928 87.606 58.9276 87.5465C58.9623 87.4869 58.9831 87.4202 58.9882 87.3515V86.0321C58.9936 86.0143 58.9936 85.9953 58.9882 85.9774C58.9703 85.9815 58.9529 85.9876 58.9365 85.9957L57.8026 86.6614Z" fill="#455A64"/>
<path d="M60.2376 85.5792L64.7064 82.9982C64.8523 82.9161 64.9739 82.9982 64.9739 83.1532V83.4998C64.9674 83.5921 64.94 83.6817 64.8936 83.7618C64.8472 83.8419 64.7832 83.9103 64.7064 83.9619L60.2376 86.5428C60.0886 86.628 59.9701 86.558 59.9701 86.3878V86.0321C59.9763 85.941 60.0038 85.8526 60.0502 85.774C60.0967 85.6953 60.1608 85.6286 60.2376 85.5792Z" fill="#E0E0E0"/>
<path d="M38.1003 91.9692V92.483C38.1003 92.7596 38.2949 92.8721 38.535 92.7353L64.679 77.6508C64.8061 77.5686 64.9117 77.4574 64.9873 77.3263C65.0629 77.1952 65.1062 77.048 65.1138 76.8969V76.3831C65.1138 76.1065 64.9192 75.991 64.679 76.1308L38.535 91.2153C38.4087 91.2983 38.3035 91.4097 38.228 91.5406C38.1525 91.6715 38.1088 91.8183 38.1003 91.9692Z" fill="#E0E0E0"/>
<path d="M38.1003 95.0638V95.5775C38.1003 95.8542 38.2949 95.9666 38.535 95.8268L64.679 80.7454C64.8057 80.6628 64.9111 80.5515 64.9867 80.4205C65.0622 80.2895 65.1058 80.1425 65.1138 79.9914V79.4777C65.1138 79.198 64.9192 79.0855 64.679 79.2254L38.535 94.3098C38.4084 94.3924 38.3029 94.5037 38.2274 94.6347C38.1519 94.7657 38.1083 94.9127 38.1003 95.0638Z" fill="#E0E0E0"/>
<path d="M35.2366 95.3283C35.9206 94.6504 36.0909 94.3616 36.0909 94.1123C36.0909 93.863 35.9906 93.7262 35.6835 93.9056C35.5508 93.9828 35.4365 94.0881 35.3488 94.2141C35.2611 94.3402 35.2021 94.4839 35.1758 94.6352L34.428 94.7993C34.4935 94.4081 34.6415 94.0352 34.8622 93.7056C35.0828 93.3759 35.3711 93.0969 35.7078 92.8872C36.4557 92.4555 36.8904 92.7777 36.8904 93.4952C36.8486 94.1936 36.5446 94.8505 36.0392 95.3344V95.9272L35.2366 96.3893V95.3283Z" fill="#455A64"/>
<path d="M35.2275 97.2983C35.2261 97.1517 35.2629 97.0073 35.3343 96.8794C35.4058 96.7514 35.5094 96.6443 35.6349 96.5687C35.9024 96.4166 36.0392 96.5534 36.0392 96.8301C36.0409 96.9768 36.0045 97.1214 35.9337 97.2498C35.8628 97.3782 35.7599 97.486 35.6349 97.5628C35.3643 97.7178 35.2275 97.584 35.2275 97.2983Z" fill="#455A64"/>
<path d="M57.7934 86.9927L58.1248 87.2451L57.8208 87.8227C57.7942 87.8576 57.7798 87.9003 57.7798 87.9442C57.7798 87.9882 57.7942 88.0309 57.8208 88.0658C57.8755 88.1084 57.9606 88.0658 58.0093 87.9747L58.3133 87.3971L58.6477 87.6494C58.6963 87.6859 58.7662 87.6494 58.8088 87.5734C58.8317 87.5432 58.8441 87.5064 58.8441 87.4685C58.8441 87.4306 58.8317 87.3938 58.8088 87.3636L58.4744 87.1113L58.7784 86.5337C58.8015 86.4966 58.8125 86.4533 58.8097 86.4097C58.807 86.3661 58.7907 86.3244 58.7632 86.2905C58.7085 86.2479 58.6234 86.2905 58.5747 86.3817L58.2707 86.9593L57.9363 86.7039C57.8877 86.6675 57.8147 86.7039 57.7752 86.783C57.7548 86.8151 57.7455 86.853 57.7488 86.8909C57.7521 86.9289 57.7678 86.9646 57.7934 86.9927Z" fill="#0092AC"/>
<path d="M35.4677 112.973C35.4197 112.973 35.3724 112.96 35.3309 112.936C35.2818 112.907 35.2421 112.864 35.2163 112.813C35.1905 112.762 35.1796 112.704 35.185 112.647V111.337C35.189 111.22 35.2216 111.106 35.2799 111.005C35.3382 110.904 35.4204 110.818 35.5194 110.756L36.6533 110.1C36.7013 110.069 36.7565 110.051 36.8135 110.048C36.8705 110.045 36.9274 110.056 36.9786 110.081C37.0286 110.114 37.0687 110.159 37.0945 110.213C37.1202 110.267 37.1306 110.326 37.1245 110.385V111.696C37.1197 111.812 37.0868 111.926 37.0285 112.027C36.9703 112.128 36.8885 112.214 36.7901 112.276L35.6562 112.93C35.5981 112.96 35.5331 112.975 35.4677 112.973ZM36.8418 110.319C36.8236 110.322 36.8061 110.328 36.7901 110.337L35.6562 110.993C35.5992 111.032 35.5518 111.083 35.5175 111.142C35.4833 111.202 35.4631 111.268 35.4586 111.337V112.647C35.4539 112.665 35.4539 112.684 35.4586 112.702C35.4766 112.697 35.4939 112.69 35.5102 112.681L36.6442 112.027C36.7011 111.989 36.7486 111.938 36.7828 111.878C36.8171 111.819 36.8372 111.752 36.8418 111.684V110.373C36.8451 110.355 36.8451 110.337 36.8418 110.319Z" fill="#455A64"/>
<path d="M38.0882 109.911L42.557 107.33C42.7059 107.245 42.8245 107.315 42.8245 107.485V107.832C42.8196 107.925 42.7928 108.015 42.7463 108.095C42.6998 108.175 42.6349 108.244 42.557 108.294L38.0882 110.875C37.9422 110.96 37.8206 110.875 37.8206 110.72V110.373C37.8257 110.281 37.8526 110.19 37.8991 110.11C37.9456 110.03 38.0104 109.962 38.0882 109.911Z" fill="#E0E0E0"/>
<path d="M46.5424 106.579C46.4943 106.58 46.447 106.567 46.4056 106.543C46.3534 106.513 46.3114 106.468 46.2849 106.414C46.2584 106.359 46.2485 106.299 46.2566 106.239V104.929C46.2613 104.812 46.2944 104.698 46.3532 104.596C46.412 104.495 46.4947 104.41 46.5941 104.348L47.728 103.691C47.7752 103.66 47.8303 103.643 47.8869 103.641C47.9435 103.639 47.9995 103.654 48.0485 103.682C48.0975 103.71 48.1376 103.752 48.1642 103.802C48.1908 103.852 48.203 103.908 48.1992 103.965V105.275C48.1952 105.392 48.1626 105.506 48.1043 105.607C48.046 105.708 47.9638 105.794 47.8648 105.856L46.7309 106.51C46.6755 106.549 46.6104 106.573 46.5424 106.579ZM47.9134 103.926C47.8965 103.929 47.8801 103.936 47.8648 103.944L46.7309 104.6C46.6735 104.639 46.6256 104.689 46.5908 104.749C46.5561 104.808 46.5353 104.875 46.5302 104.944V106.254C46.5248 106.272 46.5248 106.291 46.5302 106.309C46.548 106.303 46.5653 106.296 46.5819 106.288L47.7158 105.634C47.7728 105.596 47.8202 105.545 47.8545 105.485C47.8887 105.426 47.9089 105.359 47.9134 105.29V103.968C47.917 103.954 47.917 103.939 47.9134 103.926Z" fill="#455A64"/>
<path d="M49.1629 103.518L53.6317 100.937C53.7806 100.852 53.8992 100.937 53.8992 101.092V101.439C53.8943 101.531 53.8676 101.622 53.821 101.702C53.7745 101.782 53.7096 101.85 53.6317 101.901L49.1629 104.482C49.0139 104.567 48.8954 104.497 48.8954 104.327V103.968C48.9036 103.878 48.9319 103.791 48.9782 103.713C49.0245 103.635 49.0876 103.568 49.1629 103.518Z" fill="#E0E0E0"/>
<path d="M57.6141 100.186C57.5661 100.187 57.5188 100.174 57.4773 100.15C57.4282 100.12 57.3885 100.078 57.3627 100.027C57.3369 99.9754 57.326 99.9181 57.3314 99.8611V98.5508C57.3354 98.4341 57.368 98.3201 57.4263 98.2189C57.4846 98.1177 57.5668 98.0323 57.6658 97.9702L58.7997 97.3136C58.8483 97.2828 58.904 97.2649 58.9615 97.2618C59.0189 97.2586 59.0763 97.2701 59.128 97.2953C59.1775 97.3281 59.2173 97.3736 59.243 97.4272C59.2687 97.4807 59.2794 97.5402 59.2739 97.5993V98.9096C59.2688 99.0264 59.2354 99.1403 59.1767 99.2414C59.1179 99.3425 59.0355 99.4279 58.9365 99.4902L57.8026 100.144C57.7445 100.174 57.6796 100.189 57.6141 100.186ZM57.8026 98.2073C57.7461 98.2462 57.699 98.2972 57.6648 98.3567C57.6306 98.4161 57.6101 98.4825 57.605 98.5508V99.8611C57.5996 99.8789 57.5996 99.898 57.605 99.9158C57.6216 99.9098 57.6379 99.9026 57.6536 99.8945L58.7875 99.2409C58.8449 99.2027 58.8928 99.1519 58.9276 99.0924C58.9623 99.0328 58.9831 98.9662 58.9882 98.8974V97.5841C58.9942 97.5664 58.9942 97.5472 58.9882 97.5294C58.9703 97.5334 58.9529 97.5396 58.9365 97.5476L57.8026 98.2073Z" fill="#455A64"/>
<path d="M60.2376 97.125L64.7064 94.5441C64.8523 94.459 64.9739 94.5289 64.9739 94.6991V95.0457C64.9674 95.138 64.94 95.2276 64.8936 95.3077C64.8472 95.3877 64.7832 95.4562 64.7064 95.5078L60.2376 98.0887C60.0886 98.1739 59.9701 98.0887 59.9701 97.9337V97.5841C59.9754 97.4919 60.0024 97.4023 60.0489 97.3226C60.0954 97.2428 60.16 97.1751 60.2376 97.125Z" fill="#E0E0E0"/>
<path d="M38.1003 103.515V104.029C38.1003 104.305 38.2949 104.418 38.535 104.278L64.679 89.1965C64.8057 89.114 64.9111 89.0026 64.9867 88.8716C65.0622 88.7406 65.1058 88.5936 65.1138 88.4426V87.9289C65.1138 87.6492 64.9192 87.5367 64.679 87.6765L38.535 102.761C38.4084 102.844 38.3029 102.955 38.2274 103.086C38.1519 103.217 38.1083 103.364 38.1003 103.515Z" fill="#E0E0E0"/>
<path d="M38.1003 106.61V107.123C38.1003 107.4 38.2949 107.513 38.535 107.373L64.679 92.2913C64.8054 92.2083 64.9105 92.0969 64.986 91.966C65.0615 91.8351 65.1053 91.6882 65.1138 91.5373V91.0236C65.1138 90.7439 64.9192 90.6314 64.679 90.7713L38.535 105.856C38.4084 105.938 38.3029 106.05 38.2274 106.181C38.1519 106.312 38.1083 106.459 38.1003 106.61Z" fill="#E0E0E0"/>
<path d="M35.2366 106.874C35.9206 106.196 36.0909 105.908 36.0909 105.658C36.0909 105.409 35.9906 105.272 35.6835 105.452C35.5511 105.528 35.4371 105.633 35.3494 105.759C35.2617 105.884 35.2025 106.027 35.1758 106.178L34.428 106.345C34.4935 105.954 34.6415 105.581 34.8622 105.251C35.0828 104.922 35.3711 104.643 35.7078 104.433C36.4557 104.001 36.8904 104.324 36.8904 105.056C36.8486 105.755 36.5446 106.412 36.0392 106.896V107.488L35.2366 107.95V106.874Z" fill="#455A64"/>
<path d="M35.2275 108.832C35.2261 108.685 35.2629 108.541 35.3343 108.413C35.4058 108.285 35.5094 108.178 35.6349 108.102C35.9024 107.95 36.0392 108.084 36.0392 108.364C36.0413 108.51 36.0051 108.654 35.9341 108.782C35.8632 108.91 35.76 109.018 35.6349 109.093C35.3643 109.264 35.2275 109.136 35.2275 108.832Z" fill="#455A64"/>
<path d="M57.7934 98.5872L58.1248 98.8396L57.8208 99.4172C57.7942 99.4521 57.7798 99.4948 57.7798 99.5388C57.7798 99.5827 57.7942 99.6254 57.8208 99.6604C57.8755 99.7029 57.9606 99.6604 58.0093 99.5692L58.3133 98.9916L58.6477 99.2469C58.6963 99.2834 58.7662 99.2469 58.8088 99.1679C58.8317 99.1377 58.8441 99.1009 58.8441 99.063C58.8441 99.0251 58.8317 98.9883 58.8088 98.9581L58.4744 98.7058L58.7784 98.1282C58.8015 98.0911 58.8125 98.0478 58.8097 98.0042C58.807 97.9606 58.7907 97.9189 58.7632 97.885C58.7085 97.8424 58.6234 97.885 58.5747 97.9762L58.2707 98.5538L57.9363 98.2984C57.8877 98.265 57.8147 98.2984 57.7752 98.3775C57.7548 98.4096 57.7455 98.4475 57.7488 98.4854C57.7521 98.5234 57.7678 98.5591 57.7934 98.5872Z" fill="#0092AC"/>
<path d="M87.4091 49.3878L85.1747 48.0988L85.1534 48.0836C84.0408 47.4544 82.5178 47.5486 80.8306 48.5244C79.2498 49.4364 77.8088 50.9564 76.7235 52.7105C75.468 54.7352 74.6806 57.076 74.6806 59.1766C74.6806 61.1374 75.3646 62.5206 76.4742 63.156L78.7451 64.454C79.8638 65.1684 81.4477 65.1046 83.2018 64.0923C86.6005 62.1284 89.3547 57.3587 89.3547 53.4371C89.3517 51.4033 88.6038 49.9958 87.4091 49.3878Z" fill="#0092AC"/>
<path opacity="0.1" d="M78.6965 64.448L76.4712 63.1742C75.3616 62.5297 74.6776 61.1526 74.6776 59.1948C74.6776 57.0942 75.465 54.7534 76.7205 52.7288L79.0947 54.0998C77.8392 56.1214 77.0518 58.4622 77.0518 60.5598C77.0458 62.4203 77.672 63.7609 78.6965 64.448Z" fill="black"/>
<path opacity="0.4" d="M87.3635 49.3634C86.2691 48.8314 84.8069 48.9652 83.1987 49.8924C81.5906 50.8196 80.177 52.3244 79.0886 54.0876L76.7144 52.7165C77.7997 50.9564 79.2437 49.4394 80.8214 48.5305C82.5086 47.5546 84.0317 47.4634 85.1443 48.0897L85.1656 48.1049L87.3635 49.3634Z" fill="white"/>
<path d="M81.8398 55.1639C81.8441 55.4007 81.7937 55.6352 81.6924 55.8493C81.5912 56.0634 81.4419 56.2512 81.2562 56.3981C80.9339 56.5836 80.6725 56.3343 80.6725 55.8388C80.6682 55.602 80.7186 55.3674 80.8199 55.1533C80.9211 54.9393 81.0704 54.7514 81.2562 54.6045C81.5784 54.416 81.8398 54.6684 81.8398 55.1639Z" fill="#455A64"/>
<path d="M85.1626 53.2457C85.1669 53.4824 85.1164 53.717 85.0152 53.9311C84.9139 54.1452 84.7646 54.333 84.5789 54.4799C84.2566 54.6653 83.9952 54.4161 83.9952 53.9205C83.9909 53.6838 84.0414 53.4492 84.1426 53.2351C84.2439 53.021 84.3932 52.8332 84.5789 52.6863C84.9011 52.5009 85.1626 52.7501 85.1626 53.2457Z" fill="#455A64"/>
<path d="M79.8547 62.5752C79.8315 62.5782 79.808 62.5782 79.7848 62.5752C79.7417 62.5665 79.7008 62.5494 79.6644 62.5248C79.628 62.5001 79.5969 62.4685 79.5729 62.4317C79.5488 62.3949 79.5323 62.3537 79.5244 62.3105C79.5164 62.2673 79.5171 62.223 79.5264 62.18C80.0554 59.6659 81.4021 57.465 82.9555 56.5682C83.2718 56.3582 83.6329 56.2252 84.0098 56.1798C84.3867 56.1344 84.769 56.1779 85.1261 56.3067C85.8587 56.6107 86.4242 57.3434 86.716 58.3831C86.7307 58.4658 86.7141 58.551 86.6693 58.6221C86.6245 58.6932 86.5548 58.745 86.4739 58.7674C86.3929 58.7898 86.3065 58.7813 86.2315 58.7433C86.1565 58.7054 86.0984 58.6409 86.0685 58.5624C85.8374 57.7295 85.4118 57.1488 84.8738 56.9269C84.6112 56.8407 84.3322 56.8162 84.0586 56.8552C83.785 56.8942 83.5241 56.9957 83.296 57.1519C81.9219 57.9453 80.6725 60.0216 80.1891 62.3199C80.1705 62.394 80.1274 62.4597 80.0666 62.506C80.0058 62.5524 79.9311 62.5768 79.8547 62.5752Z" fill="#455A64"/>
<path d="M87.4091 29.938L85.1747 28.6491H85.1534C84.0408 28.0198 82.5178 28.114 80.8306 29.0899C79.2498 30.0019 77.8088 31.5219 76.7235 33.2759C75.468 35.3006 74.6806 37.6414 74.6806 39.742C74.6806 41.7028 75.3646 43.086 76.4742 43.7214L78.7451 45.0195C79.8638 45.7339 81.4477 45.67 83.2018 44.6577C86.6005 42.6939 89.3547 37.9241 89.3547 34.0177C89.3517 31.9535 88.6038 30.546 87.4091 29.938Z" fill="#0092AC"/>
<path opacity="0.1" d="M78.6965 44.9922L76.4712 43.7184C75.3616 43.0739 74.6776 41.6968 74.6776 39.739C74.6776 37.6384 75.465 35.2976 76.7205 33.2729L79.0947 34.644C77.8392 36.6656 77.0518 39.0064 77.0518 41.104C77.0458 42.9706 77.672 44.3112 78.6965 44.9922Z" fill="black"/>
<path opacity="0.4" d="M87.3635 29.9137C86.2691 29.3817 84.8069 29.5155 83.1987 30.4427C81.5906 31.3699 80.177 32.8747 79.0886 34.6379L76.7144 33.2668C77.7997 31.5067 79.2437 29.9897 80.8214 29.0808C82.5086 28.1049 84.0317 28.0137 85.1443 28.64H85.1656L87.3635 29.9137Z" fill="white"/>
<path d="M81.8034 42.1618C81.5146 42.1626 81.2286 42.1069 80.9613 41.9977C80.1678 41.6724 79.5598 40.8789 79.2467 39.7572C79.2256 39.6664 79.2403 39.5709 79.2878 39.4907C79.3353 39.4105 79.4119 39.3517 79.5017 39.3266C79.5914 39.3015 79.6874 39.3121 79.7696 39.356C79.8519 39.4 79.9139 39.474 79.9429 39.5626C80.1952 40.4746 80.6542 41.0826 81.2349 41.3289C81.5188 41.4236 81.8209 41.4512 82.1173 41.4096C82.4138 41.3679 82.6965 41.2581 82.9434 41.0887C84.4238 40.2345 85.7736 37.9909 86.2874 35.5103C86.3078 35.4168 86.3642 35.335 86.4444 35.2827C86.5246 35.2303 86.6221 35.2117 86.716 35.2306C86.7625 35.2404 86.8066 35.2592 86.8459 35.286C86.8851 35.3129 86.9187 35.3472 86.9447 35.387C86.9706 35.4268 86.9885 35.4713 86.9973 35.518C87.006 35.5648 87.0055 35.6127 86.9957 35.6593C86.4242 38.3709 84.971 40.7482 83.296 41.718C82.8454 41.993 82.331 42.146 81.8034 42.1618Z" fill="#455A64"/>
<path d="M81.7365 36.1426C81.7409 36.3984 81.6864 36.6518 81.5773 36.8832C81.4682 37.1146 81.3074 37.3178 81.1072 37.4772C80.7576 37.6778 80.4779 37.4073 80.4779 36.8692C80.4728 36.6137 80.527 36.3605 80.6362 36.1295C80.7453 35.8985 80.9066 35.6959 81.1072 35.5377C81.4538 35.337 81.7365 35.6076 81.7365 36.1426Z" fill="#455A64"/>
<path d="M85.3237 34.0725C85.3281 34.3279 85.2736 34.5808 85.1645 34.8117C85.0554 35.0427 84.8945 35.2453 84.6944 35.404C84.3478 35.6047 84.0651 35.3341 84.0651 34.796C84.0607 34.5407 84.1152 34.2877 84.2243 34.0568C84.3334 33.8259 84.4943 33.6232 84.6944 33.4645C85.041 33.2639 85.3237 33.5375 85.3237 34.0725Z" fill="#455A64"/>
<path d="M91.9813 84.6823L75.8693 93.9847C75.7073 94.0672 75.5282 94.1102 75.3464 94.1102C75.1647 94.1102 74.9855 94.0672 74.8235 93.9847L73.9693 93.4892C73.8162 93.3894 73.689 93.2547 73.5981 93.0961C73.5072 92.9376 73.4552 92.7598 73.4464 92.5772V73.9724C73.4552 73.7899 73.5072 73.612 73.5981 73.4535C73.689 73.295 73.8162 73.1602 73.9693 73.0604L90.0813 63.758C90.2427 63.6756 90.4214 63.6326 90.6026 63.6326C90.7839 63.6326 90.9626 63.6756 91.124 63.758L91.9782 64.2566C92.1317 64.356 92.2591 64.4907 92.3501 64.6493C92.441 64.8079 92.4928 64.9859 92.5011 65.1686V83.7764C92.4917 83.9576 92.4398 84.1341 92.3494 84.2915C92.2591 84.4489 92.133 84.5828 91.9813 84.6823Z" fill="#455A64"/>
<path d="M75.7811 94.0243C75.6278 94.0859 75.4632 94.1142 75.2981 94.1074C75.133 94.1006 74.9713 94.0588 74.8235 93.9848L73.9693 93.4862C73.8162 93.3866 73.6892 93.2519 73.5988 93.0933C73.5084 92.9346 73.4572 92.7567 73.4494 92.5742V73.9694C73.454 73.7868 73.5064 73.6086 73.6014 73.4526L75.4984 74.5562C75.4047 74.7116 75.3524 74.8885 75.3464 75.0699V93.6747C75.3464 93.9818 75.5318 94.1216 75.7811 94.0243Z" fill="#263238"/>
<path d="M91.9813 84.6822L75.8693 93.9846C75.5805 94.1518 75.3464 94.0181 75.3464 93.6806V75.088C75.3552 74.9055 75.4072 74.7276 75.4981 74.5691C75.589 74.4105 75.7162 74.2758 75.8693 74.176L91.9813 64.8736C92.2701 64.7064 92.5042 64.8432 92.5042 65.1776V83.7854C92.493 83.9653 92.4399 84.1402 92.3491 84.2959C92.2583 84.4516 92.1324 84.5839 91.9813 84.6822Z" fill="#37474F"/>
<path fill-rule="evenodd" clip-rule="evenodd" d="M83.4845 80.0462L79.1069 86.2478C81.0403 88.2025 84.7613 86.7342 87.4182 82.9677C89.0142 80.7089 89.8715 78.2709 89.8715 75.9939L84.5728 79.04C84.1523 79.307 83.7836 79.6479 83.4845 80.0462Z" fill="#0092AC"/>
<path opacity="0.3" fill-rule="evenodd" clip-rule="evenodd" d="M83.4845 80.0462L79.1069 86.2478C81.0403 88.2025 84.7613 86.7342 87.4182 82.9677C89.0142 80.7089 89.8715 78.2709 89.8715 75.9939L84.5728 79.04C84.1523 79.307 83.7836 79.6479 83.4845 80.0462Z" fill="black"/>
<path d="M78.885 86.0898L83.2626 79.8882C83.5843 79.4613 83.9821 79.0975 84.436 78.8151L89.7347 75.7569C89.7763 75.7328 89.8235 75.7202 89.8716 75.7202C89.9196 75.7202 89.9668 75.7329 90.0084 75.7569C90.05 75.781 90.0845 75.8155 90.1085 75.8571C90.1325 75.8987 90.1452 75.9459 90.1451 75.994C90.1451 78.3409 89.2787 80.8093 87.6432 83.1258C85.883 85.6186 83.6213 87.2055 81.5936 87.3818C81.1052 87.4384 80.6104 87.3838 80.1461 87.2222C79.6818 87.0606 79.26 86.7961 78.9123 86.4485C78.8703 86.406 78.8434 86.3508 78.8357 86.2915C78.8281 86.2323 78.84 86.1721 78.8698 86.1202C78.8715 86.1087 78.8768 86.0981 78.885 86.0898ZM89.5858 76.4743L84.7218 79.2893C84.3353 79.5306 83.9954 79.8395 83.7186 80.2013L79.4778 86.2053C79.7657 86.4412 80.0982 86.6166 80.4555 86.7211C80.8128 86.8256 81.1875 86.8569 81.5571 86.8133C83.3994 86.6613 85.5638 85.1231 87.2024 82.7975C87.4821 82.4053 87.7344 82.0071 87.9654 81.6089C88.9015 80.0484 89.4566 78.2894 89.5858 76.4743Z" fill="white"/>
<path fill-rule="evenodd" clip-rule="evenodd" d="M83.6821 78.7149L82.08 73.9573C78.9549 76.9334 77.2434 81.7974 78.2587 84.8192C78.422 85.3563 78.7118 85.8463 79.1038 86.248L83.4814 80.0464C83.6055 79.8506 83.6875 79.631 83.722 79.4018C83.7566 79.1725 83.743 78.9386 83.6821 78.7149Z" fill="#0092AC"/>
<path d="M81.8946 73.7597C81.9273 73.7277 81.9676 73.7044 82.0117 73.6922C82.0558 73.68 82.1023 73.6791 82.1469 73.6898C82.1915 73.7015 82.2325 73.724 82.2664 73.7553C82.3003 73.7866 82.3261 73.8257 82.3414 73.8692L83.9405 78.6267C84.0146 78.8912 84.0324 79.1684 83.9926 79.4402C83.9528 79.712 83.8563 79.9724 83.7094 80.2045L79.344 86.4061C79.3203 86.4379 79.2902 86.4643 79.2556 86.4837C79.2211 86.503 79.1828 86.5149 79.1434 86.5186C79.1033 86.5227 79.0628 86.5178 79.0249 86.5041C78.987 86.4904 78.9527 86.4683 78.9245 86.4395C78.5044 86.0122 78.1919 85.4912 78.0125 84.9195C77.2738 82.7216 77.9304 79.5783 79.5051 76.8514C80.1496 75.7118 80.9542 74.6706 81.8946 73.7597ZM83.2626 79.8883C83.3613 79.7271 83.4262 79.5475 83.4533 79.3604C83.4805 79.1733 83.4694 78.9827 83.4206 78.8L81.9614 74.4589C79.1099 77.3834 77.5717 81.9069 78.5202 84.7341C78.6414 85.1228 78.8319 85.4863 79.0826 85.8072L83.2626 79.8883Z" fill="white"/>
<path fill-rule="evenodd" clip-rule="evenodd" d="M84.357 78.8121L88.7346 72.6105C87.1902 71.0479 84.5819 71.5738 82.083 73.9572L83.6821 78.7148C83.8128 79.11 84.1168 79.1526 84.357 78.8121Z" fill="#0092AC"/>
<path opacity="0.1" fill-rule="evenodd" clip-rule="evenodd" d="M84.357 78.8121L88.7346 72.6105C87.1902 71.0479 84.5819 71.5738 82.083 73.9572L83.6821 78.7148C83.8128 79.11 84.1168 79.1526 84.357 78.8121Z" fill="black"/>
<path d="M81.8946 73.7596C84.509 71.2668 87.2723 70.7409 88.9291 72.419C88.9744 72.4645 89.0022 72.5244 89.0077 72.5883C89.0133 72.6522 88.9962 72.716 88.9595 72.7686L84.5789 78.9702C84.5248 79.0913 84.4327 79.1914 84.3165 79.2552C84.2003 79.3191 84.0664 79.3432 83.9352 79.3239C83.8041 79.3047 83.6828 79.243 83.5899 79.1484C83.497 79.0538 83.4375 78.9315 83.4206 78.8L81.8216 74.0424C81.8096 74.0058 81.8056 73.9671 81.8098 73.9288C81.814 73.8905 81.8263 73.8536 81.8459 73.8204C81.8577 73.797 81.8743 73.7763 81.8946 73.7596ZM88.3728 72.6561C86.9531 71.4401 84.6488 71.96 82.3962 74.0424L83.9405 78.6328C83.9573 78.6839 83.9819 78.7321 84.0134 78.7756C84.0629 78.7488 84.1039 78.7089 84.132 78.6601L88.3728 72.6561Z" fill="white"/>
<path fill-rule="evenodd" clip-rule="evenodd" d="M84.5728 79.04L89.8715 76C89.8715 74.48 89.5067 73.4008 88.7346 72.6165L84.357 78.818C84.1168 79.1524 84.208 79.2588 84.5728 79.04Z" fill="#0092AC"/>
<path opacity="0.2" fill-rule="evenodd" clip-rule="evenodd" d="M84.5728 79.04L89.8715 76C89.8715 74.48 89.5067 73.4008 88.7346 72.6165L84.357 78.818C84.1168 79.1524 84.208 79.2588 84.5728 79.04Z" fill="black"/>
<path d="M84.132 78.654L88.5126 72.4524C88.5358 72.42 88.5657 72.3932 88.6004 72.3738C88.6351 72.3543 88.6736 72.3428 88.7133 72.3399C88.7529 72.336 88.7929 72.3411 88.8302 72.3547C88.8676 72.3684 88.9014 72.3904 88.9291 72.4189C89.759 73.258 90.1451 74.3949 90.1451 75.994C90.1452 76.042 90.1325 76.0892 90.1085 76.1309C90.0845 76.1725 90.0499 76.2071 90.0083 76.2311L84.7126 79.2893C84.5971 79.3562 84.2506 79.5568 84.0378 79.3228C83.9783 79.2445 83.9462 79.149 83.9462 79.0507C83.9462 78.9524 83.9783 78.8569 84.0378 78.7786L84.132 78.654ZM88.768 73.0513L84.8738 78.5689L89.604 75.8329C89.5736 74.626 89.3061 73.7292 88.768 73.0513Z" fill="white"/>
<path d="M125.78 56.6959C125.499 56.5602 125.19 56.4926 124.878 56.4984C124.566 56.5042 124.259 56.5833 123.983 56.7293L96.2768 72.7258C96.0096 72.9031 95.7879 73.1408 95.6295 73.4196C95.471 73.6984 95.3804 74.0106 95.3648 74.3309V82.2349C95.3528 82.551 95.4272 82.8645 95.5802 83.1415C95.7331 83.4184 95.9587 83.6484 96.2327 83.8067C96.5066 83.9649 96.8186 84.0454 97.1349 84.0395C97.4513 84.0336 97.76 83.9415 98.0278 83.7731L125.734 67.7767C126.002 67.5993 126.223 67.3616 126.382 67.0828C126.54 66.804 126.631 66.4918 126.646 66.1715V58.2675C126.635 57.956 126.551 57.6514 126.401 57.3784C126.25 57.1054 126.038 56.8716 125.78 56.6959Z" fill="#263238"/>
<path d="M126.637 58.1005C126.561 57.6324 126.181 57.4682 125.725 57.7357L114.173 64.4025L98.0187 73.7292C97.7445 73.8994 97.5185 74.137 97.3621 74.4193L95.6232 73.4161C95.7793 73.1337 96.0041 72.8953 96.2768 72.7229L123.983 56.7295C124.239 56.5677 124.532 56.4755 124.833 56.4621C125.135 56.4488 125.435 56.5147 125.704 56.6534C125.972 56.7921 126.2 56.9987 126.363 57.2525C126.527 57.5064 126.622 57.7988 126.637 58.1005Z" fill="#455A64"/>
<path d="M97.0885 75.3341V83.2381C97.0885 83.8279 97.505 84.068 98.0157 83.7732L125.722 67.7767C125.989 67.5993 126.211 67.3617 126.37 67.0828C126.528 66.804 126.619 66.4919 126.634 66.1716V58.2676C126.634 57.6778 126.221 57.4376 125.722 57.7325L114.17 64.4023L98.0126 73.729C97.7434 73.9052 97.5194 74.1423 97.3588 74.4212C97.1983 74.7 97.1057 75.0128 97.0885 75.3341Z" fill="#37474F"/>
<path d="M101.8 74.1761L102.253 75.1367C102.259 75.1505 102.267 75.163 102.277 75.1735C102.288 75.184 102.3 75.1923 102.314 75.1977C102.327 75.2031 102.342 75.2056 102.357 75.2051C102.372 75.2045 102.386 75.2009 102.399 75.1945L103.412 74.8084C103.573 74.7445 103.637 74.9725 103.521 75.1914L102.788 76.5655C102.744 76.6452 102.724 76.736 102.731 76.8269L102.904 78.0733C102.931 78.2709 102.764 78.5293 102.621 78.5111L101.709 78.3986C101.673 78.4003 101.637 78.4109 101.605 78.4294C101.573 78.448 101.546 78.4739 101.527 78.505L100.615 79.6632C100.472 79.8456 100.311 79.7788 100.332 79.5508L100.505 78.1068C100.513 78.0716 100.512 78.0352 100.502 78.0006C100.492 77.9661 100.473 77.9347 100.448 77.9092L99.715 77.3802C99.5995 77.2951 99.6634 76.9941 99.8245 76.8725L100.837 76.0913C100.908 76.032 100.959 75.9524 100.983 75.8633L101.436 74.3797C101.536 74.1457 101.728 74.0271 101.8 74.1761Z" fill="#0092AC"/>
<path d="M106.923 71.2454L107.376 72.206C107.381 72.2201 107.389 72.233 107.399 72.2438C107.409 72.2545 107.422 72.263 107.436 72.2685C107.449 72.2739 107.464 72.2764 107.479 72.2756C107.494 72.2748 107.509 72.2707 107.522 72.2638L108.534 71.8777C108.695 71.8139 108.759 72.0419 108.644 72.2607L107.92 73.6348C107.876 73.7156 107.856 73.8074 107.862 73.8993L108.036 75.1427C108.063 75.3403 107.896 75.5987 107.753 75.5804L106.841 75.471C106.804 75.4713 106.768 75.481 106.736 75.499C106.704 75.5171 106.678 75.543 106.658 75.5744L105.746 76.7326C105.604 76.915 105.442 76.8512 105.464 76.6201L105.637 75.1761C105.645 75.141 105.643 75.1045 105.633 75.07C105.623 75.0355 105.605 75.004 105.579 74.9785L104.847 74.4495C104.731 74.3644 104.795 74.0665 104.956 73.9419L105.968 73.1606C106.039 73.1014 106.09 73.0218 106.114 72.9326L106.567 71.4491C106.643 71.2119 106.85 71.0934 106.923 71.2454Z" fill="#0092AC"/>
<path d="M112.045 68.3149L112.498 69.2756C112.504 69.2894 112.512 69.3019 112.522 69.3124C112.532 69.3229 112.545 69.3311 112.558 69.3366C112.572 69.342 112.587 69.3445 112.602 69.344C112.616 69.3434 112.631 69.3398 112.644 69.3333L113.656 68.9442C113.818 68.8834 113.881 69.1084 113.766 69.3273L113.033 70.7013C112.989 70.7822 112.969 70.874 112.976 70.9658L113.149 72.2092C113.176 72.4068 113.009 72.6682 112.866 72.65L111.954 72.5375C111.917 72.5392 111.882 72.5498 111.85 72.5683C111.818 72.5868 111.791 72.6128 111.772 72.6439L110.86 73.7991C110.717 73.9845 110.556 73.9177 110.577 73.6897L110.75 72.2457C110.758 72.21 110.757 72.1731 110.746 72.1381C110.736 72.1031 110.718 72.0712 110.692 72.045L109.96 71.5161C109.844 71.434 109.908 71.133 110.069 71.0084L111.082 70.2271C111.152 70.1679 111.203 70.0883 111.228 69.9991L111.68 68.5156C111.766 68.2815 111.972 68.1599 112.045 68.3149Z" fill="#0092AC"/>
<path d="M117.168 65.3812L117.621 66.3419C117.626 66.3557 117.634 66.3682 117.644 66.3787C117.655 66.3892 117.667 66.3974 117.681 66.4029C117.695 66.4083 117.709 66.4108 117.724 66.4103C117.739 66.4097 117.753 66.4061 117.767 66.3996L118.779 66.0105C118.94 65.9497 119.004 66.1747 118.888 66.3935L118.156 67.7676C118.112 67.8485 118.092 67.9402 118.098 68.0321L118.271 69.2755C118.299 69.4731 118.131 69.7345 117.988 69.7163L117.076 69.6038C117.04 69.6055 117.004 69.6161 116.972 69.6346C116.94 69.6531 116.914 69.6791 116.894 69.7102L115.982 70.8654C115.839 71.0508 115.678 70.9839 115.699 70.7559L115.873 69.3119C115.88 69.2768 115.879 69.2403 115.869 69.2058C115.859 69.1713 115.84 69.1399 115.815 69.1143L115.082 68.5854C114.967 68.5003 115.031 68.1993 115.192 68.0747L116.204 67.2964C116.274 67.2361 116.324 67.1569 116.35 67.0684L116.803 65.5849C116.888 65.3599 117.095 65.2292 117.168 65.3812Z" fill="#0092AC"/>
<path d="M122.29 62.4477L122.743 63.4083C122.748 63.4221 122.756 63.4346 122.767 63.4451C122.777 63.4556 122.79 63.4639 122.803 63.4693C122.817 63.4747 122.832 63.4773 122.846 63.4767C122.861 63.4761 122.876 63.4725 122.889 63.4661L123.901 63.08C124.062 63.0162 124.126 63.2441 124.011 63.463L123.278 64.8371C123.234 64.9168 123.214 65.0077 123.22 65.0986L123.394 66.345C123.421 66.5426 123.254 66.801 123.111 66.7827L122.199 66.6702C122.162 66.672 122.126 66.6825 122.095 66.7011C122.063 66.7196 122.036 66.7455 122.016 66.7766L121.104 67.9349C120.962 68.1173 120.8 68.0504 120.822 67.8224L120.995 66.3784C121.003 66.3433 121.001 66.3068 120.991 66.2723C120.981 66.2378 120.963 66.2063 120.937 66.1808L120.217 65.664C120.101 65.5789 120.165 65.2779 120.326 65.1563L121.339 64.375C121.409 64.3158 121.46 64.2362 121.484 64.147L121.937 62.6635C122.01 62.4142 122.208 62.2957 122.29 62.4477Z" fill="#0092AC"/>
<path d="M101.037 69.1204L99.5174 68.2449C99.4872 68.2314 99.4618 68.2092 99.4445 68.181L99.1648 67.6946L100.077 67.1748L100.049 67.2538L101.037 69.1204Z" fill="#0092AC"/>
<path opacity="0.2" d="M101.037 69.1204L99.5174 68.2449C99.4872 68.2314 99.4618 68.2092 99.4445 68.181L99.1648 67.6946L100.077 67.1748L100.049 67.2538L101.037 69.1204Z" fill="black"/>
<path d="M99.9339 67.2477L100.986 69.0717C101 69.0981 101.022 69.1195 101.049 69.1335C101.076 69.1475 101.106 69.1534 101.136 69.1505C101.166 69.1476 101.195 69.136 101.218 69.1172C101.242 69.0983 101.259 69.073 101.268 69.0444L102.378 65.8433L99.9339 67.2477Z" fill="#0092AC"/>
<path d="M126.464 41.8304C126.451 41.5762 126.377 41.3288 126.25 41.1085C126.123 40.8881 125.945 40.7011 125.731 40.5627C125.504 40.4487 125.253 40.3894 124.999 40.3894C124.744 40.3894 124.493 40.4487 124.266 40.5627L96.0974 56.8176C95.8842 56.957 95.7067 57.1447 95.5794 57.3654C95.4521 57.5862 95.3786 57.8338 95.3648 58.0883V67.3603C95.3786 67.6147 95.4521 67.8623 95.5794 68.0831C95.7067 68.3039 95.8842 68.4915 96.0974 68.631C96.3244 68.7463 96.5755 68.8065 96.8301 68.8065C97.0847 68.8065 97.3357 68.7463 97.5627 68.631L125.801 52.3305C126.461 51.9536 126.467 51.5766 126.467 51.1145L126.464 41.8304Z" fill="#0092AC"/>
<path opacity="0.2" d="M95.3526 67.3573C95.3665 67.6118 95.44 67.8594 95.5673 68.0802C95.6945 68.3009 95.872 68.4886 96.0853 68.6281C96.2915 68.7331 96.5176 68.7931 96.7487 68.8041C96.9799 68.8151 97.2107 68.7769 97.4259 68.6919C97.0824 68.8226 96.8179 68.625 96.8179 68.2055V58.9305C96.8264 58.6757 96.9007 58.4274 97.0338 58.21L95.5654 57.3618C95.4348 57.5813 95.3617 57.8301 95.3526 58.0853V67.3573Z" fill="black"/>
<path opacity="0.4" d="M126.431 41.6236C126.345 41.3196 126.06 41.2132 125.722 41.4078L97.5506 57.6627C97.3331 57.7964 97.1549 57.9852 97.0338 58.2099L95.5685 57.3617C95.6921 57.1389 95.8699 56.9507 96.0853 56.8145L124.254 40.5627C124.481 40.4473 124.732 40.3872 124.987 40.3872C125.241 40.3872 125.492 40.4473 125.719 40.5627C125.904 40.6817 126.062 40.8372 126.185 41.0196C126.307 41.2021 126.391 41.4076 126.431 41.6236Z" fill="white"/>
<path d="M98.8 59.0945L124.096 44.46C124.342 44.3201 124.543 44.384 124.543 44.6059C124.525 44.7426 124.475 44.8732 124.397 44.9872C124.32 45.1012 124.216 45.1955 124.096 45.2625L98.8 59.8879C98.5568 60.0308 98.3562 59.967 98.3562 59.7451C98.3753 59.6099 98.4253 59.4809 98.5023 59.3681C98.5792 59.2553 98.6811 59.1617 98.8 59.0945Z" fill="white"/>
<path d="M98.8 63.2319L120.496 50.7071C120.743 50.5642 120.94 50.628 120.94 50.8499C120.922 50.9868 120.873 51.1176 120.796 51.2321C120.719 51.3465 120.616 51.4416 120.496 51.5096L98.8 64.0314C98.5568 64.1743 98.3562 64.1074 98.3562 63.8855C98.3764 63.7502 98.4268 63.6212 98.5036 63.5081C98.5805 63.395 98.6817 63.3006 98.8 63.2319Z" fill="white"/>
<path d="M98.8 65.2445L123.579 50.92C123.822 50.7772 124.023 50.844 124.023 51.066C124.003 51.2018 123.953 51.3313 123.876 51.445C123.799 51.5587 123.698 51.6536 123.579 51.7226L98.8 66.0441C98.5568 66.1869 98.3562 66.1231 98.3562 65.9012C98.3744 65.7649 98.424 65.6347 98.501 65.5208C98.578 65.4068 98.6804 65.3123 98.8 65.2445Z" fill="white"/>
<path d="M98.8 61.1039L123.579 46.7794C123.822 46.6365 124.023 46.7034 124.023 46.9253C124.004 47.0615 123.955 47.1917 123.878 47.3055C123.801 47.4194 123.699 47.514 123.579 47.582L98.8 61.9186C98.5568 62.0584 98.3562 61.9946 98.3562 61.7727C98.3726 61.6343 98.4214 61.5016 98.4985 61.3855C98.5756 61.2693 98.6788 61.1729 98.8 61.1039Z" fill="white"/>
<path d="M125.78 25.8978C125.499 25.7621 125.19 25.6945 124.878 25.7003C124.566 25.7061 124.259 25.7852 123.983 25.9312L96.2768 41.9246C96.0101 42.1025 95.7888 42.3403 95.6304 42.619C95.4721 42.8977 95.3811 43.2096 95.3648 43.5298V51.4338C95.3528 51.7499 95.4272 52.0634 95.5802 52.3403C95.7331 52.6173 95.9587 52.8473 96.2327 53.0056C96.5066 53.1638 96.8186 53.2443 97.1349 53.2384C97.4513 53.2325 97.76 53.1404 98.0278 52.972L125.734 36.9755C126.002 36.7982 126.223 36.5605 126.382 36.2817C126.54 36.0029 126.631 35.6907 126.646 35.3704V27.4664C126.635 27.1554 126.55 26.8514 126.4 26.5789C126.249 26.3065 126.037 26.0732 125.78 25.8978Z" fill="#263238"/>
<path d="M126.637 27.3022C126.561 26.834 126.181 26.6699 125.725 26.9344L114.173 33.6011L98.0187 42.9278C97.7451 43.1 97.5193 43.3384 97.3621 43.6209L95.6232 42.6177C95.7784 42.3347 96.0034 42.0962 96.2768 41.9246L123.983 25.9312C124.239 25.7693 124.532 25.6771 124.833 25.6638C125.135 25.6505 125.435 25.7164 125.704 25.8551C125.972 25.9937 126.2 26.2003 126.363 26.4542C126.527 26.7081 126.622 27.0005 126.637 27.3022Z" fill="#455A64"/>
<path d="M97.0885 44.536V52.44C97.0885 53.0298 97.505 53.2699 98.0157 52.9751L125.722 36.9786C125.989 36.8012 126.211 36.5636 126.37 36.2847C126.528 36.0059 126.619 35.6938 126.634 35.3735V27.4695C126.634 26.8797 126.221 26.6395 125.722 26.9344L114.17 33.6011L98.0126 42.9309C97.7434 43.1071 97.5194 43.3442 97.3588 43.6231C97.1983 43.902 97.1057 44.2147 97.0885 44.536Z" fill="#37474F"/>
<path d="M101.8 43.3806L102.253 44.3413C102.259 44.3551 102.267 44.3676 102.277 44.3781C102.288 44.3886 102.3 44.3968 102.314 44.4023C102.327 44.4077 102.342 44.4102 102.357 44.4097C102.372 44.4091 102.386 44.4055 102.399 44.399L103.412 44.0099C103.573 43.9491 103.637 44.1771 103.521 44.393L102.788 45.767C102.744 45.8479 102.724 45.9397 102.731 46.0315L102.904 47.2749C102.931 47.4725 102.764 47.7339 102.621 47.7157L101.709 47.6032C101.673 47.6049 101.637 47.6155 101.605 47.634C101.573 47.6525 101.546 47.6785 101.527 47.7096L100.615 48.8648C100.472 49.0502 100.311 48.9834 100.332 48.7554L100.505 47.3114C100.513 47.2762 100.512 47.2397 100.502 47.2052C100.492 47.1707 100.473 47.1393 100.448 47.1138L99.715 46.5848C99.5995 46.4997 99.6634 46.1987 99.8245 46.0741L100.837 45.2958C100.907 45.236 100.958 45.1566 100.983 45.0678L101.436 43.5843C101.536 43.3472 101.728 43.2286 101.8 43.3806Z" fill="#0092AC"/>
<path d="M106.923 40.447L107.376 41.4077C107.381 41.4215 107.389 41.434 107.4 41.4445C107.41 41.455 107.422 41.4632 107.436 41.4687C107.45 41.4741 107.465 41.4766 107.479 41.4761C107.494 41.4755 107.508 41.4719 107.522 41.4654L108.534 41.0794C108.695 41.0155 108.759 41.2435 108.644 41.4624L107.92 42.8365C107.876 42.9162 107.856 43.007 107.862 43.0979L108.036 44.3443C108.063 44.5419 107.896 44.8003 107.753 44.7821L106.841 44.6696C106.804 44.6713 106.768 44.6819 106.737 44.7004C106.705 44.7189 106.678 44.7449 106.658 44.776L105.746 45.9343C105.604 46.1167 105.442 46.0528 105.464 45.8218L105.637 44.3778C105.645 44.3426 105.643 44.3061 105.633 44.2716C105.623 44.2371 105.605 44.2057 105.579 44.1802L104.847 43.6512C104.731 43.5661 104.795 43.2651 104.956 43.1435L105.968 42.3622C106.039 42.303 106.09 42.2234 106.114 42.1342L106.567 40.6507C106.643 40.4136 106.85 40.295 106.923 40.447Z" fill="#0092AC"/>
<path d="M112.045 37.5136L112.498 38.4773C112.504 38.4911 112.512 38.5036 112.522 38.5141C112.532 38.5246 112.545 38.5328 112.558 38.5383C112.572 38.5437 112.587 38.5462 112.602 38.5457C112.616 38.5451 112.631 38.5415 112.644 38.535L113.656 38.1459C113.818 38.0851 113.881 38.3101 113.766 38.5289L113.033 39.903C112.989 39.9838 112.969 40.0756 112.976 40.1675L113.149 41.4109C113.176 41.6085 113.009 41.8669 112.866 41.8517L111.954 41.7392C111.917 41.7395 111.881 41.7492 111.849 41.7672C111.818 41.7853 111.791 41.8113 111.772 41.8426L110.86 43.0008C110.717 43.1832 110.556 43.1194 110.577 42.8883L110.75 41.4443C110.758 41.4092 110.756 41.3728 110.746 41.3383C110.736 41.3038 110.718 41.2724 110.692 41.2467L109.96 40.7178C109.844 40.6357 109.908 40.3347 110.069 40.2101L111.082 39.4288C111.152 39.3696 111.203 39.29 111.228 39.2008L111.68 37.7173C111.766 37.4832 111.972 37.3616 112.045 37.5136Z" fill="#0092AC"/>
<path d="M117.168 34.583L117.621 35.5437C117.626 35.5574 117.634 35.57 117.644 35.5805C117.655 35.591 117.667 35.5992 117.681 35.6047C117.695 35.6101 117.709 35.6126 117.724 35.612C117.739 35.6115 117.753 35.6079 117.767 35.6014L118.779 35.2123C118.94 35.1515 119.004 35.3765 118.888 35.5953L118.156 36.9694C118.112 37.0503 118.092 37.142 118.098 37.2339L118.271 38.4773C118.299 38.6749 118.131 38.9363 117.988 38.9181L117.076 38.8056C117.04 38.8073 117.004 38.8179 116.972 38.8364C116.94 38.8549 116.914 38.8808 116.894 38.912L115.982 40.0672C115.839 40.2526 115.678 40.1857 115.699 39.9577L115.873 38.5137C115.883 38.4775 115.884 38.4393 115.875 38.4026C115.867 38.3659 115.849 38.3319 115.824 38.304L115.091 37.775C114.976 37.6929 115.04 37.392 115.201 37.2673L116.213 36.4891C116.283 36.4281 116.334 36.3477 116.359 36.2581L116.812 34.7745C116.888 34.5496 117.095 34.428 117.168 34.583Z" fill="#0092AC"/>
<path d="M122.29 31.6493L122.743 32.61C122.748 32.6238 122.756 32.6363 122.767 32.6468C122.777 32.6573 122.79 32.6655 122.803 32.671C122.817 32.6764 122.832 32.6789 122.846 32.6784C122.861 32.6778 122.876 32.6742 122.889 32.6677L123.901 32.2786C124.062 32.2178 124.126 32.4458 124.011 32.6616L123.278 34.0479C123.234 34.1287 123.214 34.2205 123.22 34.3124L123.394 35.5557C123.421 35.7533 123.254 36.0148 123.111 35.9965L122.199 35.884C122.162 35.8858 122.126 35.8963 122.095 35.9149C122.063 35.9334 122.036 35.9593 122.016 35.9904L121.104 37.1456C120.962 37.3311 120.8 37.2642 120.822 37.0362L120.995 35.5922C121.003 35.5571 121.001 35.5206 120.991 35.4861C120.981 35.4516 120.963 35.4201 120.937 35.3946L120.205 34.8656C120.089 34.7805 120.153 34.4796 120.314 34.3549L121.326 33.5767C121.397 33.5175 121.448 33.4379 121.472 33.3487L121.925 31.8652C122.01 31.6159 122.208 31.4973 122.29 31.6493Z" fill="#455A64"/>
<path d="M101.037 38.3223L99.5174 37.4468C99.4872 37.4333 99.4618 37.4111 99.4445 37.3829L99.1648 36.8965L100.077 36.3767L100.049 36.4557L101.037 38.3223Z" fill="#0092AC"/>
<path opacity="0.2" d="M101.037 38.3223L99.5174 37.4468C99.4872 37.4333 99.4618 37.4111 99.4445 37.3829L99.1648 36.8965L100.077 36.3767L100.049 36.4557L101.037 38.3223Z" fill="black"/>
<path d="M99.9339 36.4496L100.986 38.2736C101 38.3 101.022 38.3214 101.049 38.3354C101.076 38.3494 101.106 38.3553 101.136 38.3524C101.166 38.3495 101.195 38.3379 101.218 38.319C101.242 38.3002 101.259 38.2749 101.268 38.2463L102.378 35.0452L99.9339 36.4496Z" fill="#0092AC"/>
<path d="M126.464 11.0321C126.45 10.7777 126.377 10.5301 126.249 10.3093C126.122 10.0885 125.945 9.90084 125.731 9.7614C125.504 9.64606 125.253 9.58594 124.999 9.58594C124.744 9.58594 124.493 9.64606 124.266 9.7614L96.0853 26.0163C95.872 26.1557 95.6945 26.3434 95.5673 26.5642C95.44 26.7849 95.3665 27.0326 95.3526 27.287V36.559C95.3665 36.8135 95.44 37.0611 95.5673 37.2818C95.6945 37.5026 95.872 37.6903 96.0853 37.8297C96.3123 37.9451 96.5633 38.0052 96.8179 38.0052C97.0725 38.0052 97.3236 37.9451 97.5506 37.8297L125.789 21.5262C126.449 21.1523 126.455 20.7753 126.455 20.3102L126.464 11.0321Z" fill="#0092AC"/>
<path opacity="0.2" d="M95.3526 36.559C95.3665 36.8134 95.44 37.0611 95.5673 37.2818C95.6945 37.5026 95.872 37.6903 96.0853 37.8297C96.2914 37.935 96.5178 37.9949 96.749 38.0054C96.9803 38.0159 97.2111 37.9767 97.4259 37.8905C97.0824 38.0212 96.8179 37.8267 96.8179 37.4072V28.1321C96.8268 27.8765 96.9011 27.6273 97.0338 27.4086L95.5654 26.5635C95.4348 26.7829 95.3617 27.0318 95.3526 27.287V36.559Z" fill="black"/>
<path opacity="0.4" d="M126.431 10.8254C126.345 10.5214 126.06 10.415 125.722 10.6096L97.5506 26.8644C97.3331 26.9982 97.1549 27.1869 97.0338 27.4116L95.5685 26.5635C95.6921 26.3406 95.8699 26.1525 96.0853 26.0163L124.254 9.76141C124.481 9.64746 124.732 9.58813 124.987 9.58813C125.241 9.58813 125.492 9.64746 125.719 9.76141C125.904 9.88076 126.063 10.0367 126.185 10.2197C126.307 10.4027 126.391 10.6089 126.431 10.8254Z" fill="white"/>
<path d="M98.8 28.2931L124.096 13.6616C124.342 13.5218 124.543 13.5856 124.543 13.8075C124.525 13.9442 124.475 14.0748 124.397 14.1888C124.32 14.3028 124.216 14.3971 124.096 14.4642L98.8 29.0957C98.5568 29.2386 98.3562 29.1747 98.3562 28.9528C98.3755 28.8165 98.4255 28.6863 98.5024 28.5721C98.5793 28.4578 98.681 28.3624 98.8 28.2931Z" fill="white"/>
<path d="M98.8 32.4306L120.496 19.9058C120.743 19.7629 120.94 19.8268 120.94 20.0487C120.923 20.1852 120.873 20.3157 120.796 20.4297C120.719 20.5437 120.617 20.6381 120.496 20.7053L98.8 33.2331C98.5568 33.373 98.3562 33.3091 98.3562 33.0872C98.3747 32.951 98.4243 32.8209 98.5013 32.707C98.5783 32.5931 98.6805 32.4985 98.8 32.4306Z" fill="white"/>
<path d="M98.8 34.4433L123.579 20.1218C123.822 19.979 124.023 20.0458 124.023 20.2647C124.004 20.4011 123.954 20.5312 123.877 20.6455C123.8 20.7597 123.698 20.8551 123.579 20.9244L98.8 35.2458C98.5568 35.3887 98.3562 35.3249 98.3562 35.103C98.3755 34.9666 98.4255 34.8365 98.5024 34.7222C98.5793 34.608 98.681 34.5126 98.8 34.4433Z" fill="white"/>
<path d="M98.8 30.3178L123.579 15.9933C123.822 15.8504 124.023 15.9173 124.023 16.1392C124.003 16.275 123.953 16.4046 123.876 16.5183C123.799 16.6319 123.698 16.7268 123.579 16.7958L98.8 31.1173C98.5568 31.2602 98.3562 31.1963 98.3562 30.9744C98.3744 30.8381 98.424 30.7079 98.501 30.594C98.578 30.4801 98.6804 30.3855 98.8 30.3178Z" fill="white"/>
<path d="M109.312 86.1839L119.968 84.0955C120.035 84.0844 120.104 84.0943 120.165 84.1239C120.227 84.1535 120.277 84.2013 120.311 84.2608C120.344 84.3203 120.358 84.3886 120.351 84.4564C120.344 84.5242 120.316 84.5882 120.272 84.6396L113.045 92.8233L109.312 86.1839Z" fill="#FFA8A7"/>
<path d="M120.278 84.6396C120.322 84.5882 120.35 84.5242 120.357 84.4564C120.364 84.3886 120.35 84.3203 120.317 84.2608C120.283 84.2013 120.233 84.1535 120.171 84.1239C120.11 84.0943 120.041 84.0844 119.974 84.0955L117.888 84.5119C118.174 84.6888 118.405 84.9411 118.556 85.2409C118.707 85.5408 118.773 85.8766 118.745 86.2113V86.3998L120.278 84.6396Z" fill="#0092AC"/>
<path d="M73.3218 115.608L74.1912 115.106L75.2461 114.498L113.048 92.814C113.395 91.6402 113.287 90.3789 112.744 89.2816C111.988 87.5913 110.522 86.2416 109.306 86.1777L71.5342 107.859L69.5248 109.011C70.8685 108.336 74.6594 114.912 73.3218 115.608Z" fill="#37474F"/>
<path d="M76.6445 113.714L78.5901 112.596C79.1646 112.292 78.8363 110.878 78.1645 109.419C77.2738 107.479 75.5258 105.6 74.7627 106.005L73.3278 106.829L72.8202 107.133C73.5832 106.728 75.3342 108.604 76.2219 110.547C76.8634 111.945 77.1917 113.304 76.7022 113.675C76.6869 113.693 76.667 113.707 76.6445 113.714Z" fill="#EBEBEB"/>
<path d="M77.1279 113.431C78.4624 112.723 74.6411 106.135 73.3035 106.847L71.3549 107.959C72.6894 107.254 76.5229 113.836 75.1762 114.544L77.1279 113.431Z" fill="#0092AC"/>
<path d="M73.3218 115.608L75.2461 114.508C76.5624 113.821 72.9266 107.437 71.5342 107.859C71.5063 107.864 71.4795 107.875 71.4552 107.89L69.5248 109.011C70.8685 108.336 74.6594 114.912 73.3218 115.608Z" fill="#EBEBEB"/>
<path opacity="0.15" d="M120.326 84.2809L119.968 84.0955L112.237 88.3241L72.2608 111.264C72.1848 111.145 72.124 111.136 72.0754 111.218C73.2123 112.991 74.0696 115.222 73.3218 115.611L74.1912 115.11L75.2461 114.502L113.048 92.8172L120.275 84.6335C120.319 84.5877 120.348 84.5289 120.358 84.4656C120.367 84.4023 120.356 84.3376 120.326 84.2809Z" fill="black"/>
<path d="M65.1533 120.281L73.3218 115.608C73.8933 115.304 73.5771 113.912 72.9174 112.462C72.0328 110.519 70.2909 108.622 69.5248 109.011L61.3229 113.696C59.6934 114.635 61.1922 118.168 63.007 119.749C63.6819 120.354 64.448 120.618 65.1533 120.281Z" fill="#F28F8F"/>
<path opacity="0.1" d="M65.6397 117.748C65.1715 115.906 63.6819 114.1 62.3109 113.714C62.1096 113.643 61.8941 113.621 61.6826 113.65C61.471 113.679 61.2695 113.759 61.0949 113.881C59.8789 115.021 61.2986 118.262 63.0162 119.758C63.6758 120.341 64.4146 120.603 65.1198 120.296C65.7218 119.937 65.968 118.995 65.6397 117.748Z" fill="black"/>
</svg>
