<svg width="141" height="127" viewBox="0 0 141 127" fill="none" xmlns="http://www.w3.org/2000/svg">
<path d="M55.9675 77.7424C56.0435 76.7271 55.241 75.5658 53.4474 74.1917C50.1398 71.6503 38.1227 63.2933 33.4533 60.2077C33.4528 60.1976 33.449 60.1879 33.4424 60.1802C33.4357 60.1724 33.4268 60.1672 33.4168 60.1651C29.8418 57.5842 29.0392 39.9066 27.0936 31.4493C27.0754 31.3703 26.9416 30.7228 26.671 29.8868C26.671 29.8503 26.6437 29.8138 26.6315 29.7743C26.595 29.6618 26.5525 29.5463 26.5099 29.4277C26.4886 29.37 26.4704 29.3092 26.4491 29.2514C26.1131 28.2773 25.5906 27.378 24.9109 26.6036C24.6755 26.3455 24.4054 26.1214 24.1083 25.9378C23.704 25.6642 22.719 25.1717 22.5093 25.0258C20.0773 23.293 13.9091 27.6858 9.5528 29.6375C6.84416 30.8535 4.49728 32.3735 2.89824 35.4135C2.02211 37.1645 1.43296 39.0449 1.15328 40.9827C0.438875 45.3026 0.581755 59.8034 0.961755 66.1722C1.40256 76.797 2.96816 76.9399 5.11136 78.8855C8.78976 82.2295 19.597 89.0695 23.2054 90.8327C29.7475 94.0277 35.5934 90.3706 39.8707 88.6651C44.148 86.9597 52.2496 82.9925 54.0827 81.8738C55.168 81.205 55.7638 80.4906 55.8155 79.6941C55.8307 79.3688 55.928 78.0768 55.9675 77.7424Z" fill="#263238"/>
<path d="M40.0197 86.7015C44.297 84.9961 52.3986 81.0258 54.2317 79.9041C56.7062 78.3841 56.6302 76.6361 53.4504 74.1919C49.0303 70.7962 30.8936 58.5024 30.8936 58.5024C30.8936 58.5024 9.80817 68.6621 4.81041 73.0945C4.05345 73.7663 4.02305 75.186 4.28753 75.5265C7.02353 78.9495 19.217 86.8505 23.3544 88.8721C29.8965 92.061 35.7454 88.4039 40.0197 86.7015Z" fill="#455A64"/>
<path d="M24.1053 25.944C24.0841 25.9281 24.0618 25.9138 24.0384 25.9014C23.4938 25.5611 22.871 25.3664 22.2296 25.336C20.0195 25.1597 16.5296 26.704 11.3069 30.0814C9.70409 31.0709 8.20312 32.2164 6.82591 33.5014L6.74687 33.5805C6.32998 33.9756 5.94664 34.4047 5.60079 34.8633C5.53999 34.9363 5.48527 35.0123 5.43055 35.0913C5.37583 35.1704 5.36367 35.1795 5.33631 35.2221C5.26335 35.3254 5.19039 35.4288 5.12351 35.5261C4.98671 35.7358 4.85295 35.9577 4.71919 36.1857C4.71919 36.2101 4.69183 36.2344 4.67967 36.2587L4.53071 36.5384L2.90735 35.4166C4.50639 32.3766 6.96271 30.8049 9.48895 29.2545C13.8453 26.5824 18.7002 23.1107 21.7888 24.6094C22.0107 24.728 23.704 25.6582 24.1053 25.944Z" fill="#455A64"/>
<path d="M27.0936 31.4403C26.8139 30.3246 25.835 25.5153 22.2296 25.3238C20.0225 25.1475 16.5296 26.6949 11.3069 30.0693C8.87486 31.6379 6.06894 33.6534 4.67966 36.2557C2.6307 39.4902 2.3115 48.4613 2.4331 57.0888C2.5547 65.7163 3.11102 74.0033 4.27838 75.5294C6.33038 69.7747 30.5774 58.4446 33.4168 60.1561C29.8417 57.5752 29.0392 39.8976 27.0936 31.4403Z" fill="#37474F"/>
<path d="M11.623 58.3352C11.2947 63.2174 11.2096 69.5528 11.7841 71.9118C12.4894 74.7998 14.2435 78.3354 19.752 81.576C27.583 86.1846 33.0307 89.2429 33.0307 89.2429L60.6947 71.2187L41.8467 60.2413L11.623 58.3352Z" fill="#0092AC"/>
<g opacity="0.3">
<path opacity="0.3" d="M11.623 58.3352C11.2947 63.2174 11.2096 69.5528 11.7841 71.9118C12.4894 74.7998 14.2435 78.3354 19.752 81.576C27.583 86.1846 33.0307 89.2429 33.0307 89.2429L60.6947 71.2187L41.8467 60.2413L11.623 58.3352Z" fill="black"/>
</g>
<path opacity="0.35" d="M20.4208 76.332C20.211 76.1009 20.0074 75.8729 19.8128 75.6449C21.7645 75.1251 22.9166 72.6992 22.6734 69.9571C22.5336 68.3854 22.3694 66.6131 22.5883 64.9168L22.2448 64.8742C22.029 66.5979 22.187 68.4006 22.3299 69.9875C22.5731 72.7539 21.4179 74.9883 19.5605 75.35C15.8152 70.866 16.408 66.5128 18.232 60.7337L17.9037 60.6304C15.9064 66.9657 15.6024 71.6139 20.1806 76.566C23.1902 79.8188 31.3982 84.2603 36.1984 87.2213L36.5206 87.0145C31.7174 84.0688 23.4365 79.5909 20.4208 76.332Z" fill="black"/>
<path opacity="0.35" d="M41.3633 67.0449C40.3176 70.4072 38.144 72.0092 38.144 72.0092C42.2115 74.9702 45.5433 77.7184 47.872 79.7369L50.7144 77.9129L40.728 71.2249C41.8923 68.8294 41.3633 67.0449 41.3633 67.0449Z" fill="black"/>
<path d="M61.2662 122.449L9.64093 92.6445L88.9728 46.8743L140.595 76.6784L61.2662 122.449Z" fill="#0092AC"/>
<path opacity="0.8" d="M61.2662 122.449L9.64093 92.6445L88.9728 46.8743L140.595 76.6784L61.2662 122.449Z" fill="white"/>
<path d="M9.64093 92.6445V96.3716L61.2662 126.176V122.449L9.64093 92.6445Z" fill="#0092AC"/>
<path opacity="0.5" d="M9.64093 92.6445V96.3716L61.2662 126.176V122.449L9.64093 92.6445Z" fill="white"/>
<path d="M61.2662 126.176L140.595 80.4055V76.6785L61.2662 122.449V126.176Z" fill="#0092AC"/>
<path opacity="0.65" d="M61.2662 122.449L140.595 76.6785V80.4055L61.2662 126.176V122.449Z" fill="white"/>
<path opacity="0.2" d="M50.0791 77.4324L62.312 84.5278C62.5188 84.6327 62.7474 84.6874 62.9793 84.6874C63.2112 84.6874 63.4398 84.6327 63.6466 84.5278L98.792 64.2722C98.8718 64.2444 98.9409 64.1924 98.9898 64.1235C99.0387 64.0546 99.065 63.9722 99.065 63.8877C99.065 63.8032 99.0387 63.7208 98.9898 63.6519C98.9409 63.583 98.8718 63.531 98.792 63.5031L86.5438 56.4047C86.3376 56.2998 86.1095 56.2451 85.8781 56.2451C85.6467 56.2451 85.4186 56.2998 85.2123 56.4047L50.0791 76.6602C49.9982 76.6874 49.928 76.7393 49.8782 76.8086C49.8284 76.8779 49.8016 76.961 49.8016 77.0463C49.8016 77.1316 49.8284 77.2148 49.8782 77.284C49.928 77.3533 49.9982 77.4052 50.0791 77.4324Z" fill="#0092AC"/>
<path d="M97.3541 62.4573C97.3465 62.3761 97.3175 62.2984 97.27 62.2322C97.2224 62.1659 97.1581 62.1135 97.0835 62.0804L86.1395 55.7572C85.9375 55.6544 85.7141 55.6008 85.4875 55.6008C85.2608 55.6008 85.0374 55.6544 84.8354 55.7572L51.4106 75.0825C51.3361 75.1156 51.2717 75.168 51.2242 75.2342C51.1766 75.3005 51.1476 75.3782 51.14 75.4594V76.6085C51.1478 76.6901 51.1773 76.768 51.2254 76.8343C51.2736 76.9006 51.3385 76.9528 51.4136 76.9855L62.3576 83.3057C62.5604 83.4075 62.7843 83.4606 63.0112 83.4606C63.2382 83.4606 63.462 83.4075 63.6648 83.3057L97.0835 64.0108C97.1573 63.9774 97.221 63.9253 97.2685 63.8598C97.3159 63.7942 97.3454 63.7173 97.3541 63.6369V62.4573Z" fill="#263238"/>
<path d="M62.3575 82.1291L51.4135 75.8363C51.3348 75.8095 51.2665 75.7587 51.2181 75.6911C51.1697 75.6235 51.1437 75.5425 51.1437 75.4593C51.1437 75.3762 51.1697 75.2951 51.2181 75.2275C51.2665 75.1599 51.3348 75.1092 51.4135 75.0824L84.8292 55.7601C85.0312 55.6573 85.2546 55.6038 85.4812 55.6038C85.7079 55.6038 85.9313 55.6573 86.1333 55.7601L97.0773 62.0833C97.156 62.1101 97.2243 62.1609 97.2727 62.2285C97.3211 62.2961 97.3471 62.3771 97.3471 62.4603C97.3471 62.5434 97.3211 62.6245 97.2727 62.6921C97.2243 62.7597 97.156 62.8104 97.0773 62.8372L63.6647 82.1261C63.4623 82.2291 63.2385 82.2831 63.0114 82.2836C62.7843 82.2841 62.5603 82.2312 62.3575 82.1291Z" fill="#37474F"/>
<path d="M62.9687 82.2841V83.4576C62.7568 83.4558 62.5484 83.4037 62.3607 83.3056L51.4167 76.9854C51.3423 76.952 51.2782 76.8996 51.2306 76.8334C51.1831 76.7672 51.154 76.6896 51.1461 76.6085V75.4563C51.1537 75.5375 51.1827 75.6152 51.2303 75.6815C51.2778 75.7477 51.3422 75.8001 51.4167 75.8333L62.3607 82.1291C62.5482 82.2281 62.7566 82.2813 62.9687 82.2841Z" fill="#263238"/>
<path d="M85.3978 56.7543H85.4221L86.5074 57.3805L85.036 58.2287L83.9173 57.5994L85.3856 56.7512L85.3978 56.7543ZM87.0941 57.7362H87.1184L88.2037 58.3624L87.0485 59.0282L85.9267 58.3989L87.082 57.7331L87.0941 57.7362ZM83.3458 57.9429H83.3671L84.4523 58.5691L83.2971 59.2349L82.1784 58.6056L83.3306 57.9399L83.3458 57.9429ZM88.7904 58.7151H88.8178L89.9 59.3413L88.0335 60.4175L86.9147 59.7882L88.7783 58.712L88.7904 58.7151ZM85.3583 58.7394H85.3796L86.4648 59.3656L85.5528 59.8946L84.4341 59.2653L85.3461 58.7363L85.3583 58.7394ZM81.6069 58.9461H81.6312L82.7135 59.5723L81.5583 60.2381L80.4395 59.6088L81.5917 58.9431L81.6069 58.9461ZM83.8565 59.6058H83.896L84.9783 60.232L84.0663 60.761L82.9475 60.1317L83.8596 59.6027L83.8565 59.6058ZM90.4898 59.6939C90.4977 59.6914 90.5062 59.6914 90.5141 59.6939L91.5964 60.3019L90.125 61.1531L89.0063 60.5208L90.4746 59.6727L90.4898 59.6939ZM79.868 59.9493H79.8923L80.9746 60.5755L72.648 65.397L71.5263 64.7647L79.868 59.9493ZM86.3432 60.1287H86.3676L87.4498 60.7367L86.5378 61.2656L85.416 60.6576L86.328 60.1287H86.3432ZM82.3547 60.4722H82.376L83.4613 61.0984L82.5493 61.6274L81.4275 60.9981L82.3396 60.4691L82.3547 60.4722ZM92.1861 60.6728H92.2104L93.2927 61.2991L92.3807 61.828L91.2559 61.2079L92.1679 60.6789L92.1861 60.6728ZM88.4347 60.8795H88.4591L89.5413 61.5027L88.6293 62.0347L87.5076 61.4055L88.4196 60.8765L88.4347 60.8795ZM84.8415 60.9951H84.8658L85.9511 61.6183L85.0391 62.1503L83.9112 61.5119L84.8232 60.9859L84.8415 60.9951ZM80.856 61.3386H80.8803L81.9656 61.9618L81.0536 62.4907L79.9319 61.8615L80.8439 61.3325L80.856 61.3386ZM90.6874 61.5423H90.7117L91.794 62.1685L90.882 62.6975L89.7602 62.0682L90.6722 61.5392L90.6874 61.5423ZM86.936 61.7459H86.9603L88.0426 62.3722L87.1306 62.9011L86.0088 62.2719L86.9208 61.7429L86.936 61.7459ZM83.3427 61.8615H83.3671L84.4523 62.4877L83.5403 63.0167L82.4186 62.3843L83.3306 61.8584L83.3427 61.8615ZM94.2472 61.8615H94.2716L95.3568 62.4877L94.2016 63.1535L93.0799 62.5242L94.2351 61.8584L94.2472 61.8615ZM79.3512 62.205C79.3601 62.202 79.3697 62.202 79.3786 62.205L80.4608 62.8282L79.5488 63.3602L78.424 62.7279L79.336 62.2019L79.3512 62.205ZM89.1826 62.4087H89.2069L90.28 63.0319L89.368 63.5608L88.2463 62.9315L89.1583 62.4026L89.1826 62.4087ZM85.4312 62.6123H85.4556L86.5408 63.2386L85.6288 63.7675L84.504 63.1443L85.416 62.6154L85.4312 62.6123ZM81.8379 62.7279H81.8623L82.9475 63.3541L82.0355 63.8831L80.9138 63.2507L81.8258 62.7248L81.8379 62.7279ZM77.8525 63.0714H77.8768L78.9591 63.6976L78.0471 64.2266L76.9283 63.5973L77.8403 63.0683L77.8525 63.0714ZM91.8517 63.2447H91.876L92.9613 63.8709L92.0493 64.3999L90.9276 63.7706L91.8396 63.2416L91.8517 63.2447ZM87.6808 63.2751H87.7052L88.7904 63.9013L87.8784 64.4303L86.7567 63.801L87.6687 63.272L87.6808 63.2751ZM83.9295 63.4818H83.9538L85.0391 64.108L84.1271 64.637L83.0083 64.0077L83.9203 63.4787L83.9295 63.4818ZM80.3362 63.5943C80.3451 63.5912 80.3547 63.5912 80.3635 63.5943L81.4458 64.2205L80.5338 64.7495L79.4151 64.1202L80.3271 63.5912L80.3362 63.5943ZM76.3507 63.9439H76.3751L77.4573 64.5701L76.5453 65.0991L75.4266 64.4698L76.3386 63.9408L76.3507 63.9439ZM90.35 64.1171H90.3773L91.4596 64.7434L90.5476 65.2723L89.4288 64.6431L90.3408 64.1141L90.35 64.1171ZM86.1821 64.1475H86.2034L87.2887 64.7738L86.3767 65.3027L85.258 64.6735L86.17 64.1445L86.1821 64.1475ZM82.4307 64.3543H82.4551L83.5373 64.9805L82.6253 65.5095L81.5066 64.8802L82.4186 64.3512L82.4307 64.3543ZM78.8375 64.4667H78.8618L79.944 65.093L79.032 65.6219L77.9133 64.9927L78.8253 64.4637L78.8375 64.4667ZM74.849 64.8133H74.8733L75.9586 65.4395L75.0466 65.9685L73.9248 65.3392L74.8368 64.8103L74.849 64.8133ZM88.8512 64.9835H88.8756L89.9578 65.6098L89.0458 66.1387L87.9271 65.5095L88.8391 64.9805L88.8512 64.9835ZM84.6803 65.0139H84.7047L85.7869 65.6402L84.8749 66.1691L83.7562 65.5399L84.6682 65.0109L84.6803 65.0139ZM70.9395 65.1082H70.9639L72.0491 65.7344L70.8939 66.4002L69.7722 65.7679L70.9274 65.1021L70.9395 65.1082ZM80.929 65.2207H80.9533L82.0355 65.8469L81.1235 66.3759L80.0018 65.7466L80.9138 65.2176L80.929 65.2207ZM77.3357 65.3362H77.36L78.4453 65.9624L77.5333 66.4914L76.4115 65.8621L77.3235 65.3331L77.3357 65.3362ZM73.3472 65.6797H73.3715L74.4568 66.3059L73.5448 66.8349L72.4231 66.2056L73.3351 65.6767L73.3472 65.6797ZM87.3495 65.8499H87.3738L88.456 66.4762L87.544 67.0051L86.4192 66.3759L87.3312 65.8469L87.3495 65.8499ZM83.1786 65.8803H83.2029L84.2851 66.5066L83.3731 67.0355L82.2514 66.4063L83.1634 65.8773L83.1786 65.8803ZM79.4272 66.0719H79.4515L80.552 66.7103L79.64 67.2392L78.5183 66.6099L79.4303 66.081L79.4272 66.0719ZM69.2007 66.0962C69.2095 66.0932 69.2191 66.0932 69.228 66.0962L70.3103 66.7224L69.1551 67.3882L68.0363 66.7589L69.1885 66.0931L69.2007 66.0962ZM75.8339 66.1874H75.8583L76.9435 66.8136L76.0315 67.3426L74.9098 66.7133L75.8218 66.1843L75.8339 66.1874ZM71.8455 66.5309H71.8728L72.9551 67.1571L72.0431 67.6861L70.9243 67.0568L71.8363 66.5279L71.8455 66.5309ZM81.6768 66.7315H81.7011L82.7864 67.3578L81.8744 67.8867L80.7527 67.2575L81.6647 66.7285L81.6768 66.7315ZM77.9255 66.9383H77.9498L79.032 67.5919L78.12 68.1208L77.0013 67.4915L77.9133 66.9626L77.9255 66.9383ZM74.3322 67.0538H74.3565L75.4418 67.68L74.5298 68.209L73.405 67.5919L74.317 67.0629L74.3322 67.0538ZM85.1941 67.0781H85.2184L86.3037 67.7043L85.3917 68.2333L84.27 67.604L85.182 67.0751L85.1941 67.0781ZM67.4648 67.1024H67.48L68.5623 67.7287L67.4071 68.3944L66.2883 67.7651L67.4405 67.0994L67.4648 67.1024ZM70.3467 67.4064H70.3711L71.4533 68.0327L70.5413 68.5616L69.4226 67.9323L70.3346 67.4034L70.3467 67.4064ZM80.1751 67.6071C80.1839 67.604 80.1936 67.604 80.2024 67.6071L81.2847 68.2303L80.3727 68.7623L79.2509 68.1299L80.1629 67.604L80.1751 67.6071ZM76.4267 67.8138H76.448L77.5333 68.44L76.6213 68.972L75.5026 68.3397L76.4146 67.8107L76.4267 67.8138ZM72.8335 67.9293H72.8578L73.94 68.5555L73.028 69.0845L71.9093 68.4552L72.8213 67.9263L72.8335 67.9293ZM83.6954 67.9536H83.7197L84.802 68.5799L83.896 69.1119L82.7773 68.4795L83.6893 67.9506L83.6954 67.9536ZM65.7259 68.1147H65.7503L66.8355 68.741L65.352 69.5922L64.2303 68.9629L65.6986 68.1147H65.7259ZM68.845 68.2728H68.8693L69.9515 68.8991L67.0605 70.568L65.9387 69.9387L68.8298 68.2698L68.845 68.2728ZM78.6763 68.4735H78.7007L79.7829 69.0997L78.8709 69.6287L77.7522 68.9963L78.6642 68.4704L78.6763 68.4735ZM74.925 68.6802H74.9493L76.0315 69.2882L75.1195 69.8202L74.0008 69.1879L74.9128 68.6589L74.925 68.6802ZM71.3317 68.7957H71.356L72.4383 69.4219L71.5263 69.9509L70.4045 69.3216L71.3165 68.7927L71.3317 68.7957ZM82.1936 68.82H82.218L83.3002 69.4432L82.3882 69.9752L81.2664 69.3429L82.1784 68.8139L82.1936 68.82ZM77.1746 69.3399H77.1989L78.2811 69.9661L77.3691 70.4951L76.2504 69.8627L77.1624 69.3368L77.1746 69.3399ZM63.3547 69.4827H63.3791L64.4643 70.109L63.5523 70.6379L62.4245 70.0239L63.3365 69.4949L63.3547 69.4827ZM73.4232 69.5466H73.4475L74.5298 70.1698L73.6178 70.7018L72.496 70.0695L73.408 69.5435L73.4232 69.5466ZM69.8299 69.6621H69.8543L70.9365 70.2883L70.1005 70.7747C70.0727 70.7894 70.0492 70.8112 70.0327 70.8379C70.0161 70.8646 70.007 70.8953 70.0063 70.9267C70.0071 70.9597 70.0169 70.9918 70.0346 71.0196C70.0523 71.0475 70.0771 71.07 70.1066 71.0848L71.5293 71.9087L70.4531 72.5167L67.6351 70.9359L69.8178 69.6743L69.8299 69.6621ZM80.6919 69.6864H80.7162L81.8015 70.2944L80.8895 70.8264L79.7677 70.1971L80.6797 69.6682L80.6919 69.6864ZM75.688 70.2063H75.7123L76.7946 70.8325L75.8826 71.3615L74.7608 70.7322L75.6728 70.2032L75.688 70.2063ZM61.8682 70.3491H61.8925L62.9778 70.9754L62.0658 71.5043L60.947 70.8751L61.8591 70.3461L61.8682 70.3491ZM71.9367 70.413H71.961L73.0463 71.0392L72.1343 71.5682L70.9912 70.9359L71.9032 70.4099L71.9367 70.413ZM78.5517 70.9298H78.576L79.6613 71.556L78.7493 72.085L77.6275 71.4557L78.5395 70.9267L78.5517 70.9298ZM74.1863 71.0727C74.1942 71.0701 74.2027 71.0701 74.2106 71.0727L75.2959 71.6989L74.3839 72.2279L73.256 71.6047L74.168 71.0757L74.1863 71.0727ZM60.3695 71.2155H60.3938L61.4608 71.8479L60.5488 72.3768L59.4301 71.7475L60.3421 71.2186L60.3695 71.2155ZM63.5675 71.328H63.5919L64.6741 71.9543L63.7621 72.4863L62.616 71.8479L63.528 71.3189L63.5675 71.328ZM77.0499 71.7962C77.0588 71.7932 77.0684 71.7932 77.0773 71.7962L78.1595 72.4224L77.2475 72.9514L76.1288 72.3221L77.0408 71.7931L77.0499 71.7962ZM72.6875 71.9391H72.7119L73.7941 72.5653L72.1647 73.5047L71.0459 72.8754L72.6723 71.936L72.6875 71.9391ZM58.5515 72.2643H58.5759L59.6611 72.8875L57.2291 74.2859L56.1043 73.6719L58.5211 72.2765L58.5515 72.2643ZM68.4619 72.4194H68.4863L69.5685 73.0456L68.6565 73.5746L67.5378 72.9453L68.4498 72.4163L68.4619 72.4194ZM75.5512 72.6656H75.5755L76.6578 73.2919L75.7458 73.8208L74.6271 73.1915L75.5391 72.6626L75.5512 72.6656ZM60.2479 73.2432H60.2722L61.3575 73.8695L60.4455 74.3984L59.3237 73.7691L60.2357 73.2402L60.2479 73.2432ZM66.9602 73.2888H66.9845L68.0667 73.9151L67.1547 74.444L66.033 73.8147L66.945 73.2858L66.9602 73.2888ZM70.1583 73.4013H70.1826L71.2648 74.0275L70.3528 74.5565L69.2341 73.9272L70.1461 73.3983L70.1583 73.4013ZM74.0495 73.532H74.0738L75.1591 74.1583L74.2471 74.6872L73.1253 74.0579L74.0373 73.529L74.0495 73.532ZM55.548 73.9971C55.5569 73.9941 55.5665 73.9941 55.5754 73.9971L56.6576 74.6203L55.7456 75.1523L54.6238 74.5231L55.5358 73.9941L55.548 73.9971ZM58.7461 74.1096H58.7704L59.8557 74.7359L58.9437 75.2648L57.8219 74.6355L58.7339 74.1066L58.7461 74.1096ZM65.4584 74.1552H65.4827L66.568 74.7815L65.656 75.3104L64.5343 74.6811L65.4463 74.1522L65.4584 74.1552ZM61.9442 74.2251H61.9685L63.0538 74.8514L62.1418 75.3803L61.02 74.7511L61.932 74.2221L61.9442 74.2251ZM68.6565 74.2677H68.6808L69.7631 74.8939L68.8511 75.4229L67.7293 74.7936L68.6413 74.2647L68.6565 74.2677ZM72.2011 74.5839H72.2255L73.3107 75.2101L72.3987 75.739L71.277 75.1098L72.189 74.5808L72.2011 74.5839ZM54.0341 74.8575H54.0584L56.837 76.4626L55.928 77.0159L53.1099 75.4077L54.0219 74.8787L54.0341 74.8575ZM57.2291 74.9699C57.238 74.9669 57.2476 74.9669 57.2565 74.9699L58.3387 75.5962L57.4267 76.1251L56.3019 75.4959L57.2139 74.9669L57.2291 74.9699ZM60.4272 75.0855H60.4515L61.5368 75.7117L60.6248 76.2407L59.5061 75.6114L60.4181 75.0824L60.4272 75.0855ZM67.1395 75.128H67.176L68.2613 75.7543L67.3493 76.2832L66.2275 75.6539L67.1395 75.125V75.128ZM63.6253 75.1979H63.6496L64.7349 75.8242L63.8229 76.3531L62.7011 75.7239L63.6131 75.1949L63.6253 75.1979ZM70.6994 75.4503H70.7237L71.809 76.0765L70.897 76.6055L69.7752 75.9762L70.6872 75.4472L70.6994 75.4503ZM58.9285 75.9519H58.968L60.0503 76.5781L59.1382 77.107L58.0195 76.4778L58.9315 75.9488L58.9285 75.9519ZM62.1235 76.0643H62.1479L63.224 76.7119L62.312 77.2408L61.1933 76.6115L62.1053 76.0826L62.1235 76.0643ZM65.3216 76.1768H65.352L66.4373 76.803L65.5253 77.332L64.3944 76.7119L65.3064 76.1829L65.3216 76.1768ZM69.1976 76.3167H69.2219L70.3072 76.9429L69.3952 77.4719L68.2765 76.8426L69.1885 76.3136L69.1976 76.3167ZM57.4267 76.8183H57.448L60.2296 78.4234L59.3176 78.9523L56.4995 77.3442L57.4115 76.8152L57.4267 76.8183ZM60.6248 76.9307H60.6461L61.7314 77.557L60.8194 78.0859L59.7007 77.4567L60.6127 76.9277L60.6248 76.9307ZM63.8229 77.0432H63.832L64.9173 77.6695L64.0053 78.1984L62.8866 77.5691L63.7986 77.0402L63.8229 77.0432ZM67.8175 77.6239H67.8418L68.313 77.8914L67.401 78.4203L66.8963 78.1467L67.8083 77.6208L67.8175 77.6239ZM62.312 77.9279H62.3363L63.4186 78.5359L62.5066 79.0679L61.4 78.4447L62.312 77.9187V77.9279ZM66.3066 78.5024H66.3309L66.8021 78.7699L65.8901 79.2989L65.3885 79.0283L66.3005 78.4994L66.3066 78.5024ZM60.8103 78.8064H60.8346L61.9168 79.4296L61.0048 79.9616L59.88 79.311L60.792 78.7851L60.8103 78.8064ZM64.8048 79.381H64.8322L65.3003 79.6485L64.3883 80.1775L63.8837 79.9069L64.7957 79.3779L64.8048 79.381ZM63.3031 80.2474C63.3119 80.2444 63.3215 80.2444 63.3304 80.2474L63.8016 80.5119L62.8896 81.0408L62.385 80.7703L63.297 80.2413L63.3031 80.2474Z" fill="#0092AC"/>
<path d="M70.3559 61.1199C69.4113 59.7749 68.2988 58.5562 67.0453 57.4932C65.5557 56.3137 64.9447 55.955 62.2725 54.7268L58.4147 60.0863L59.6034 60.4238C60.105 60.591 60.3725 60.6366 60.5701 61.0926C60.6852 61.6138 60.7675 62.1418 60.8163 62.6734C60.9249 63.5552 61.1287 64.4226 61.4243 65.2604C61.8591 66.5007 62.1266 66.4126 62.8927 67.3884C63.601 68.3004 63.8928 68.9084 64.2759 68.8506C64.6589 68.7929 65.1331 68.0329 64.9203 67.1878C64.7075 66.3427 63.984 65.1327 63.8776 64.7801C63.7864 64.4761 63.6283 63.9106 64.5464 64.1721C65.4645 64.4335 67.2003 66.5159 68.0424 67.361C68.8845 68.2062 69.4165 69.5103 70.2008 70.0758C70.9851 70.6412 72.1495 70.5926 71.8029 69.3431C71.9184 68.6166 72.344 67.358 72.4352 66.1967C72.5264 65.0354 71.2344 62.3511 70.3559 61.1199Z" fill="#FFA8A7"/>
<path opacity="0.2" d="M126.337 78.84L124.395 77.7577C124.058 77.5746 123.682 77.4764 123.299 77.4716C122.916 77.4668 122.538 77.5557 122.197 77.7304L112.536 83.3088L111.256 82.567C110.952 82.412 110.616 82.3311 110.276 82.3311C109.935 82.3311 109.599 82.412 109.295 82.567L97.576 89.3827C97.0349 89.6867 97.0349 90.2004 97.576 90.5136L98.8133 91.228L84.8505 99.287C84.2425 99.6427 84.2425 100.217 84.8505 100.57L86.7931 101.692C87.1371 101.866 87.5172 101.956 87.9027 101.956C88.2882 101.956 88.6683 101.866 89.0123 101.692L102.972 93.6296C103.276 93.7839 103.612 93.8643 103.952 93.8643C104.293 93.8643 104.629 93.7839 104.933 93.6296L116.619 86.8382C117.144 86.5342 117.157 86.0448 116.661 85.7286L126.316 80.1533C126.93 79.8006 126.939 79.2139 126.337 78.84Z" fill="#0092AC"/>
<path d="M121.866 68.8688L124.328 39.4933C124.35 39.063 124.26 38.6345 124.068 38.249C123.875 37.8635 123.587 37.534 123.231 37.2923C122.836 37.1017 122.403 37.0065 121.965 37.0144C121.527 37.0223 121.097 37.1331 120.71 37.3379L83.8018 58.6544C83.4166 58.905 83.0898 59.2357 82.8438 59.6239C82.5978 60.012 82.4383 60.4486 82.376 60.904L79.9045 90.2795C79.8824 90.7095 79.9715 91.1379 80.1632 91.5234C80.3549 91.909 80.6427 92.2386 80.9989 92.4805C81.3931 92.6713 81.8269 92.7664 82.2648 92.758C82.7027 92.7495 83.1325 92.6378 83.5191 92.4318L120.437 71.1184C120.822 70.8673 121.149 70.5366 121.395 70.1485C121.642 69.7605 121.802 69.3241 121.866 68.8688Z" fill="#263238"/>
<path d="M121.866 68.8688L124.328 39.4933C124.35 39.063 124.26 38.6345 124.068 38.249C123.875 37.8635 123.587 37.534 123.231 37.2923C122.836 37.1017 122.403 37.0065 121.965 37.0144C121.527 37.0223 121.097 37.1331 120.71 37.3379L83.8018 58.6544C83.4175 58.8958 83.094 59.2224 82.8563 59.6089L87.3829 62.2203L87.1032 90.3646L120.44 71.1153C120.824 70.8643 121.15 70.5339 121.396 70.1464C121.642 69.7589 121.802 69.3233 121.866 68.8688Z" fill="#455A64"/>
<path d="M82.3456 91.6839L84.808 62.3084C84.8716 61.8539 85.0317 61.4183 85.2777 61.0308C85.5236 60.6433 85.8496 60.3129 86.2337 60.0618L122.714 38.9886C123.431 38.5751 123.732 38.8882 123.662 39.7151L121.872 68.8687C121.808 69.3232 121.648 69.7589 121.402 70.1464C121.156 70.5338 120.83 70.8642 120.446 71.1153L83.5221 92.4287C82.8046 92.8452 82.2787 92.5199 82.3456 91.6839Z" fill="#37474F"/>
<path d="M102.422 65.8196C102.534 64.4577 103.489 62.8556 104.55 62.2385C105.611 61.6214 106.374 62.2385 106.273 63.5852C106.173 64.9319 105.209 66.5523 104.145 67.1694C103.081 67.7865 102.309 67.1815 102.422 65.8196Z" fill="#0092AC"/>
<path d="M102.172 77.1559L110.061 72.5716L108.718 71.7964L100.832 76.3807L102.172 77.1559Z" fill="#455A64"/>
<path d="M113.721 86.0236L104.115 91.5716C103.929 91.6722 103.719 91.7205 103.507 91.7114C103.325 91.7066 103.146 91.6609 102.984 91.5777L98.7555 89.1457C98.7555 89.1457 98.7555 89.1457 98.7342 89.1305C98.5724 89.0219 98.4384 88.8767 98.3433 88.7066C98.2482 88.5365 98.1947 88.3463 98.187 88.1516V87.9266C98.187 87.5618 98.4363 87.4098 98.7555 87.5953L101.312 89.0636L101.881 89.3949L101.753 88.7474L100.841 76.3959L102.182 77.1742L110.086 72.5898L114.193 85.0538C114.216 85.2437 114.184 85.4363 114.1 85.6084C114.017 85.7805 113.885 85.9247 113.721 86.0236Z" fill="#37474F"/>
<path d="M98.342 87.5343L101.619 85.6404L102.285 90.0514L98.342 87.5343Z" fill="black"/>
<path d="M102.172 77.1589L100.832 76.3806L101.744 88.7321C101.817 89.0878 101.613 89.2337 101.303 89.0361L98.7464 87.5678C98.4272 87.3824 98.1779 87.5344 98.1779 87.8992V88.1241C98.1856 88.3189 98.2392 88.509 98.3342 88.6791C98.4293 88.8492 98.5633 88.9945 98.7251 89.103C98.7251 89.103 98.7403 89.103 98.7464 89.1182L102.975 91.5502C103.137 91.6334 103.316 91.6791 103.498 91.684L102.172 77.1589Z" fill="#263238"/>
<path d="M37.6181 27.0322C42.8317 27.4913 43.6677 29.829 45.063 33.9938C46.732 38.9703 49.5288 48.6892 49.5288 48.6892L62.2725 54.7266L58.4147 60.0861C58.4147 60.0861 49.8814 58.399 45.8869 57.0036C42.7496 55.9031 42.5824 54.8756 39.9953 47.7042C38.1713 42.6548 37.2593 39.4962 37.2593 39.4962C37.688 35.5564 37.6181 27.0322 37.6181 27.0322Z" fill="#FFA8A7"/>
<path d="M37.6181 26.7769C40.3328 27.0322 42.2875 27.166 44.0811 30.6437C45.8747 34.1215 49.772 48.6193 49.772 48.6193L51.4683 49.6103C51.4683 49.6103 49.8115 48.8716 47.6106 50.4189C45.4096 51.9663 44.4064 54.8239 45.1117 56.9093C43.9477 56.4818 42.9343 55.7231 42.1963 54.7266C39.8799 51.3461 37.1104 39.7151 37.1104 39.7151L37.6181 26.7769Z" fill="#EBEBEB"/>
<path d="M49.5926 47.9536C50.2006 47.9354 50.3405 48.4431 50.7144 48.7501C51.0883 49.0571 51.219 48.8474 51.6264 49.1392C52.0337 49.4311 52.2739 49.7016 52.1797 49.9509L51.6659 49.7077C51.6659 49.7077 48.8509 49.1879 47.0542 51.3311C45.2576 53.4743 45.896 57.0037 45.896 57.0037L47.0542 57.3776C46.871 57.5005 46.6628 57.5811 46.4446 57.6137C46.2264 57.6463 46.0038 57.6301 45.7926 57.5661C45.0721 57.3472 45.063 57.2378 44.297 57.104C43.9579 57.0624 43.6367 56.9284 43.3687 56.7166C43.1006 56.5049 42.8959 56.2235 42.777 55.9032C42.4912 55.2344 42.0291 55.2344 41.6978 54.444C41.3664 53.6536 43.92 47.373 49.5926 47.9536Z" fill="#E0E0E0"/>
<path d="M42.4973 39.0159C42.8925 30.7684 40.5942 27.5885 37.6333 26.7769C34.6077 26.144 31.4981 26.0177 28.4312 26.4029C23.8469 27.4639 18.536 29.8047 15.3926 31.1545C15.3926 31.1545 14.6296 32.5468 13.7875 38.3137C13.1795 42.4085 12.4985 47.3212 11.62 55.1005C11.0789 59.8581 8.75021 65.6007 11.3737 66.917C17.9128 70.3492 37.3718 67.6071 41.8376 60.229C42.8347 57.6937 40.7371 56.6661 40.7401 53.237C40.9681 47.2239 42.3696 41.609 42.4973 39.0159Z" fill="#F5F5F5"/>
<path d="M41.491 11.656C41.694 11.4219 41.8704 11.166 42.0169 10.8929C42.2297 10.5038 42.5884 9.62222 42.1963 9.25742C42.8043 8.95342 43.4123 8.40318 43.4336 7.67054C43.4548 6.9379 42.8955 6.9531 42.3422 6.9075C43.6312 6.38462 44.303 5.10782 44.4702 4.68222C44.6374 4.25662 44.6374 3.8523 44.5128 3.7003C44.3334 3.48142 44.1358 3.7307 42.9928 3.78238C41.7511 3.81447 40.5265 3.48722 39.4664 2.83998C38.597 2.29005 37.664 1.84802 36.6878 1.52366C35.7012 1.18081 34.6828 0.937414 33.6478 0.7971C31.459 0.51134 25.3364 1.03726 24.5065 5.15342C21.5486 5.52734 20.9923 10.2606 21.7705 12.2913C23.1841 16.0366 24.5734 18.5294 25.2574 21.2137C25.4124 21.1134 35.484 15.7752 37.8004 14.2582L40.4088 12.5497C40.8092 12.3034 41.1734 12.0026 41.491 11.656Z" fill="#37474F"/>
<path d="M29.6016 10.744C30.9149 10.2211 32.0336 9.07803 32.2464 7.67963L31.4681 6.71899C29.2368 7.80123 25.1297 7.59755 24.1721 7.86811C23.2145 8.13867 26.1998 8.41835 27.9995 8.51867C28.4099 8.57643 28.1515 8.78316 27.5344 8.8926C26.8101 9.01263 26.0766 9.06858 25.3425 9.05979C24.9625 9.05979 24.9595 9.33643 25.4733 9.51275C26.0621 9.67306 26.6688 9.75885 27.279 9.76811C27.1118 10.0721 25.9931 10.2211 25.6557 10.2515C24.999 10.3092 24.3515 10.1299 23.8104 10.3153C23.2693 10.5008 24.8531 10.8868 25.4398 10.9932C26.8169 11.2395 28.2883 11.2608 29.6016 10.744Z" fill="#455A64"/>
<path d="M22.488 18.3955C24.1904 19.7727 25.376 18.5597 25.376 18.5597L24.9808 27.5034C27.13 30.5434 32.45 31.8779 34.1372 33.2794C34.5963 32.3674 35.0948 29.7104 34.1372 27.6128L34.3136 25.4848C35.1065 25.5624 35.9055 25.5552 36.6969 25.4635C37.4242 25.3747 38.129 25.1532 38.7763 24.8099C39.8068 24.2354 40.3723 23.5575 40.9256 22.1925C41.7646 20.1223 41.947 15.465 41.722 13.9298C42.0534 10.9962 41.9409 9.30899 41.1536 7.54579C39.6579 6.11091 35.411 5.83427 31.4742 6.78579C31.3572 7.82792 30.922 8.8087 30.2278 9.59475C29.8143 10.0771 29.2938 10.456 28.7078 10.7013C28.5254 12.5861 28.4281 13.0938 28.0451 13.9115C27.8292 14.3827 27.4158 15.088 26.4673 14.6989C26.0235 14.5165 25.7286 13.4829 25.2878 12.8111C24.6798 11.8991 22.7312 11.3853 21.6915 13.2883C20.6518 15.1914 21.3176 17.4319 22.488 18.3955Z" fill="#FFA8A7"/>
<path d="M34.2923 25.4606C32.3345 25.184 28.8659 24.2963 27.9083 23.053C26.9507 21.8096 26.2728 19.0098 26.2728 19.0098C26.2728 19.0098 26.5342 22.1349 27.2456 23.5211C27.9569 24.9074 29.635 25.5184 30.8571 25.9531C31.9511 26.2759 33.0694 26.5097 34.2011 26.6523L34.2923 25.4606Z" fill="#F28F8F"/>
<path d="M34.119 10.3852L32.1278 10.8746C32.0676 10.6037 32.1148 10.32 32.2593 10.083C32.4039 9.84609 32.6346 9.67437 32.903 9.60393C33.0344 9.57184 33.1709 9.5668 33.3042 9.5891C33.4375 9.61141 33.5649 9.66059 33.6787 9.73367C33.7924 9.80674 33.8901 9.90218 33.9658 10.0142C34.0415 10.1262 34.0936 10.2524 34.119 10.3852Z" fill="#263238"/>
<path d="M39.1381 10.6649L41.1171 11.1969C41.1829 10.9279 41.1421 10.6439 41.0033 10.4042C40.8645 10.1645 40.6384 9.98782 40.3723 9.91101C40.2417 9.87628 40.1053 9.8684 39.9716 9.88783C39.8378 9.90726 39.7093 9.95362 39.594 10.0241C39.4786 10.0945 39.3788 10.1877 39.3004 10.2978C39.222 10.408 39.1668 10.5328 39.1381 10.6649Z" fill="#263238"/>
<path d="M33.3195 19.0522L35.8366 20.1406C35.6811 20.4776 35.4012 20.7415 35.0556 20.8769C34.71 21.0123 34.3253 21.0088 33.9822 20.8671C33.8169 20.7946 33.668 20.6893 33.5445 20.5576C33.421 20.426 33.3254 20.2707 33.2635 20.1012C33.2015 19.9316 33.1746 19.7512 33.1842 19.571C33.1939 19.3907 33.2399 19.2143 33.3195 19.0522Z" fill="#B16668"/>
<path d="M33.3742 19.5904C33.726 19.6054 34.0579 19.7583 34.2979 20.016C34.538 20.2737 34.667 20.6155 34.6571 20.9675C34.4272 20.9916 34.1951 20.9571 33.9822 20.8672C33.7369 20.762 33.5293 20.5847 33.3871 20.3589C33.2448 20.133 33.1746 19.8692 33.1857 19.6025C33.2482 19.5939 33.3112 19.5899 33.3742 19.5904Z" fill="#F28F8F"/>
<path d="M43.695 12.264L43.309 12.2093C42.0595 12.0421 40.421 11.9479 39.4086 12.182C38.141 12.486 37.6758 12.8356 36.9766 12.8143C36.241 12.7839 35.8062 12.3887 34.5051 12.0056C33.4715 11.7016 31.7114 11.6712 30.3586 11.7442C30.2126 11.7442 30.0546 11.7442 29.936 11.7716L25.4277 13.1031C25.5614 13.3676 25.7317 13.7111 25.8259 13.9056L29.629 12.872C29.6867 12.9572 29.7445 13.0332 29.784 13.0879C29.8417 13.1805 29.88 13.284 29.8965 13.3919C30.0029 13.8935 30.0181 14.8511 30.2552 15.3892C30.3673 15.66 30.5292 15.9075 30.7325 16.1188C30.8104 16.1997 30.8959 16.273 30.9878 16.3376C31.0356 16.3738 31.0853 16.4073 31.1368 16.438C31.2792 16.5266 31.4312 16.599 31.5898 16.6538L31.6658 16.6781L31.7874 16.7176L31.915 16.7511C32.0491 16.7835 32.1852 16.8069 32.3224 16.821L32.4987 16.8423H32.7176C34.4261 16.9122 35.1952 16.21 35.6755 15.4743C36.1558 14.7386 36.1285 13.6776 36.9158 13.708H36.9888H37.0587C37.6302 13.8509 37.4874 14.8207 37.7974 15.532C37.9186 15.8202 38.0883 16.0855 38.299 16.3164C38.3383 16.3592 38.3799 16.3997 38.4237 16.438L38.4906 16.4957C38.5125 16.5166 38.5358 16.5359 38.5605 16.5535L38.6243 16.6021L38.6942 16.6477L38.749 16.6842L38.7885 16.7085C38.9963 16.8273 39.2192 16.9173 39.4512 16.976H39.512C39.7835 17.0385 40.0604 17.0741 40.3389 17.0824C41.9379 17.1311 42.552 16.3133 42.853 15.7935C43.1539 15.2736 43.3272 14.3282 43.4944 13.8327C43.5266 13.735 43.5831 13.6472 43.6586 13.5773C43.8683 13.387 44.0138 13.1364 44.075 12.8599C44.0861 12.7326 44.0548 12.6052 43.9861 12.4975C43.9174 12.3898 43.8151 12.3077 43.695 12.264ZM35.2864 14.769C35.1614 15.166 34.9288 15.5206 34.6146 15.7935C34.0711 16.2088 33.3883 16.3983 32.7085 16.3224C31.7813 16.2768 31.2675 15.912 30.9757 15.4956L30.924 15.4196L30.8784 15.3405C30.8634 15.3183 30.8502 15.2949 30.8389 15.2706L30.8085 15.2068C30.7991 15.1901 30.791 15.1729 30.7842 15.1551L30.7629 15.1095C30.7541 15.0836 30.7439 15.0583 30.7325 15.0335C30.7055 14.9607 30.6821 14.8866 30.6626 14.8116C30.6626 14.8116 30.6382 14.7234 30.6291 14.6808C30.62 14.6383 30.5957 14.5288 30.5866 14.465C30.5851 14.4519 30.5851 14.4386 30.5866 14.4255V14.386C30.4954 13.857 30.4194 12.8204 30.7294 12.5984C31.0395 12.3765 31.836 12.1668 33.0976 12.3218L33.2314 12.34C33.434 12.3684 33.6255 12.4049 33.8059 12.4495L34.0278 12.5072C34.2156 12.5585 34.4004 12.6204 34.5811 12.6927L34.7483 12.7626L34.9307 12.8477L34.9672 12.869C34.9901 12.8782 35.0115 12.8904 35.031 12.9055C35.1703 12.9743 35.2936 13.0716 35.3928 13.1912C35.6026 13.5135 35.4749 14.1914 35.2864 14.769ZM42.7192 14.8146C42.5885 15.2189 42.3088 16.0944 41.3907 16.4501C41.0832 16.5618 40.7569 16.6124 40.4301 16.5991C39.4208 16.5808 38.8797 16.1856 38.5878 15.7448L38.5574 15.6932L38.521 15.6384C38.522 15.6283 38.522 15.6181 38.521 15.608C38.5058 15.5807 38.4906 15.5503 38.4784 15.5229C38.4662 15.4956 38.448 15.456 38.4358 15.4226C38.4275 15.408 38.4204 15.3928 38.4146 15.377V15.3496C38.4146 15.3496 38.4146 15.3223 38.3994 15.3101V15.2767C38.3558 15.1483 38.3252 15.0159 38.3082 14.8815C38.22 14.2948 38.2048 13.6138 38.4693 13.3007C38.7338 12.9876 39.6853 12.6684 40.5973 12.6015C40.807 12.6015 41.0046 12.5802 41.184 12.5832H41.3299H41.5306H41.6035H41.6978L41.8558 12.6045C41.9592 12.6228 42.0565 12.641 42.1446 12.6623L42.2146 12.6805H42.2328H42.2784L42.3453 12.7018L42.4304 12.7292L42.5642 12.7839H42.5885C42.699 12.8304 42.8016 12.894 42.8925 12.9724C43.1144 13.2703 42.8834 14.2948 42.7192 14.8146Z" fill="#263238"/>
<path d="M32.5686 13.9085C32.5593 14.0741 32.5992 14.2387 32.6834 14.3816C32.7676 14.5244 32.8922 14.6392 33.0415 14.7113C33.1909 14.7833 33.3582 14.8096 33.5224 14.7866C33.6867 14.7637 33.8404 14.6926 33.9643 14.5823C34.0881 14.472 34.1765 14.3275 34.2183 14.167C34.26 14.0066 34.2533 13.8373 34.199 13.6806C34.1446 13.524 34.0451 13.3869 33.9129 13.2868C33.7807 13.1867 33.6218 13.128 33.4563 13.1181C33.234 13.1065 33.0162 13.1829 32.85 13.3309C32.6838 13.4789 32.5827 13.6864 32.5686 13.9085Z" fill="#263238"/>
<path d="M38.904 14.1579C38.8946 14.3236 38.9346 14.4883 39.0189 14.6313C39.1032 14.7742 39.228 14.889 39.3775 14.9611C39.527 15.0331 39.6945 15.0592 39.8588 15.036C40.0232 15.0128 40.177 14.9414 40.3007 14.8309C40.4245 14.7203 40.5127 14.5755 40.5541 14.4148C40.5956 14.2541 40.5885 14.0847 40.5336 13.928C40.4788 13.7714 40.3788 13.6345 40.2462 13.5347C40.1136 13.435 39.9543 13.3767 39.7886 13.3675C39.6786 13.3609 39.5683 13.3762 39.4641 13.4124C39.36 13.4486 39.264 13.5051 39.1818 13.5786C39.0996 13.652 39.0327 13.741 38.985 13.8404C38.9373 13.9399 38.9098 14.0477 38.904 14.1579Z" fill="#263238"/>
<path d="M39.3995 16.9638H39.3478L36.1679 18.1707L35.9734 14.8662C36.2014 14.2582 36.3382 13.6988 36.9158 13.7231C36.94 13.7199 36.9645 13.7199 36.9887 13.7231H37.0617L37.4964 14.3311L39.3995 16.9638Z" fill="#F28F8F"/>
<path d="M35.7606 35.064C36.1406 34.4847 36.3512 33.8109 36.3686 33.1184L35.1222 31.9419L34.8729 33.6717L35.7606 35.064Z" fill="#37474F"/>
<path d="M33.2252 33.6473L29.9238 31.1545L26.9811 32.9269L32.0913 35.8696L33.2252 33.6473Z" fill="#37474F"/>
<path d="M25.1115 24.2385L25.0598 25.4545C25.0598 26.1568 25.7134 27.546 28.7504 29.7379C30.1396 30.7411 31.8238 31.194 32.6841 31.7838C33.2693 32.1606 33.7618 32.6646 34.1251 33.2582C34.1251 33.2582 33.1584 32.5316 31.3708 33.4984C29.9147 34.2857 28.0998 35.5139 27.3824 35.3467C26.6649 35.1795 25.1176 34.0395 23.631 31.6592C22.9699 30.6419 22.4012 29.5676 21.9316 28.4489C21.9316 28.4489 22.7008 27.464 23.4 26.4699C24.2694 25.2113 24.4153 24.2385 25.1115 24.2385Z" fill="#EBEBEB"/>
<path d="M34.1251 33.2673C35.8427 31.5406 36.6514 34.0669 37.0405 33.6838C37.3445 33.3981 36.7365 27.9078 34.3045 25.4758L34.1282 27.6038L34.1251 33.2673Z" fill="#EBEBEB"/>
<path d="M33.2617 37.6084C33.3256 40.1104 33.1006 46.0171 32.0457 54.2525C31.7843 56.271 34.2011 60.752 34.9033 60.755C35.6056 60.7581 37.3779 57.0675 37.8491 54.8544C38.2686 49.4037 36.0859 40.5664 35.0249 37.5264L33.2617 37.6084Z" fill="#455A64"/>
<path d="M35.0918 37.7726C35.0675 37.6875 35.0401 37.6024 35.0128 37.5264L33.2617 37.6084V38.3411C33.9176 38.3574 34.5606 38.1577 35.0918 37.7726Z" fill="#37474F"/>
<path d="M33.2252 33.6472C33.7727 33.5854 34.3254 33.5854 34.8729 33.6472C35.2636 34.0436 35.566 34.5181 35.7606 35.0395C35.7606 35.0395 35.6542 36.5595 35.0128 37.5141C34.7442 37.6536 34.4486 37.7333 34.1463 37.7474C33.8439 37.7616 33.5421 37.71 33.2617 37.5962C33.2617 37.5962 32.3193 36.8453 32.0913 35.8573C32.0883 35.0304 32.824 33.8661 33.2252 33.6472Z" fill="#455A64"/>
<path d="M6.19053 55.4594C7.14509 48.5039 7.81997 46.1965 8.90221 41.3416C10.4587 34.3709 11.1457 33.5197 15.4747 31.3613C18.4782 33.1245 20.1897 38.633 18.1651 46.2908L15.6844 57.104C15.6844 57.104 18.1712 60.5332 20.8737 63.5154C23.1537 66.0356 24.0445 67.7896 27.1392 68.8141C30.2339 69.8386 31.532 70.3341 33.0398 71.3769C33.8393 71.9392 35.6664 73.2404 36.2804 73.7268C36.8945 74.2132 37.8673 75.7028 38.831 76.7668C39.743 77.8368 38.296 78.0375 37.5147 77.624C36.4993 77.086 35.9278 76.4749 35.2712 75.9064C34.6145 75.338 33.9761 75.0765 33.2982 74.6509C33.3667 75.5129 33.3484 76.3796 33.2435 77.238C33.1523 77.694 33.1401 78.2685 32.675 78.5208C32.3413 78.6382 31.9918 78.7048 31.6384 78.7184C31.5965 78.8815 31.4972 79.024 31.3587 79.1197C31.09 79.2425 30.7847 79.2588 30.5044 79.1653C30.3521 79.1203 30.2028 79.0655 30.0576 79.0012C30.007 79.1414 29.9207 79.266 29.8071 79.3625C29.6935 79.459 29.5566 79.5242 29.41 79.5514C28.7395 79.6211 28.0626 79.5065 27.4523 79.22C27.3641 79.1623 26.7197 78.6272 26.5403 78.4722C26.2667 78.2472 26.0083 78.1013 25.9323 77.8642C25.8563 77.6271 26.3792 77.1376 26.7622 77.1559C27.183 77.2005 27.5938 77.3134 27.9782 77.4903C27.8795 77.1184 27.8315 76.735 27.8353 76.3503C27.6073 75.7423 24.7953 76.028 22.7099 75.2133C21.1352 74.6053 20.2292 72.8604 19.6091 72.3223C15.7726 68.9783 12.456 66.9476 8.18781 63.2357C4.67357 60.2079 5.72541 58.8612 6.19053 55.4594Z" fill="#FFA8A7"/>
<path d="M33.6903 74.8881C33.5657 74.2224 33.3316 73.4077 32.8969 73.1401C33.1006 73.6257 33.2356 74.1373 33.2982 74.6601C33.4319 74.7361 33.5596 74.8091 33.6903 74.8881Z" fill="#F28F8F"/>
<path d="M31.6384 78.7215C31.7987 78.2921 31.9009 77.8433 31.9424 77.3869C32.0016 76.9332 32.0351 76.4764 32.0427 76.0189C32.0646 75.5566 32.032 75.0934 31.9454 74.6388C31.8704 74.1784 31.667 73.7485 31.3587 73.3984C31.4793 73.5846 31.5668 73.7904 31.6171 74.0064C31.6777 74.2204 31.7204 74.439 31.7448 74.66C31.789 75.1055 31.8012 75.5535 31.7813 76.0007C31.7813 76.4536 31.7569 76.9127 31.7417 77.3565C31.7351 77.8132 31.7006 78.269 31.6384 78.7215Z" fill="#F28F8F"/>
<path d="M30.0576 79.0041C30.1931 78.5738 30.2837 78.1306 30.3281 77.6817C30.3788 77.2346 30.4021 76.7849 30.398 76.335C30.398 75.8842 30.3645 75.434 30.2977 74.9882C30.2641 74.533 30.111 74.0947 29.8539 73.7175C29.9535 73.9149 30.0144 74.1296 30.0332 74.3499C30.0667 74.5687 30.0849 74.7876 30.0971 75.0095C30.1214 75.4503 30.1336 75.8942 30.1336 76.338C30.1396 77.2257 30.1336 78.1103 30.0576 79.0041Z" fill="#F28F8F"/>
<path d="M26.744 77.168C26.9283 77.209 27.1069 77.2723 27.276 77.3565C27.4432 77.4355 27.5496 77.548 27.7563 77.6605L27.6955 77.4994C27.6673 77.5867 27.661 77.6796 27.6772 77.77C27.6917 77.85 27.7194 77.9271 27.7593 77.998C27.8334 78.1334 27.9454 78.2444 28.0816 78.3171C28.0172 78.1939 27.9652 78.0646 27.9265 77.9311C27.9161 77.8708 27.91 77.8098 27.9083 77.7487C27.9097 77.6972 27.9179 77.646 27.9326 77.5967L27.966 77.4994L27.8718 77.4356C27.7202 77.3379 27.5539 77.265 27.3793 77.2197C27.1766 77.1431 26.9564 77.1252 26.744 77.168Z" fill="#F28F8F"/>
<path d="M15.3926 31.1545C11.9726 32.48 10.407 33.3737 8.96911 38.7545C7.53119 44.1353 6.73167 49.431 6.02639 53.4894C5.32111 57.5478 4.57327 59.46 6.81983 61.9102C8.33983 57.6785 15.1129 56.7422 16.3077 57.9582L15.9064 56.9246C15.9064 56.9246 18.4934 46.2846 19.0072 43.8101C19.521 41.3355 20.1715 33.1822 15.3926 31.1545Z" fill="#EBEBEB"/>
<path d="M16.3289 55.6933C16.8883 56.1889 16.2894 56.5293 16.5083 56.9641C16.6953 57.2782 16.8983 57.5826 17.1163 57.8761C17.2151 58.0183 17.2571 58.1923 17.234 58.3639C17.2109 58.5354 17.1245 58.6922 16.9917 58.8033L16.6299 58.3533C14.9739 57.8551 13.1946 57.9629 11.6109 58.6573C7.59806 60.5269 7.78958 62.8708 7.78958 62.8708L8.70158 63.6673C8.70158 63.6673 7.78958 63.9713 7.22718 63.4849C6.66478 62.9985 6.92318 62.7614 6.2635 62.3327C5.96927 62.1584 5.7286 61.9065 5.56777 61.6047C5.40694 61.3029 5.33213 60.9626 5.3515 60.6212C5.3515 59.8946 4.98366 59.7092 4.9563 58.8519C4.89854 57.0796 11.7173 52.3007 16.3289 55.6933Z" fill="#E0E0E0"/>
</svg>
