<svg width="152" height="152" viewBox="0 0 152 152" fill="none" xmlns="http://www.w3.org/2000/svg">
<path d="M125.649 75.3342C98.0461 59.3954 53.4371 59.3954 26.0103 75.3342C-1.41663 91.2729 -1.26767 117.113 26.3355 133.049C53.9387 148.984 98.5507 148.987 125.975 133.049C153.398 117.11 153.256 91.2729 125.649 75.3342Z" fill="#F1F1F1"/>
<path d="M135.617 103.36C137.654 102.186 140.944 102.186 142.968 103.36C144.993 104.533 144.981 106.439 142.944 107.616C140.907 108.792 137.618 108.792 135.593 107.616C133.568 106.439 133.581 104.542 135.617 103.36Z" fill="#E0E0E0"/>
<path d="M77.7085 105.078L73.9419 99.9582C73.5619 99.4413 73.0748 99.0124 72.514 98.7008C71.9532 98.3891 71.3318 98.2021 70.6921 98.1524L65.1411 97.7268L56.3251 92.3673L59.6235 90.4612C59.6668 90.4338 59.7025 90.3959 59.7272 90.3509C59.752 90.306 59.7649 90.2556 59.7649 90.2043C59.7649 90.1531 59.752 90.1026 59.7272 90.0577C59.7025 90.0128 59.6668 89.9749 59.6235 89.9474L58.2525 89.1662C57.9822 89.0115 57.6762 88.9302 57.3648 88.9302C57.0534 88.9302 56.7474 89.0115 56.4771 89.1662L24.1467 107.859C24.1034 107.887 24.0677 107.924 24.043 107.969C24.0182 108.014 24.0053 108.065 24.0053 108.116C24.0053 108.167 24.0182 108.218 24.043 108.263C24.0677 108.308 24.1034 108.345 24.1467 108.373L25.4843 109.145C25.7555 109.302 26.0632 109.385 26.3765 109.385C26.6899 109.385 26.9976 109.302 27.2688 109.145L41.3014 101.04L49.9989 106.029L51.1358 109.23C51.4858 110.213 52.1312 111.063 52.9836 111.665C53.8359 112.266 54.8533 112.589 55.8965 112.589H64.0133L69.5218 115.769L82.8309 108.032L77.7085 105.078Z" fill="#E0E0E0"/>
<path d="M127.23 100.353C118.432 95.2765 104.214 95.2765 95.4742 100.353C87.7496 104.84 86.8923 111.79 92.8659 116.854C88.0445 116.55 83.0528 117.462 79.3713 119.612C72.9113 123.366 72.9448 129.452 79.4473 133.207C85.9499 136.961 96.4713 136.958 102.916 133.207C108.054 130.218 109.078 125.755 106.011 122.165C113.416 123.238 121.567 122.098 127.336 118.748C136.076 113.671 136.031 105.436 127.23 100.353Z" fill="#E0E0E0"/>
<path d="M25.1043 114.374C22.7878 113.036 19.0425 113.036 16.7413 114.374C14.44 115.711 14.4521 117.882 16.7686 119.22C19.0851 120.557 22.8304 120.557 25.1317 119.22C27.4329 117.882 27.4238 115.711 25.1043 114.374Z" fill="#E0E0E0"/>
<path d="M47.6581 9.70978L49.2845 8.77954L49.3848 44.3293L49.3818 44.3323L36.2733 51.8168L36.2672 49.9563L36.1699 16.2671L47.6581 9.70978Z" fill="#F0F0F0"/>
<path opacity="0.1" d="M47.7554 43.396L47.6581 9.70978L49.2845 8.77954L49.3848 44.3293L49.3818 44.3323L47.7493 43.3991L47.7554 43.396Z" fill="black"/>
<path opacity="0.2" d="M36.2672 49.9565L47.7493 43.3992L49.3818 44.3325L36.2733 51.8169L36.2672 49.9565Z" fill="black"/>
<path d="M29.7191 19.9515L31.3455 19.0212L31.4458 54.571L31.4427 54.574L18.3343 62.0585L18.3282 60.198L18.2309 26.5088L29.7191 19.9515Z" fill="#F0F0F0"/>
<path opacity="0.1" d="M29.8163 53.6377L29.7191 19.9515L31.3455 19.0212L31.4458 54.571L31.4427 54.574L29.8103 53.6408L29.8163 53.6377Z" fill="black"/>
<path opacity="0.2" d="M18.3282 60.1981L29.8103 53.6409L31.4427 54.5741L18.3343 62.0586L18.3282 60.1981Z" fill="black"/>
<path d="M85.5608 29.6611C85.4605 29.5547 85.3632 29.4453 85.2568 29.3328L85.1929 29.2598C85.0318 29.0744 84.889 28.8859 84.7248 28.6914L84.6762 28.6275C84.5546 28.4725 84.439 28.3235 84.3235 28.1502L84.2718 28.0803C84.1624 27.9222 84.056 27.7763 83.9526 27.6C83.9253 27.5605 83.901 27.521 83.8766 27.4814C83.7915 27.3477 83.7094 27.2139 83.6304 27.0771C83.6114 27.0499 83.5941 27.0214 83.5787 26.992C83.4875 26.837 83.3994 26.688 83.3142 26.5208L83.2534 26.3992C83.1865 26.2746 83.1227 26.1469 83.0589 26.0192L82.9981 25.8915C82.919 25.7304 82.8461 25.5693 82.7731 25.4051L82.7458 25.3352C82.6819 25.1862 82.6211 25.0312 82.5634 24.8914L82.5117 24.7576C82.4448 24.5813 82.3809 24.405 82.3232 24.2286C82.3232 24.2286 82.3232 24.2013 82.308 24.1861C82.2472 24.0037 82.1925 23.8213 82.1408 23.6389L82.1134 23.5355C82.0526 23.3227 82.001 23.1099 81.9554 22.9002C81.9554 22.8515 81.9371 22.8059 81.9249 22.7603L81.8794 22.511C81.8794 22.4594 81.8581 22.4077 81.852 22.353C81.852 22.2678 81.8246 22.1827 81.8125 22.0976C81.8003 22.0125 81.7973 21.9973 81.7912 21.9456C81.7669 21.7632 81.7517 21.5808 81.7365 21.4014C81.7365 21.3619 81.7365 21.3224 81.7365 21.2859C81.7365 21.1005 81.7182 20.915 81.7182 20.7326C81.7182 20.608 81.7182 20.4834 81.7182 20.3648V20.228C81.7182 20.155 81.7182 20.079 81.7365 20.0091C81.7547 19.9392 81.7365 19.9179 81.7517 19.8723C81.7669 19.8267 81.7517 19.7325 81.776 19.6656C81.8003 19.5987 81.7942 19.5714 81.8003 19.5258C81.8064 19.4802 81.8216 19.4011 81.8338 19.3403C81.8459 19.2795 81.855 19.2461 81.8642 19.1974C81.8733 19.1488 81.8915 19.085 81.9037 19.0272C81.9158 18.9694 81.931 18.936 81.9432 18.8904C81.9553 18.8448 81.9736 18.784 81.9918 18.7323L82.0374 18.5986C82.0557 18.5499 82.0709 18.4982 82.0922 18.4496C82.1134 18.401 82.1286 18.3675 82.1438 18.325C82.159 18.2824 82.1834 18.2307 82.2046 18.1851C82.2259 18.1395 82.2441 18.1061 82.2654 18.0666C82.2867 18.027 82.308 17.9784 82.3323 17.9358L82.3992 17.8264L82.4722 17.7018L82.5451 17.5984C82.5725 17.5619 82.5968 17.5224 82.6272 17.4859C82.6576 17.4494 82.6789 17.4221 82.7062 17.3886C82.7336 17.3552 82.761 17.3187 82.7914 17.2853C82.8218 17.2518 82.8491 17.2245 82.8765 17.1941L82.9677 17.0998L83.0589 17.0178L83.1562 16.9326L83.2534 16.8597L83.3568 16.7837L83.4571 16.7168C83.7699 16.5214 84.1146 16.3825 84.4755 16.3064C83.7915 17.0755 83.3902 18.2459 83.3842 19.7538C83.3842 19.9362 83.3842 20.1216 83.4024 20.307C83.4024 20.3466 83.4024 20.383 83.4024 20.4226C83.4024 20.6019 83.4328 20.7843 83.4571 20.9667C83.4571 21.0184 83.4723 21.0701 83.4784 21.1187C83.4845 21.1674 83.5027 21.289 83.5179 21.3741C83.5331 21.4592 83.5361 21.4896 83.5483 21.5474L83.5939 21.7966C83.5939 21.8422 83.6152 21.8878 83.6243 21.9365C83.6699 22.1462 83.7216 22.359 83.7794 22.5718C83.7913 22.6068 83.8014 22.6423 83.8098 22.6782C83.8614 22.8576 83.9161 23.04 83.9769 23.2224C83.9769 23.2224 83.977 23.2528 83.9922 23.265C84.0499 23.4443 84.1138 23.6206 84.1806 23.7939C84.1989 23.8395 84.2141 23.8851 84.2323 23.9277C84.2901 24.0766 84.3509 24.2317 84.4147 24.3715L84.4421 24.4414C84.515 24.6056 84.588 24.7667 84.667 24.9278C84.6853 24.9704 84.7065 25.013 84.7278 25.0555C84.7917 25.1832 84.8555 25.3109 84.9224 25.4386L84.9832 25.5571C85.0683 25.7152 85.1565 25.8611 85.2477 26.0283C85.2629 26.0587 85.2811 26.0861 85.2994 26.1165C85.3784 26.2502 85.4605 26.387 85.5456 26.5208L85.6186 26.6363C85.725 26.7974 85.8314 26.9586 85.9408 27.1166L85.9925 27.1866C86.108 27.3507 86.2235 27.5088 86.3451 27.6669L86.3938 27.7307C86.5458 27.9253 86.6978 28.1138 86.8619 28.2992L86.9227 28.3722L87.2267 28.7035L87.2449 28.7218C87.3513 28.8342 87.4608 28.9467 87.5702 29.0531C87.5915 29.0774 87.6158 29.0987 87.6402 29.123C87.783 29.2598 87.9259 29.3966 88.0749 29.5274L88.1144 29.5638C88.2664 29.6976 88.4184 29.8222 88.5765 29.9469L88.6677 30.0168C88.8197 30.1354 88.9717 30.2478 89.1358 30.3573L89.2179 30.412C89.3851 30.5214 89.5523 30.6278 89.7195 30.716C89.8867 30.8042 89.9901 30.865 90.1238 30.9349L90.2363 30.9896L90.5403 31.1294L90.6467 31.175L90.9264 31.2814L90.9963 31.3058C91.1118 31.3453 91.2274 31.3818 91.3398 31.4122L91.5405 31.4608L91.6317 31.4851C91.729 31.5064 91.8232 31.5216 91.9174 31.5368C92.0583 31.5597 92.2004 31.5739 92.343 31.5794H92.4282C92.5528 31.5794 92.6744 31.5794 92.796 31.5794H92.8568C92.9536 31.5731 93.0499 31.5619 93.1456 31.5459H93.2338L93.325 31.5246C93.0996 31.7812 92.8336 31.9989 92.5376 32.1691L92.5072 32.1843H92.4859C92.4099 32.2269 92.3309 32.2634 92.2518 32.2998L92.1698 32.3333C92.0867 32.3677 92.0015 32.3981 91.9144 32.4245H91.8688C91.7685 32.4518 91.6651 32.4762 91.5648 32.4944H91.4827C91.3885 32.4944 91.2973 32.5187 91.2 32.5278H91.127C91.0085 32.5278 90.8869 32.5278 90.7653 32.5278H90.6862H90.4856L90.2546 32.5005L90.1086 32.4731L89.9688 32.4458L89.8837 32.4245H89.8594L89.68 32.3819C89.5675 32.3485 89.455 32.315 89.3426 32.2755L89.2726 32.2512L88.9899 32.1448L88.8896 32.1022C88.7883 32.0597 88.6869 32.0141 88.5856 31.9654L88.5187 31.932C88.5016 31.9257 88.4853 31.9176 88.4701 31.9077C88.3363 31.8408 88.2026 31.7709 88.0658 31.6918C87.929 31.6128 87.7313 31.4882 87.5672 31.3878H87.5429L87.4821 31.3483C87.324 31.2389 87.1781 31.1264 87.0139 31.0078L86.9562 30.9622L86.9227 30.9379C86.7677 30.8133 86.6187 30.6856 86.4606 30.5549C86.4518 30.5476 86.4436 30.5394 86.4363 30.5306H86.4211C86.2722 30.4029 86.1171 30.2661 85.9864 30.1293L85.9165 30.0594C85.807 29.953 85.6976 29.8405 85.5912 29.728L85.5608 29.6611Z" fill="#EBEBEB"/>
<path d="M93.2368 26.1926V26.5848L94.3403 27.2201V26.828L93.2368 26.1926Z" fill="white"/>
<path d="M84.3144 17.948L84.1442 18.1851L85.0987 19.3738L85.269 19.1336L84.3144 17.948Z" fill="white"/>
<path d="M95.2736 27.5637C95.2736 31.5978 92.4069 33.2242 88.8896 31.2117C85.3723 29.1992 82.5512 24.2592 82.5603 20.2252C82.5694 16.1911 85.427 14.5647 88.9443 16.5772C92.4616 18.5896 95.2858 23.5296 95.2736 27.5637ZM86.032 23.6695C86.0587 23.7548 86.1147 23.828 86.1901 23.8762C86.2103 23.8887 86.2332 23.8961 86.257 23.8975L88.9565 24.1103C88.9752 24.1157 88.9952 24.1148 89.0134 24.1076C89.0315 24.1005 89.0468 24.0875 89.0568 24.0708L90.823 21.0764C90.8392 21.0236 90.8406 20.9674 90.8272 20.9138C90.8138 20.8603 90.7861 20.8114 90.7471 20.7724C90.7254 20.7471 90.6997 20.7255 90.6711 20.7085C90.6102 20.6751 90.5494 20.6781 90.5191 20.7298L88.7832 23.6756L86.1232 23.4658C86.0381 23.4658 85.9955 23.5509 86.032 23.6725V23.6695ZM91.2243 21.0277L91.7776 20.2495L91.4736 19.8847L90.9416 20.672L91.2456 21.0368L91.2243 21.0277ZM91.4736 30.8804L91.7776 30.856L91.2 29.4272L90.896 29.4516L91.4432 30.8682L91.4736 30.8804ZM84.2962 24.5176L85.2538 24.4356L85.0866 23.9978L84.1259 24.0799L84.2962 24.5176ZM93.5195 29.8437L93.6898 29.6036L92.7352 28.4149L92.565 28.6551L93.5195 29.8437ZM84.3144 17.936L84.1442 18.1732L85.0987 19.3618L85.269 19.1216L84.3144 17.936ZM92.7504 23.7911L93.708 23.709L93.5378 23.2743L92.5802 23.3533L92.7504 23.7911ZM86.3664 16.9207L86.0624 16.945L86.6096 18.3616L86.9136 18.3373L86.3634 16.9207H86.3664ZM86.336 27.9072L86.8923 27.126L86.5883 26.7642L86.032 27.5424L86.336 27.9072ZM84.5971 21.584V21.204L83.4936 20.5687V20.9578L84.5971 21.5962V21.584ZM94.3403 26.8311L93.2368 26.1927V26.5848L94.3403 27.2202V26.8311ZM88.7315 30.0292L89.069 30.2237V28.956L88.7315 28.7584V30.0292ZM89.1054 17.7597L88.768 17.5652V18.848L89.1054 19.0456V17.7749" fill="#E0E0E0"/>
<path d="M88.765 17.5649L88.7619 18.8326L89.0994 19.0302L89.1054 17.7595L88.765 17.5649Z" fill="white"/>
<path d="M91.4979 19.8816L90.9416 20.6598L91.2365 21.0246L91.7897 20.2464L91.4979 19.8816Z" fill="white"/>
<path d="M93.5378 23.2742L92.5802 23.3532L92.7504 23.791L93.708 23.7089L93.5378 23.2742Z" fill="white"/>
<path d="M92.7352 28.4148L92.565 28.655L93.5195 29.8436L93.6898 29.6034L92.7352 28.4148Z" fill="white"/>
<path d="M91.2122 29.427L90.9173 29.4513L91.4645 30.868L91.7594 30.8436L91.2122 29.427Z" fill="white"/>
<path d="M88.7346 28.7583L88.7315 30.029L89.069 30.2236L89.072 28.9559L88.7346 28.7583Z" fill="white"/>
<path d="M86.6005 26.7642L86.0442 27.5424L86.336 27.9072L86.8923 27.1259L86.6005 26.7642Z" fill="white"/>
<path d="M85.0835 23.9978L84.1259 24.0799L84.2962 24.5176L85.2538 24.4356L85.0835 23.9978Z" fill="white"/>
<path d="M83.4936 20.5686V20.9577L84.5971 21.5961V21.204L83.4936 20.5686Z" fill="white"/>
<path d="M86.3664 16.9207L86.0746 16.945L86.6218 18.3616L86.9166 18.3373L86.3664 16.9207Z" fill="white"/>
<path d="M88.9169 23.712C88.8967 23.6995 88.8738 23.6921 88.85 23.6907H88.7953L86.1353 23.481C86.0502 23.481 86.0077 23.5661 86.0442 23.6877C86.0709 23.773 86.1268 23.8462 86.2022 23.8944C86.2224 23.9069 86.2454 23.9143 86.2691 23.9157L88.9686 24.1285C89.0537 24.1285 89.0933 24.0464 89.0568 23.9248C89.0372 23.8394 88.9876 23.7638 88.9169 23.712Z" fill="white"/>
<path d="M90.6832 20.7053C90.6224 20.6718 90.5616 20.6749 90.5312 20.7266L88.7953 23.6723H88.8501C88.8738 23.6737 88.8968 23.6811 88.9169 23.6936C88.9921 23.7413 89.0473 23.8148 89.072 23.9003C89.1085 24.0219 89.072 24.1131 88.9838 24.104C89.0026 24.1094 89.0226 24.1085 89.0407 24.1014C89.0589 24.0942 89.0742 24.0812 89.0842 24.0645L90.8504 21.0701C90.8665 21.0173 90.868 20.9611 90.8546 20.9075C90.8412 20.854 90.8135 20.8051 90.7744 20.7661C90.7479 20.7405 90.717 20.7199 90.6832 20.7053Z" fill="#F5F5F5"/>
<path d="M93.2702 32.5279L93.3706 32.4489C93.4082 32.42 93.4437 32.3885 93.477 32.3546C93.5104 32.3273 93.5438 32.2999 93.5742 32.2695L93.6746 32.1662L93.7658 32.0689C93.7995 32.0334 93.831 31.9959 93.86 31.9564C93.8874 31.923 93.9178 31.8895 93.9451 31.853C93.9725 31.8166 94.0029 31.771 94.0302 31.7314C94.0576 31.6919 94.085 31.6585 94.1093 31.619C94.1336 31.5794 94.164 31.5308 94.1883 31.4852C94.2126 31.4396 94.24 31.4062 94.2613 31.3666C94.2826 31.3271 94.3099 31.2724 94.3342 31.2238L94.4011 31.0961L94.465 30.9441C94.4832 30.8985 94.5045 30.8559 94.5227 30.8103C94.541 30.7647 94.5622 30.7009 94.5805 30.6462C94.5987 30.5914 94.617 30.5519 94.6322 30.5063C94.6474 30.4607 94.6656 30.3908 94.6808 30.333C94.696 30.2753 94.7112 30.2358 94.7234 30.1841C94.7355 30.1324 94.7538 30.0655 94.7659 30.0047L94.8024 29.8466C94.8024 29.7828 94.8237 29.7159 94.8358 29.6521L94.8632 29.494L94.8906 29.269L94.9088 29.1262L94.927 28.8678V28.7431C94.927 28.6134 94.927 28.4797 94.927 28.3418C94.927 28.1442 94.927 27.9466 94.9088 27.7338C94.9074 27.7207 94.9074 27.7075 94.9088 27.6943C94.8936 27.4724 94.8754 27.2474 94.845 27.0194V26.9434L94.7902 26.5756C94.7902 26.5148 94.769 26.454 94.7568 26.3902C94.7386 26.302 94.7234 26.2108 94.7051 26.1196V26.077C94.5981 25.5691 94.4621 25.0677 94.2978 24.5753C94.0782 23.9127 93.8141 23.2658 93.5074 22.6388L93.4891 22.5993C93.3128 22.2436 93.1274 21.891 92.9267 21.5474L92.872 21.4532C92.7808 21.2982 92.6866 21.1492 92.5923 20.9972L92.5254 20.8908C92.264 20.4865 91.9904 20.0974 91.6986 19.7234C91.4128 19.3566 91.1088 19.005 90.7866 18.6686C90.668 18.5409 90.5464 18.4193 90.4248 18.2946L90.364 18.2399C90.2059 18.0818 90.0448 17.9359 89.8776 17.7839H89.8594C89.6891 17.6319 89.5128 17.4799 89.3365 17.3462L89.2422 17.2702C89.075 17.1425 88.9078 17.0209 88.7346 16.9054L88.7163 16.8902C88.6069 16.8172 88.4974 16.7442 88.388 16.6774C88.2786 16.6105 88.1995 16.5588 88.1022 16.5041C87.9563 16.419 87.7982 16.343 87.6675 16.27C87.2525 16.0579 86.8177 15.8869 86.3694 15.7593L86.2509 15.7289L86.0624 15.6833L85.9317 15.659L85.7554 15.6286H85.7402H85.6125L85.3875 15.6042H85.3693H85.2994C85.1363 15.5951 84.9729 15.5951 84.8099 15.6042H84.74C84.6366 15.6042 84.5333 15.6225 84.436 15.6377C84.2922 15.6584 84.15 15.6889 84.0104 15.7289H83.9861H83.9587C83.8645 15.7593 83.7733 15.7927 83.6821 15.8292L83.6395 15.8474C83.5149 15.9022 83.3902 15.9599 83.2717 16.0268L84.9558 15.0479L84.9923 15.0266L85.0379 15.0023C85.12 14.9598 85.2051 14.9172 85.2902 14.8807C85.3058 14.8714 85.3221 14.8633 85.3389 14.8564H85.3784C85.4797 14.8159 85.5811 14.7794 85.6824 14.747C85.7954 14.7145 85.9101 14.6881 86.0259 14.6679H86.0654H86.1202C86.2207 14.65 86.3222 14.6378 86.4242 14.6314H86.4758H86.491C86.6237 14.6238 86.7566 14.6238 86.8893 14.6314H86.9288H87.0595H87.1507C87.2419 14.6314 87.3362 14.6497 87.4304 14.6649L87.7344 14.7226L87.8317 14.747L88.0293 14.7956H88.0475C88.1691 14.829 88.2938 14.8655 88.4184 14.9081L88.4944 14.9385C88.5947 14.9719 88.695 15.0114 88.7984 15.054L88.841 15.0692L88.917 15.1026C89.0234 15.1482 89.1328 15.1999 89.2422 15.2516L89.3669 15.3124C89.5098 15.3854 89.6709 15.4614 89.8016 15.5465C89.9323 15.6316 90.1634 15.7654 90.3427 15.887L90.4339 15.9478C90.6042 16.0633 90.7744 16.1849 90.9416 16.3126L91.0358 16.3886C91.2061 16.5223 91.3733 16.6591 91.5374 16.805C91.553 16.8166 91.5673 16.8298 91.58 16.8446C91.7411 16.9844 91.884 17.1303 92.0512 17.2823L92.0968 17.3249L92.1272 17.3553C92.2458 17.4708 92.3613 17.5894 92.4768 17.714L92.495 17.7322C92.6045 17.8508 92.7109 17.9694 92.8173 18.091L92.8477 18.1244L92.8842 18.17C93.0574 18.3706 93.2277 18.5743 93.3918 18.778V18.7962C93.405 18.8117 93.4171 18.828 93.4283 18.8449C93.56 19.0151 93.6877 19.1884 93.8114 19.3647L93.8509 19.4164C93.8571 19.4248 93.8622 19.434 93.8661 19.4438C93.9877 19.611 94.1032 19.7842 94.2157 19.9606C94.2251 19.9779 94.2363 19.9942 94.2491 20.0092L94.2947 20.0882C94.3859 20.2311 94.4741 20.3922 94.5622 20.523L94.6018 20.5898C94.6028 20.5989 94.6028 20.6081 94.6018 20.6172C94.7021 20.7874 94.7963 20.9577 94.8875 21.1279L94.9088 21.1705L94.9544 21.2556L95.1642 21.669C95.1642 21.6964 95.1915 21.7268 95.2067 21.7542C95.2219 21.7815 95.2219 21.7906 95.231 21.8058C95.3131 21.9822 95.3952 22.1585 95.4712 22.3348C95.477 22.3535 95.4841 22.3718 95.4925 22.3895C95.5624 22.5506 95.6262 22.7118 95.6901 22.8729C95.6901 22.9002 95.7114 22.9246 95.7235 22.9519C95.7357 22.9793 95.7387 22.9945 95.7448 23.0188C95.8178 23.2073 95.8877 23.3988 95.9515 23.5903V23.6238C96.0184 23.8264 96.0792 24.0291 96.1339 24.2318L96.1552 24.3078C96.1565 24.3209 96.1565 24.3341 96.1552 24.3473C96.216 24.5783 96.2738 24.8063 96.3224 25.0343C96.3238 25.0546 96.3238 25.0749 96.3224 25.0951L96.3406 25.1863C96.3589 25.2745 96.3741 25.3657 96.3923 25.4538C96.4106 25.542 96.4136 25.5785 96.4258 25.6423C96.4379 25.7062 96.4531 25.8278 96.4653 25.919C96.4653 25.9615 96.4805 26.0041 96.4866 26.0497C96.4852 26.0608 96.4852 26.072 96.4866 26.0831C96.5109 26.2807 96.5291 26.4783 96.5443 26.6729C96.5443 26.7154 96.5443 26.755 96.5443 26.7975C96.5443 26.9982 96.5656 27.1958 96.5656 27.4055C96.5656 29.573 95.7934 31.0961 94.5622 31.8135L92.8781 32.7924L92.9845 32.7225C93.021 32.7012 93.0574 32.6799 93.0909 32.6556L93.2702 32.5279Z" fill="#EBEBEB"/>
<path d="M81.2045 20.4165C81.2045 24.7759 84.2445 30.0867 88.0536 32.2725C90.0174 33.4064 91.7928 33.4885 93.0483 32.6829C93.0848 32.6616 93.1213 32.6403 93.1547 32.616L93.2702 32.5309L93.3706 32.4519C93.4082 32.4229 93.4437 32.3915 93.477 32.3576C93.5104 32.3303 93.5438 32.3029 93.5742 32.2725L93.6746 32.1691L93.7658 32.0719C93.7995 32.0364 93.831 31.9988 93.86 31.9594C93.8874 31.9259 93.9178 31.8925 93.9451 31.856C93.9725 31.8195 94.0029 31.7739 94.0302 31.7344C94.0576 31.6949 94.085 31.6615 94.1093 31.6219C94.1336 31.5824 94.164 31.5338 94.1883 31.4882C94.2126 31.4426 94.24 31.4091 94.2613 31.3696C94.2826 31.3301 94.3099 31.2754 94.3342 31.2267L94.4011 31.0991L94.465 30.9471C94.4832 30.9015 94.5045 30.8589 94.5227 30.8133C94.541 30.7677 94.5622 30.7039 94.5805 30.6491C94.5987 30.5944 94.617 30.5549 94.6322 30.5093C94.6474 30.4637 94.6656 30.3938 94.6808 30.336C94.696 30.2783 94.7112 30.2387 94.7234 30.1871C94.7355 30.1354 94.7538 30.0685 94.7659 30.0077L94.8024 29.8496C94.8024 29.7858 94.8237 29.7189 94.8358 29.6551L94.8632 29.497L94.8906 29.272L94.9088 29.1291L94.927 28.8707V28.7461C94.927 28.6164 94.927 28.4826 94.927 28.3448C94.927 28.1472 94.927 27.9496 94.9088 27.7368V27.6973C94.8936 27.4754 94.8754 27.2504 94.845 27.0224V26.9464L94.7902 26.5786C94.7902 26.5178 94.769 26.457 94.7568 26.3931C94.7446 26.3293 94.7234 26.2138 94.7051 26.1226V26.08C94.5981 25.5721 94.4621 25.0707 94.2978 24.5783C94.0782 23.9157 93.8141 23.2687 93.5074 22.6418L93.4891 22.6023C93.3128 22.2466 93.1274 21.8939 92.9267 21.5504L92.872 21.4562C92.7808 21.3011 92.6866 21.1522 92.5923 21.0002L92.5254 20.8938C92.264 20.4895 91.9904 20.1003 91.6986 19.7264C91.4128 19.3596 91.1088 19.008 90.7866 18.6715C90.668 18.5439 90.5464 18.4223 90.4248 18.2976L90.364 18.2429C90.2059 18.0848 90.0448 17.9389 89.8776 17.7869H89.8594C89.6891 17.6349 89.5128 17.4829 89.3365 17.3491C89.3028 17.3255 89.2703 17.3001 89.2392 17.2731C89.072 17.1455 88.9048 17.0239 88.7315 16.9083L88.7133 16.8931C88.6038 16.8202 88.4944 16.7472 88.385 16.6803C88.2755 16.6135 88.1965 16.5618 88.0992 16.5071C87.9533 16.4219 87.7952 16.3459 87.6645 16.273C87.2494 16.0609 86.8147 15.8898 86.3664 15.7623L86.2418 15.7319L86.0533 15.6863C86.0077 15.6863 85.9621 15.668 85.9165 15.6589L85.7402 15.6285L85.5973 15.6103L85.3723 15.5859H85.2842C85.1211 15.5768 84.9577 15.5768 84.7947 15.5859H84.7157C84.6123 15.5859 84.509 15.6042 84.4117 15.6194C84.2679 15.6401 84.1257 15.6706 83.9861 15.7106H83.9344C83.8402 15.741 83.749 15.7744 83.6578 15.8109L83.6091 15.8291C83.4845 15.8839 83.3598 15.9416 83.2413 16.0085C81.9797 16.7199 81.2106 18.2399 81.2045 20.4165ZM85.579 29.6824L85.5608 29.6611C85.4605 29.5547 85.3632 29.4453 85.2568 29.3328L85.193 29.2599C85.0318 29.0744 84.889 28.8859 84.7248 28.6914L84.6762 28.6275C84.5546 28.4695 84.439 28.3235 84.3235 28.1472L84.2718 28.0773C84.1624 27.9192 84.056 27.7733 83.9526 27.597C83.9253 27.5575 83.901 27.5179 83.8766 27.4784C83.7915 27.3477 83.7094 27.2109 83.6304 27.0741C83.6114 27.0468 83.5941 27.0184 83.5787 26.989C83.4875 26.8339 83.3994 26.685 83.3142 26.5178L83.2534 26.3962C83.1866 26.2715 83.1227 26.1439 83.0589 26.0162L82.9981 25.8885C82.919 25.7274 82.8461 25.5663 82.7731 25.4021L82.7458 25.3322C82.6819 25.1832 82.6211 25.0282 82.5634 24.8883L82.5117 24.7546C82.4448 24.5783 82.381 24.4019 82.3232 24.2256C82.3232 24.2256 82.3232 24.1983 82.308 24.1831C82.2472 24.0007 82.1925 23.8183 82.1408 23.6359L82.1134 23.5325C82.0526 23.3197 82.001 23.1069 81.9554 22.8971C81.9554 22.8485 81.9371 22.8029 81.925 22.7573L81.8794 22.508C81.8794 22.4563 81.8581 22.4047 81.852 22.3499C81.8459 22.2952 81.8216 22.1706 81.8094 22.0794C81.7973 21.9882 81.7942 21.9791 81.7882 21.9274C81.7638 21.745 81.7486 21.5626 81.7334 21.3832C81.7334 21.3437 81.7334 21.3042 81.7334 21.2677C81.7334 21.0823 81.7152 20.8968 81.7152 20.7144C81.7152 20.5898 81.7152 20.4651 81.7152 20.3466V20.2098C81.7152 20.1368 81.7152 20.0608 81.7334 19.9909C81.7517 19.921 81.7334 19.8997 81.7486 19.8541C81.7638 19.8085 81.7486 19.7143 81.773 19.6474C81.7973 19.5805 81.7912 19.5531 81.7973 19.5075C81.8034 19.4619 81.8186 19.3829 81.8307 19.3221C81.8429 19.2613 81.852 19.2279 81.8611 19.1792C81.8702 19.1306 81.8885 19.0667 81.9006 19.009C81.9128 18.9512 81.928 18.9178 81.9402 18.8722C81.9523 18.8266 81.9706 18.7658 81.9888 18.7141L82.0344 18.5803C82.0526 18.5317 82.0678 18.48 82.0891 18.4314C82.1104 18.3827 82.1256 18.3493 82.1408 18.3067C82.156 18.2642 82.1803 18.2125 82.2016 18.1669C82.2229 18.1213 82.2411 18.0879 82.2624 18.0483C82.2837 18.0088 82.305 17.9602 82.3293 17.9176L82.3962 17.8082L82.4691 17.6835L82.5421 17.5802C82.5694 17.5437 82.5938 17.5042 82.6242 17.4677C82.6546 17.4312 82.6758 17.4039 82.7032 17.3704C82.7306 17.337 82.7579 17.3005 82.7883 17.2671C82.8187 17.2336 82.8461 17.2063 82.8734 17.1759L82.9646 17.0816L83.0558 16.9995L83.1531 16.9144L83.2504 16.8415L83.3538 16.7655L83.4541 16.6986C83.7669 16.5032 84.1116 16.3642 84.4725 16.2882C85.497 16.0693 86.7373 16.3095 88.0749 17.0816C91.583 19.1063 94.4224 24.0189 94.4102 28.053C94.4102 29.573 94.0059 30.7282 93.3219 31.4973C93.0966 31.7538 92.8306 31.9715 92.5346 32.1418L92.5042 32.157C92.419 32.2026 92.3309 32.2451 92.2427 32.2847L92.1606 32.3181C92.0775 32.3526 91.9924 32.383 91.9053 32.4093H91.8597C91.7563 32.4367 91.6499 32.461 91.5557 32.4823H91.4736C91.3794 32.4823 91.2882 32.5066 91.1909 32.5157H91.1179C90.9994 32.5157 90.8747 32.5157 90.7501 32.5157H90.671H90.4704L90.2394 32.4883L90.0934 32.461L89.9536 32.4336C89.9171 32.4336 89.8806 32.4154 89.8442 32.4063L89.6648 32.3637C89.4294 32.2968 89.198 32.2166 88.9717 32.1235L88.8714 32.081C88.7467 32.0263 88.6251 31.9715 88.5005 31.9077C88.4834 31.9014 88.4671 31.8933 88.4518 31.8834C88.3181 31.8165 88.1843 31.7466 88.0475 31.6675C87.9107 31.5885 87.7131 31.4639 87.549 31.3635H87.5246C87.327 31.2298 87.1294 31.0869 86.9379 30.9379L86.9045 30.9136C86.7403 30.7829 86.5762 30.6491 86.4181 30.5063H86.4029C86.2539 30.3786 86.0989 30.2418 85.9682 30.105L85.8982 30.0351C85.7949 29.9074 85.6854 29.7919 85.579 29.6824Z" fill="white"/>
<path d="M129.531 43.5752L129.513 50.6767L128.653 51.1783L128.674 43.0828L129.531 43.5752Z" fill="#F0F0F0"/>
<path d="M138.803 56.0424L138.8 57.0364L128.653 51.1784L129.513 50.6768L138.803 56.0424Z" fill="#F5F5F5"/>
<path d="M127.607 51.7711L139.84 58.833L139.87 48.3481L127.64 41.2861L127.607 51.7711ZM128.653 51.1631L128.674 43.0645L129.531 43.5601L138.825 48.9439L138.803 56.0453V57.0394L128.653 51.1631Z" fill="#E0E0E0"/>
<path d="M127.637 41.2862L128.498 40.7876L140.728 47.8495L139.867 48.3481L127.637 41.2862Z" fill="#F5F5F5"/>
<path d="M140.728 47.8496L140.697 58.3315L139.837 58.8331L139.867 48.3482L140.728 47.8496Z" fill="#F0F0F0"/>
<path d="M129.896 29.1869L129.878 36.2884L129.015 36.7869L129.039 28.6914L129.896 29.1869Z" fill="#F0F0F0"/>
<path d="M139.168 41.6509L139.165 42.648L129.015 36.7869L129.878 36.2883L139.168 41.6509Z" fill="#F5F5F5"/>
<path d="M127.984 37.392L140.214 44.4539L140.244 33.969L128.002 26.8979L127.984 37.392ZM129.027 36.784L129.051 28.6885L129.896 29.184L139.189 34.5496L139.168 41.648V42.6451L129.027 36.784Z" fill="#E0E0E0"/>
<path d="M128.002 26.8978L128.863 26.3962L141.092 33.4582L140.232 33.9598L128.002 26.8978Z" fill="#F5F5F5"/>
<path d="M141.092 33.4583L141.062 43.9432L140.202 44.4418L140.232 33.9599L141.092 33.4583Z" fill="#F0F0F0"/>
<path d="M132.486 46.2717L129.951 48.269L129.945 50.2176L138.372 55.0816L138.378 53.133L136.773 49.944L135.332 51.0628L135.839 52.6466L135.101 51.2421L132.486 46.2717Z" fill="#E0E0E0"/>
<path d="M135.253 47.2538C134.857 47.0258 134.532 47.2112 134.532 47.6672C134.545 47.9155 134.617 48.1571 134.742 48.3722C134.867 48.5873 135.041 48.7697 135.25 48.9045C135.645 49.1355 135.967 48.9501 135.97 48.4941C135.957 48.2455 135.885 48.0035 135.76 47.788C135.635 47.5724 135.461 47.3894 135.253 47.2538Z" fill="#E0E0E0"/>
<path d="M132.848 31.8835L130.316 33.8778L130.31 35.8264L138.736 40.6935L138.743 38.7448L137.137 35.5528L135.693 36.6746L136.204 38.2584L135.465 36.8509L132.848 31.8835Z" fill="#E0E0E0"/>
<path d="M135.617 32.8652C135.219 32.6372 134.897 32.8196 134.897 33.2756C134.91 33.5241 134.981 33.7661 135.105 33.9817C135.229 34.1973 135.403 34.3804 135.611 34.516C136.01 34.744 136.332 34.5616 136.332 34.1056C136.319 33.8571 136.248 33.6151 136.124 33.3995C136 33.184 135.826 33.0009 135.617 32.8652Z" fill="#E0E0E0"/>
<path d="M104.12 21.0093L122.32 31.5338C122.628 31.7119 122.884 31.9676 123.062 32.2754C123.24 32.5832 123.335 32.9323 123.336 33.2879V51.5887C123.326 51.9386 123.224 52.2797 123.04 52.5778C122.856 52.8759 122.598 53.1205 122.29 53.2871C121.982 53.4536 121.636 53.5364 121.286 53.5269C120.936 53.5175 120.594 53.4163 120.296 53.2333L112.696 48.722L112.532 48.9865C112.532 48.9865 112.516 49.0017 112.507 49.0108H112.489C112.185 49.2084 111.671 49.4881 111.556 49.5489C111.529 49.5577 111.499 49.5556 111.474 49.5431C111.448 49.5306 111.429 49.5087 111.419 49.482L110.756 47.6033L102.083 42.7332C101.774 42.5564 101.517 42.3011 101.338 41.9931C101.159 41.6851 101.065 41.3353 101.065 40.9791V22.654C101.065 21.1948 103.211 20.4865 104.12 21.0093Z" fill="#0092AC"/>
<path opacity="0.2" d="M112.504 48.9865C112.504 48.9865 112.489 49.0017 112.48 49.0108H112.462C112.158 49.2084 111.644 49.4881 111.528 49.5489C111.542 49.5467 111.555 49.5415 111.567 49.5336C111.579 49.5257 111.588 49.5154 111.595 49.5033L112.237 48.4636L112.109 48.3906L112.675 48.7129L112.504 48.9865Z" fill="white"/>
<path opacity="0.4" d="M121.062 33.4399C120.931 33.1785 120.747 32.9475 120.521 32.762C120.443 32.6997 120.361 32.6438 120.275 32.5948L102.074 22.0673C101.971 22.0087 101.855 21.9781 101.737 21.9786C101.619 21.9791 101.503 22.0106 101.401 22.07C101.298 22.1294 101.214 22.2146 101.155 22.3171C101.096 22.4196 101.065 22.5358 101.065 22.654C101.065 21.1948 103.211 20.4865 104.12 21.0093L122.32 31.5338C122.635 31.7164 122.896 31.9798 123.074 32.2969L121.062 33.4399Z" fill="white"/>
<path opacity="0.2" d="M121.296 52.6497V34.3519C121.296 34.0338 121.218 33.7205 121.068 33.4399L123.08 32.2969C123.251 32.5994 123.341 32.9406 123.342 33.2879V51.5887C123.332 51.9387 123.23 52.2798 123.046 52.5778C122.862 52.8759 122.604 53.1205 122.296 53.2871C121.988 53.4537 121.642 53.5364 121.292 53.5269C120.942 53.5175 120.6 53.4163 120.302 53.2334C120.404 53.2881 120.518 53.3157 120.634 53.3135C120.75 53.3113 120.863 53.2794 120.963 53.2208C121.063 53.1621 121.146 53.0788 121.204 52.9788C121.263 52.8788 121.294 52.7654 121.296 52.6497Z" fill="white"/>
<path d="M105.521 29.5851L116.085 35.6834L115.45 42.9247C115.414 43.3655 115.073 43.5327 114.669 43.2895L106.576 38.6079C106.414 38.509 106.273 38.38 106.16 38.2279L106.175 38.4346C106.224 38.8948 106.374 39.3383 106.616 39.7328C106.858 40.1272 107.185 40.4627 107.573 40.7146L107.929 40.9183C108.063 40.9497 108.191 41.0009 108.309 41.0703C108.448 41.1547 108.576 41.2569 108.689 41.3743L112.48 43.5631C112.614 43.5927 112.742 43.644 112.86 43.7151C112.998 43.7947 113.125 43.8906 113.24 44.0008L114.046 44.4659C114.135 44.526 114.209 44.6062 114.262 44.7002C114.315 44.7942 114.345 44.8993 114.35 45.0071C114.35 45.2047 114.207 45.2837 114.046 45.1864L113.982 45.1499C114.073 45.3899 114.12 45.6442 114.122 45.9008C114.122 46.7034 113.553 47.0287 112.851 46.6243C112.484 46.3847 112.178 46.062 111.959 45.6822C111.74 45.3025 111.613 44.8764 111.589 44.4386C111.583 44.2333 111.633 44.0303 111.735 43.8519L109.419 42.5143C109.508 42.7548 109.555 43.0087 109.559 43.2651C109.559 44.0707 108.987 44.393 108.288 43.9887C107.92 43.7501 107.613 43.4276 107.394 43.0477C107.175 42.6677 107.049 42.2411 107.026 41.8029C107.019 41.5888 107.075 41.3775 107.187 41.1949C106.262 40.4355 105.671 39.3445 105.54 38.1549L104.822 28.4269C104.8 28.2224 104.733 28.0253 104.625 27.8502C104.517 27.675 104.372 27.5262 104.199 27.4146L102.892 26.6576C102.803 26.5979 102.729 26.5181 102.676 26.4247C102.623 26.3312 102.593 26.2267 102.588 26.1195C102.588 25.9189 102.731 25.8398 102.892 25.9402L104.199 26.6941C104.544 26.9185 104.834 27.2169 105.049 27.5677C105.265 27.9184 105.399 28.3127 105.442 28.7218L105.521 29.5851ZM111.051 39.8938L111.066 34.0935C111.058 33.9467 111.016 33.804 110.943 33.6767C110.869 33.5494 110.767 33.4412 110.644 33.3608C110.41 33.2271 110.221 33.3335 110.218 33.604L110.203 39.4043C110.213 39.5494 110.256 39.6903 110.329 39.8158C110.403 39.9414 110.504 40.0482 110.626 40.1279C110.86 40.2616 111.051 40.1522 111.051 39.8847V39.8938ZM112.875 40.9426L112.89 35.1423C112.882 34.9955 112.84 34.8528 112.767 34.7255C112.693 34.5982 112.591 34.49 112.468 34.4096C112.234 34.2759 112.042 34.3823 112.042 34.6528V40.4531C112.05 40.6 112.092 40.7429 112.165 40.8703C112.239 40.9976 112.341 41.1057 112.465 41.1858C112.699 41.3195 112.887 41.2101 112.89 40.9426H112.875ZM114.714 42.0005L114.733 36.2002C114.723 36.0545 114.679 35.9132 114.604 35.7876C114.53 35.662 114.427 35.5555 114.304 35.4767C114.07 35.3429 113.878 35.4493 113.878 35.7199L113.863 41.5202C113.872 41.6692 113.917 41.8138 113.994 41.9418C114.07 42.0699 114.177 42.1776 114.304 42.2559C114.535 42.3896 114.727 42.2802 114.727 42.0127L114.714 42.0005ZM109.23 38.8389L109.245 33.0386C109.239 32.8914 109.198 32.7479 109.124 32.6203C109.051 32.4927 108.947 32.3849 108.823 32.3059C108.589 32.1722 108.4 32.2786 108.397 32.5491V38.3495C108.406 38.4961 108.448 38.6388 108.521 38.766C108.595 38.8933 108.697 39.0015 108.82 39.0821C109.054 39.2159 109.245 39.1064 109.245 38.8389H109.23ZM107.421 37.781L107.44 31.9807C107.431 31.8341 107.389 31.6915 107.315 31.5643C107.242 31.4371 107.14 31.3288 107.017 31.248C106.783 31.1143 106.592 31.2207 106.592 31.4912L106.573 37.2915C106.581 37.4378 106.624 37.5802 106.697 37.707C106.771 37.8337 106.873 37.9414 106.996 38.0211C107.23 38.1579 107.421 38.0485 107.421 37.781ZM108.333 41.9914C108.072 41.8394 107.859 41.961 107.856 42.2619C107.865 42.4263 107.913 42.5862 107.996 42.7288C108.078 42.8713 108.193 42.9926 108.33 43.0827C108.595 43.2347 108.805 43.1131 108.808 42.8122C108.799 42.6476 108.752 42.4874 108.669 42.3448C108.587 42.2021 108.472 42.081 108.333 41.9914ZM112.893 44.6271C112.632 44.4751 112.419 44.5967 112.419 44.8976C112.427 45.062 112.474 45.2221 112.556 45.3647C112.638 45.5074 112.753 45.6286 112.89 45.7184C113.152 45.8704 113.368 45.7488 113.368 45.4448C113.358 45.2808 113.311 45.1214 113.228 44.9793C113.146 44.8372 113.031 44.7166 112.893 44.6271Z" fill="white"/>
<path d="M119.11 35.8385C119.247 35.9216 119.359 36.039 119.436 36.179C119.615 36.483 119.615 36.8235 119.436 36.9238L116.751 38.4438C116.699 38.4678 116.641 38.4773 116.584 38.4714C116.527 38.4655 116.472 38.4445 116.426 38.4104C116.291 38.3259 116.179 38.2088 116.101 38.0699L114.787 35.7899C114.605 35.4859 114.608 35.1454 114.787 35.042C114.84 35.0187 114.897 35.0095 114.954 35.0154C115.012 35.0213 115.066 35.042 115.113 35.0755C115.248 35.1599 115.36 35.277 115.438 35.416L116.432 37.1488L118.791 35.8051C118.843 35.7823 118.899 35.7734 118.955 35.7792C119.011 35.7851 119.065 35.8056 119.11 35.8385Z" fill="white"/>
<path d="M117.116 33.0264C118.907 34.06 120.351 36.5649 120.344 38.62C120.338 40.675 118.885 41.5019 117.095 40.4683C115.304 39.4347 113.863 36.9358 113.869 34.8777C113.875 32.8197 115.328 31.9958 117.116 33.0264ZM116.736 38.4558L119.42 36.9358C119.603 36.8355 119.603 36.5011 119.42 36.191C119.344 36.051 119.231 35.9336 119.095 35.8505C119.049 35.8165 118.994 35.7954 118.937 35.7895C118.88 35.7836 118.822 35.7932 118.77 35.8171L116.432 37.1486L115.441 35.428C115.363 35.289 115.251 35.172 115.116 35.0875C115.069 35.054 115.015 35.0333 114.957 35.0274C114.9 35.0215 114.843 35.0307 114.79 35.0541C114.611 35.1574 114.608 35.4888 114.79 35.8019L116.104 38.0819C116.182 38.2209 116.294 38.3379 116.429 38.4224C116.475 38.4565 116.53 38.4775 116.587 38.4834C116.644 38.4893 116.702 38.4798 116.754 38.4558" fill="#0092AC"/>
<path opacity="0.3" d="M117.116 33.0264C118.907 34.06 120.351 36.5649 120.344 38.62C120.338 40.675 118.885 41.5019 117.095 40.4683C115.304 39.4347 113.863 36.9358 113.869 34.8777C113.875 32.8197 115.328 31.9958 117.116 33.0264ZM116.736 38.4558L119.42 36.9358C119.603 36.8355 119.603 36.5011 119.42 36.191C119.344 36.051 119.231 35.9336 119.095 35.8505C119.049 35.8165 118.994 35.7954 118.937 35.7895C118.88 35.7836 118.822 35.7932 118.77 35.8171L116.432 37.1486L115.441 35.428C115.363 35.289 115.251 35.172 115.116 35.0875C115.069 35.054 115.015 35.0333 114.957 35.0274C114.9 35.0215 114.843 35.0307 114.79 35.0541C114.611 35.1574 114.608 35.4888 114.79 35.8019L116.104 38.0819C116.182 38.2209 116.294 38.3379 116.429 38.4224C116.475 38.4565 116.53 38.4775 116.587 38.4834C116.644 38.4893 116.702 38.4798 116.754 38.4558" fill="white"/>
<path d="M58.7662 24.2105C58.5534 23.4597 57.0274 22.0309 55.5074 22.0613C55.3618 22.0658 55.2179 22.0946 55.0818 22.1464L25.5968 38.912C25.1037 39.1922 24.708 39.6165 24.4629 40.128C24.2683 40.5118 24.1643 40.935 24.1589 41.3653V105.16C24.1589 106.783 26.0315 108.333 27.7917 107.592C27.8316 107.58 27.8703 107.565 27.9072 107.546L57.3952 90.7409C57.8272 90.494 58.1862 90.1374 58.4361 89.7071C58.6859 89.2769 58.8176 88.7882 58.8179 88.2907V24.5176C58.8245 24.4126 58.8068 24.3076 58.7662 24.2105Z" fill="#455A64"/>
<path d="M28.272 48.1141C28.273 47.8667 28.3393 47.624 28.4642 47.4104C28.5891 47.1969 28.7682 47.0202 28.9834 46.8981L56.3768 31.312C56.4837 31.251 56.6048 31.219 56.7279 31.2192C56.851 31.2195 56.9719 31.252 57.0786 31.3135C57.1853 31.375 57.274 31.4633 57.3359 31.5697C57.3979 31.6761 57.4309 31.7969 57.4317 31.92V83.3568C57.4292 83.6038 57.3622 83.846 57.2375 84.0592C57.1127 84.2725 56.9345 84.4495 56.7203 84.5728L29.339 100.186C29.2321 100.247 29.1111 100.279 28.9879 100.279C28.8648 100.279 28.7439 100.246 28.6372 100.185C28.5306 100.123 28.4418 100.035 28.3799 99.9285C28.318 99.8221 28.285 99.7013 28.2842 99.5782L28.272 48.1141Z" fill="#0092AC"/>
<path opacity="0.2" d="M28.272 48.1141C28.273 47.8667 28.3393 47.624 28.4642 47.4104C28.5891 47.1969 28.7682 47.0202 28.9834 46.8981L56.3768 31.312C56.4837 31.251 56.6048 31.219 56.7279 31.2192C56.851 31.2195 56.9719 31.252 57.0786 31.3135C57.1853 31.375 57.274 31.4633 57.3359 31.5697C57.3979 31.6761 57.4309 31.7969 57.4317 31.92V83.3568C57.4292 83.6038 57.3622 83.846 57.2375 84.0592C57.1127 84.2725 56.9345 84.4495 56.7203 84.5728L29.339 100.186C29.2321 100.247 29.1111 100.279 28.9879 100.279C28.8648 100.279 28.7439 100.246 28.6372 100.185C28.5306 100.123 28.4418 100.035 28.3799 99.9285C28.318 99.8221 28.285 99.7013 28.2842 99.5782L28.272 48.1141Z" fill="black"/>
<path opacity="0.1" d="M28.272 48.1141C28.273 47.8667 28.3393 47.624 28.4642 47.4104C28.5891 47.1969 28.7682 47.0202 28.9834 46.8981L56.3768 31.312C56.4837 31.251 56.6048 31.219 56.7279 31.2192C56.851 31.2195 56.9719 31.252 57.0786 31.3135C57.1853 31.375 57.274 31.4633 57.3359 31.5697C57.3979 31.6761 57.4309 31.7969 57.4317 31.92V83.3568C57.4292 83.6038 57.3622 83.846 57.2375 84.0592C57.1127 84.2725 56.9345 84.4495 56.7203 84.5728L29.339 100.186C29.2321 100.247 29.1111 100.279 28.9879 100.279C28.8648 100.279 28.7439 100.246 28.6372 100.185C28.5306 100.123 28.4418 100.035 28.3799 99.9285C28.318 99.8221 28.285 99.7013 28.2842 99.5782L28.272 48.1141Z" fill="white"/>
<path opacity="0.3" d="M24.171 41.3715V105.16C24.171 106.783 26.0437 108.334 27.8038 107.592C27.6982 107.63 27.5848 107.643 27.4732 107.629C27.3617 107.614 27.2553 107.573 27.1631 107.508C27.0709 107.444 26.9956 107.358 26.9436 107.258C26.8916 107.159 26.8645 107.048 26.8645 106.935V43.1347C26.872 42.5783 27.0444 42.0366 27.36 41.5783L24.4629 40.1282C24.2716 40.5148 24.1718 40.9402 24.171 41.3715Z" fill="black"/>
<path opacity="0.1" d="M55.5104 22.0583C55.3648 22.0629 55.221 22.0917 55.0848 22.1435L25.5968 38.9121C25.1037 39.1923 24.7081 39.6166 24.4629 40.1281L27.36 41.5782C27.6003 41.2029 27.9264 40.8903 28.3115 40.6662L57.7995 23.8915C57.8829 23.8435 57.9754 23.8133 58.071 23.8027C58.1666 23.7922 58.2634 23.8014 58.3553 23.8299C58.4472 23.8585 58.5322 23.9057 58.605 23.9686C58.6778 24.0315 58.7368 24.1087 58.7784 24.1955C58.5565 23.4567 57.0304 22.0279 55.5104 22.0583Z" fill="white"/>
<path d="M46.4907 34.4372C46.7005 34.3186 46.8707 34.4128 46.8707 34.65C46.8628 34.7807 46.8246 34.9077 46.7592 35.0212C46.6938 35.1346 46.6029 35.2313 46.4938 35.3036L40.7178 38.6475C40.511 38.7691 40.3438 38.6688 40.3438 38.4287C40.3508 38.2997 40.388 38.1742 40.4524 38.0622C40.5169 37.9503 40.6067 37.855 40.7147 37.7842L46.4907 34.4372Z" fill="#263238"/>
<path d="M39.216 38.6356C39.4227 38.517 39.5899 38.6112 39.5899 38.8514C39.5826 38.9815 39.545 39.108 39.48 39.221C39.4151 39.3339 39.3247 39.4302 39.216 39.502C39.0093 39.6205 38.839 39.5232 38.839 39.2861C38.8455 39.1555 38.8831 39.0283 38.9486 38.9151C39.0142 38.802 39.1059 38.7061 39.216 38.6356Z" fill="#263238"/>
<path d="M42.9248 33.9538C43.3382 33.7136 43.6726 33.9051 43.6726 34.3794C43.6598 34.6392 43.5856 34.8922 43.4561 35.1178C43.3267 35.3435 43.1456 35.5352 42.9278 35.6774C42.5144 35.9176 42.1709 35.723 42.1709 35.2458C42.1862 34.9863 42.2624 34.7341 42.3934 34.5097C42.5244 34.2852 42.7064 34.0947 42.9248 33.9538Z" fill="#263238"/>
<path d="M42.9248 94.003C43.7699 93.5166 44.4448 93.9057 44.4448 94.8724C44.4179 95.4023 44.2662 95.9183 44.002 96.3785C43.7379 96.8386 43.3688 97.2298 42.9248 97.5203C42.0827 98.0067 41.3835 97.6085 41.3805 96.6387C41.412 96.1088 41.5683 95.5938 41.8367 95.1357C42.105 94.6777 42.4779 94.2896 42.9248 94.003Z" fill="#263238"/>
<path d="M57.3405 30.5034L67.2995 38.7692L63.6697 40.8668L53.7137 32.601L57.3405 30.5034Z" fill="#0092AC"/>
<path d="M50.084 34.6987L60.04 42.9615L56.4102 45.0591L46.4573 36.7963L50.084 34.6987Z" fill="#0092AC"/>
<path d="M46.4573 36.7961L56.4102 45.0589L52.7805 47.1565L42.8275 38.8937L46.4573 36.7961Z" fill="white"/>
<path d="M53.7137 32.6011L63.6697 40.8668L60.04 42.9614L50.084 34.6987L53.7137 32.6011Z" fill="white"/>
<path d="M35.571 43.0859L45.521 51.3487L41.8912 53.4463L31.9413 45.1835L35.571 43.0859Z" fill="#0092AC"/>
<path d="M42.8275 38.8938L52.7805 47.1565L49.1507 49.2511L39.1978 40.9884L42.8275 38.8938Z" fill="#0092AC"/>
<path d="M28.2446 47.3207L31.9413 45.1836L41.8912 53.4463L38.1854 55.5865L28.2446 47.3207Z" fill="white"/>
<path d="M39.1978 40.9885L49.1507 49.2512L45.521 51.3488L35.571 43.0861L39.1978 40.9885Z" fill="white"/>
<path d="M67.2995 38.7693L63.6697 40.8669C63.6695 41.1129 63.734 41.3546 63.8567 41.5677C63.9795 41.7809 64.1562 41.958 64.3691 42.0812C64.582 42.2044 64.8235 42.2695 65.0695 42.2698C65.3155 42.27 65.5572 42.2056 65.7704 42.0829C66.2333 41.8124 66.6173 41.4253 66.884 40.9602C67.1507 40.4951 67.2908 39.9682 67.2904 39.432L67.2995 38.7693Z" fill="#0092AC"/>
<path d="M63.6697 40.8667L60.04 42.9643C60.0397 43.2103 60.1042 43.452 60.227 43.6651C60.3497 43.8783 60.5264 44.0554 60.7393 44.1786C60.9522 44.3019 61.1938 44.3669 61.4397 44.3672C61.6857 44.3675 61.9274 44.303 62.1406 44.1803C62.604 43.9103 62.9883 43.5233 63.255 43.0581C63.5218 42.5928 63.6617 42.0657 63.6606 41.5294L63.6697 40.8667Z" fill="#E0E0E0"/>
<path d="M60.04 42.9644L56.4102 45.0589C56.41 45.3049 56.4745 45.5466 56.5972 45.7598C56.72 45.9729 56.8967 46.15 57.1096 46.2732C57.3224 46.3965 57.564 46.4615 57.81 46.4618C58.056 46.4621 58.2977 46.3976 58.5109 46.2749C58.9742 46.0049 59.3585 45.6179 59.6253 45.1527C59.892 44.6875 60.0319 44.1603 60.0309 43.624L60.04 42.9644Z" fill="#0092AC"/>
<path d="M56.4102 45.0591L52.7805 47.1567C52.7793 47.403 52.8432 47.6453 52.9657 47.859C53.0883 48.0727 53.2651 48.2502 53.4783 48.3737C53.6915 48.4971 53.9335 48.562 54.1798 48.5618C54.4262 48.5616 54.6681 48.4964 54.8811 48.3727C55.3442 48.1032 55.7284 47.7167 55.9952 47.252C56.2619 46.7873 56.4019 46.2607 56.4011 45.7248L56.4102 45.0591Z" fill="#E0E0E0"/>
<path d="M52.7805 47.1565L49.1507 49.248C49.1505 49.494 49.215 49.7357 49.3377 49.9489C49.4605 50.162 49.6372 50.3391 49.8501 50.4623C50.063 50.5856 50.3045 50.6506 50.5505 50.6509C50.7965 50.6512 51.0382 50.5867 51.2514 50.464C51.7147 50.194 52.099 49.807 52.3658 49.3418C52.6325 48.8766 52.7724 48.3494 52.7714 47.8131L52.7805 47.1565Z" fill="#0092AC"/>
<path d="M49.1507 49.248L45.521 51.3426C45.5207 51.5886 45.5852 51.8303 45.708 52.0434C45.8307 52.2566 46.0074 52.4337 46.2203 52.5569C46.4332 52.6802 46.6748 52.7452 46.9207 52.7455C47.1667 52.7458 47.4084 52.6813 47.6216 52.5586C48.0845 52.2881 48.4685 51.901 48.7352 51.4359C49.0019 50.9708 49.142 50.4439 49.1416 49.9077L49.1507 49.248Z" fill="#E0E0E0"/>
<path d="M45.521 51.3486L41.8912 53.4462C41.89 53.6926 41.9539 53.9348 42.0764 54.1485C42.199 54.3622 42.3758 54.5398 42.589 54.6632C42.8022 54.7866 43.0442 54.8515 43.2905 54.8513C43.5369 54.8512 43.7788 54.7859 43.9918 54.6622C44.4566 54.3939 44.8421 54.0073 45.1091 53.5417C45.3761 53.076 45.515 52.5481 45.5118 52.0114L45.521 51.3486Z" fill="#0092AC"/>
<path opacity="0.2" d="M67.2995 38.7693L63.6697 40.8669C63.6695 41.1129 63.734 41.3546 63.8567 41.5677C63.9795 41.7809 64.1562 41.958 64.3691 42.0812C64.582 42.2044 64.8235 42.2695 65.0695 42.2698C65.3155 42.27 65.5572 42.2056 65.7704 42.0829C66.2333 41.8124 66.6173 41.4253 66.884 40.9602C67.1507 40.4951 67.2908 39.9682 67.2904 39.432L67.2995 38.7693Z" fill="black"/>
<path opacity="0.2" d="M60.04 42.9644L56.4102 45.0589C56.41 45.3049 56.4745 45.5466 56.5972 45.7598C56.72 45.9729 56.8967 46.15 57.1096 46.2732C57.3224 46.3965 57.564 46.4615 57.81 46.4618C58.056 46.4621 58.2977 46.3976 58.5109 46.2749C58.9742 46.0049 59.3585 45.6179 59.6253 45.1527C59.892 44.6875 60.0319 44.1603 60.0309 43.624L60.04 42.9644Z" fill="black"/>
<path opacity="0.2" d="M52.7805 47.1565L49.1507 49.248C49.1505 49.494 49.215 49.7357 49.3377 49.9489C49.4605 50.162 49.6372 50.3391 49.8501 50.4623C50.063 50.5856 50.3045 50.6506 50.5505 50.6509C50.7965 50.6512 51.0382 50.5867 51.2514 50.464C51.7147 50.194 52.099 49.807 52.3658 49.3418C52.6325 48.8766 52.7724 48.3494 52.7714 47.8131L52.7805 47.1565Z" fill="black"/>
<path opacity="0.2" d="M45.521 51.3486L41.8912 53.4462C41.89 53.6926 41.9539 53.9348 42.0764 54.1485C42.199 54.3622 42.3758 54.5398 42.589 54.6632C42.8022 54.7866 43.0442 54.8515 43.2905 54.8513C43.5369 54.8512 43.7788 54.7859 43.9918 54.6622C44.4566 54.3939 44.8421 54.0073 45.1091 53.5417C45.3761 53.076 45.515 52.5481 45.5118 52.0114L45.521 51.3486Z" fill="black"/>
<path d="M41.8912 53.4463L38.1854 55.5743C38.1846 55.8202 38.2485 56.062 38.3709 56.2752C38.4933 56.4885 38.6698 56.6657 38.8825 56.7891C39.0952 56.9124 39.3367 56.9774 39.5826 56.9776C39.8285 56.9779 40.0701 56.9132 40.283 56.7903C40.7723 56.5078 41.1785 56.1014 41.4609 55.6121C41.7432 55.1227 41.8916 54.5676 41.8912 54.0026V53.4463Z" fill="#E0E0E0"/>
<path d="M46.1229 64.144C45.0461 64.2717 44.0016 64.5941 43.0403 65.0956C40.7991 66.2517 39.0866 68.2232 38.2553 70.604C37.8948 71.6266 37.7228 72.706 37.7477 73.79C37.9866 72.7657 38.332 71.7693 38.7782 70.8168C39.7764 68.6829 41.3504 66.8699 43.323 65.582C44.2042 65.0073 45.1424 64.5254 46.1229 64.144Z" fill="#0092AC"/>
<path d="M43.2835 80.0615C42.6926 80.0515 42.1068 79.9489 41.5477 79.7575C40.9263 79.5515 40.3527 79.2228 39.8608 78.791C39.3688 78.3591 38.9687 77.8328 38.684 77.2434C38.4207 76.7144 38.2432 76.147 38.1581 75.5623C38.0945 76.1742 38.1746 76.7925 38.3922 77.368C38.637 78.0384 39.0466 78.6365 39.5831 79.1071C40.1197 79.5778 40.766 79.906 41.4625 80.0615C42.0613 80.2032 42.6848 80.2032 43.2835 80.0615Z" fill="#0092AC"/>
<path d="M47.9955 70.2849C48.0549 71.0951 48.0426 71.9089 47.959 72.7169C47.7666 74.5426 47.1683 76.3021 46.208 77.8667C45.7815 78.562 45.2942 79.2182 44.7518 79.8275C45.4502 79.3604 46.0665 78.7811 46.5758 78.1129C47.7551 76.5736 48.396 74.6895 48.3998 72.7504C48.4015 71.9119 48.2649 71.0789 47.9955 70.2849Z" fill="#0092AC"/>
<path d="M38.4651 66.9287C37.7302 67.6355 37.1297 68.4698 36.6928 69.3911C35.6634 71.5289 35.4915 73.9797 36.2125 76.2402C36.5196 77.2131 36.9984 78.1233 37.6261 78.9276C37.2271 78.0206 36.9215 77.0754 36.7141 76.1065C36.2592 73.9366 36.4171 71.683 37.1701 69.5978C37.5071 68.6652 37.9411 67.7706 38.4651 66.9287Z" fill="#0092AC"/>
<path d="M50.0779 67.2874C50.0002 66.4571 49.7022 65.6626 49.2146 64.9861C48.661 64.1871 47.8865 63.5669 46.9859 63.2014C46.0853 62.8358 45.0976 62.7408 44.1438 62.928C43.3233 63.0765 42.5566 63.4394 41.9216 63.9799C42.6355 63.6298 43.409 63.4174 44.2016 63.3536C45.0762 63.2735 45.9573 63.4039 46.7713 63.7339C47.5852 64.0639 48.3083 64.584 48.8802 65.2506C49.404 65.8482 49.8103 66.5392 50.0779 67.2874Z" fill="#0092AC"/>
<path d="M63.1165 57.7602C64.0795 57.6623 65.044 57.9317 65.8168 58.5146C66.5896 59.0974 67.1138 59.9507 67.2843 60.9035L68.6949 68.8075L77.5413 74.9939L75.5653 77.3986L67.1506 72.9784C66.6549 72.7183 66.2164 72.3616 65.8608 71.9293C65.5053 71.497 65.2399 70.9978 65.0803 70.4613L62.3687 61.3139L63.1165 57.7602Z" fill="#FFA8A7"/>
<path d="M66.3997 66.2539C67.1814 65.8378 67.8075 65.1797 68.1842 64.3782L67.3907 60.7546C67.1882 59.8344 66.6544 59.0207 65.8909 58.4686C65.1275 57.9164 64.1876 57.6643 63.2503 57.7602L63.1165 57.7754L62.3687 61.3352L63.536 66.5762C64.4983 66.8165 65.5149 66.7021 66.3997 66.2539Z" fill="#455A64"/>
<path d="M66.3997 66.2538C65.5149 66.702 64.4983 66.8164 63.536 66.5761L63.84 67.8681C64.9374 68.1143 67.7494 68.0322 68.4821 65.7097L68.1781 64.3721C67.804 65.1749 67.1801 65.8351 66.3997 66.2538Z" fill="#455A64"/>
<path opacity="0.2" d="M66.3997 66.2539C67.1814 65.8378 67.8075 65.1797 68.1842 64.3782L67.3907 60.7546C67.1882 59.8344 66.6544 59.0207 65.8909 58.4686C65.1275 57.9164 64.1876 57.6643 63.2503 57.7602L63.1165 57.7754L62.3687 61.3352L63.536 66.5762C64.4983 66.8165 65.5149 66.7021 66.3997 66.2539Z" fill="white"/>
<path opacity="0.5" d="M66.3997 66.2538C65.5149 66.702 64.4983 66.8164 63.536 66.5761L63.84 67.8681C64.9374 68.1143 67.7494 68.0322 68.4821 65.7097L68.1781 64.3721C67.804 65.1749 67.1801 65.8351 66.3997 66.2538Z" fill="white"/>
<path d="M65.0742 61.1619C65.0742 61.1619 64.7216 58.4715 63.1165 57.7693C63.1165 57.7693 59.2739 58.9214 56.088 60.1314C54.828 60.5908 53.594 61.1185 52.3914 61.7122C51.6678 62.3384 49.5915 64.2019 48.6157 64.7035C48.139 64.9418 47.6248 65.096 47.0957 65.1595C46.4271 65.2668 45.7853 65.5011 45.2048 65.8496C42.2803 67.5399 39.9182 71.6256 39.9274 74.9909C39.9274 77.1949 40.961 78.5295 42.4901 78.7149H42.56C42.8015 78.7406 43.0451 78.7406 43.2866 78.7149C45.9466 78.6906 50.2117 78.6693 51.8867 78.189C59.7117 75.8907 65.8646 70.2242 65.0742 61.1619Z" fill="#455A64"/>
<path d="M57.6171 60.0584L58.7632 57.979L63.3749 61.0859L61.5509 63.5361C61.168 63.7237 60.7502 63.8296 60.3242 63.8468C59.8981 63.8641 59.4731 63.7925 59.0763 63.6364C58.6841 63.4556 58.3333 63.1961 58.0457 62.8739C57.758 62.5518 57.5397 62.1739 57.4043 61.7638C57.3234 61.4798 57.3005 61.1824 57.3371 60.8894C57.3737 60.5964 57.4689 60.3138 57.6171 60.0584Z" fill="#FFA8A7"/>
<path opacity="0.2" d="M59.1949 58.2678C59.1949 60.7728 61.1861 61.9462 62.4021 62.3901L63.3749 61.0859L59.1949 58.2678Z" fill="black"/>
<path d="M57.1125 55.7689C56.9422 54.7688 56.769 53.7412 56.9635 52.7441C57.1581 51.747 57.8026 50.7742 58.7875 50.4824C58.9876 50.0561 59.2737 49.6759 59.6279 49.3656C59.9821 49.0553 60.3967 48.8218 60.8456 48.6796C61.7257 48.4394 62.6361 48.3288 63.5482 48.3513C64.5544 48.291 65.5643 48.3471 66.5578 48.5185C67.5588 48.6973 68.4685 49.2133 69.1357 49.9808C69.4776 50.4516 69.7202 50.9871 69.8488 51.5546C69.9773 52.1222 69.9892 52.7099 69.8835 53.2822C69.6654 54.4259 69.2421 55.5207 68.6341 56.5137C66.7006 56.6505 64.7307 56.8724 62.7973 57.0092C61.8124 57.1125 60.8199 57.1217 59.8333 57.0366C58.8265 56.8739 57.8847 56.4351 57.1125 55.7689Z" fill="#263238"/>
<path d="M68.9502 51.1329C69.4457 54.1081 69.1177 57.1621 68.0017 59.9641C67.7433 60.6117 67.3937 61.2835 66.8009 61.627C66.2081 61.9705 65.3813 61.9158 64.6729 61.8064C63.5013 61.6729 62.3589 61.3516 61.2894 60.8549C60.213 60.3471 59.3743 59.4431 58.9486 58.3317C58.5653 58.4088 58.1679 58.3739 57.804 58.231C57.4401 58.0881 57.125 57.8434 56.8966 57.5261C56.4477 56.8675 56.215 56.0855 56.2309 55.2886C56.2309 54.7809 56.3251 54.1821 56.7811 53.9601C57.2371 53.7382 57.7113 53.9845 58.0792 54.2824C58.6822 54.7729 59.123 55.4341 59.3438 56.1793C59.6782 54.9421 60.1981 53.7473 60.5325 52.5313C60.6662 52.0449 60.8365 51.516 61.2529 51.2454C61.7697 50.9141 62.4446 51.1025 63.0435 51.2454C64.9899 51.7112 67.023 51.6725 68.9502 51.1329Z" fill="#FFA8A7"/>
<path d="M65.3509 54.8811L66.7949 57.3101L65.0742 57.6353L65.3509 54.8811Z" fill="#F28F8F"/>
<path d="M63.4144 58.4714L64.7216 59.1068C64.61 59.2558 64.4527 59.3641 64.2737 59.4152C64.0947 59.4662 63.9039 59.4572 63.7306 59.3895C63.5808 59.2958 63.4677 59.1535 63.4101 58.9864C63.3526 58.8193 63.3541 58.6375 63.4144 58.4714Z" fill="#F28F8F"/>
<path opacity="0.3" d="M63.4144 58.4714L64.7216 59.1068C64.61 59.2558 64.4527 59.3641 64.2737 59.4152C64.0947 59.4662 63.9039 59.4572 63.7306 59.3895C63.5808 59.2958 63.4677 59.1535 63.4101 58.9864C63.3526 58.8193 63.3541 58.6375 63.4144 58.4714Z" fill="black"/>
<path d="M64.1835 59.4321C64.0316 59.463 63.874 59.4482 63.7305 59.3895C63.6103 59.3223 63.5128 59.2207 63.4505 59.0978C63.3882 58.9749 63.364 58.8362 63.3809 58.6995C63.5684 58.6998 63.7504 58.763 63.8978 58.8788C64.0612 59.0192 64.1637 59.2176 64.1835 59.4321Z" fill="#F28F8F"/>
<path d="M62.8581 54.9784C62.8483 55.076 62.8677 55.1743 62.9138 55.2608C62.96 55.3473 63.0307 55.4182 63.1172 55.4645C63.2036 55.5109 63.3018 55.5305 63.3994 55.5209C63.497 55.5114 63.5896 55.4731 63.6654 55.4109C63.7412 55.3487 63.7969 55.2654 63.8253 55.1716C63.8538 55.0777 63.8538 54.9776 63.8253 54.8837C63.7968 54.7899 63.7411 54.7066 63.6652 54.6445C63.5894 54.5823 63.4968 54.5441 63.3992 54.5346C63.2686 54.5218 63.1383 54.5614 63.0369 54.6446C62.9355 54.7278 62.8711 54.8479 62.8581 54.9784Z" fill="#263238"/>
<path d="M67.0046 55.2337C66.995 55.3306 67.0142 55.4281 67.0599 55.514C67.1056 55.5999 67.1757 55.6704 67.2614 55.7165C67.3471 55.7626 67.4445 55.7822 67.5414 55.773C67.6383 55.7638 67.7303 55.726 67.8057 55.6646C67.8812 55.6031 67.9367 55.5207 67.9653 55.4277C67.994 55.3347 67.9944 55.2353 67.9666 55.142C67.9388 55.0488 67.884 54.9658 67.8091 54.9037C67.7342 54.8416 67.6426 54.803 67.5458 54.7929C67.4813 54.7862 67.4161 54.7923 67.3539 54.8108C67.2918 54.8294 67.2339 54.86 67.1836 54.9009C67.1334 54.9419 67.0917 54.9924 67.0609 55.0495C67.0302 55.1066 67.0111 55.1692 67.0046 55.2337Z" fill="#263238"/>
<path d="M67.6795 53.3248L68.6949 54.1881C68.7558 54.0577 68.7753 53.9118 68.7508 53.77C68.7264 53.6282 68.6591 53.4972 68.5581 53.3947C68.4327 53.3024 68.284 53.2469 68.1288 53.2346C67.9735 53.2222 67.8179 53.2535 67.6795 53.3248Z" fill="#263238"/>
<path d="M63.6363 53.2579L62.472 53.9023C62.4378 53.7627 62.4472 53.6159 62.4988 53.4817C62.5504 53.3475 62.6418 53.2323 62.7608 53.1515C62.9022 53.0862 63.059 53.0616 63.2137 53.0803C63.3683 53.0991 63.5146 53.1606 63.6363 53.2579Z" fill="#263238"/>
<path d="M69.8744 52.133C65.6453 52.81 61.3355 52.81 57.1064 52.133C57.304 46.965 59.6296 45.2717 63.6424 45.2717C67.6552 45.2717 69.92 47.424 69.8744 52.133Z" fill="#455A64"/>
<path d="M69.8744 52.1332C69.8744 50.1541 69.4913 48.6341 68.7405 47.5306L67.0593 47.0594C66.2681 46.8372 65.4375 46.7935 64.6273 46.9317L63.0253 47.1993C62.477 47.2875 61.9725 47.5523 61.5884 47.9534C61.2044 48.3545 60.9617 48.8699 60.8973 49.4215L60.5294 52.5405C63.6497 52.7652 66.7855 52.6285 69.8744 52.1332Z" fill="#455A64"/>
<path opacity="0.29" d="M69.8744 52.1332C69.8744 50.1541 69.4913 48.6341 68.7405 47.5306L67.0593 47.0594C66.2681 46.8372 65.4375 46.7935 64.6273 46.9317L63.0253 47.1993C62.477 47.2875 61.9725 47.5523 61.5884 47.9534C61.2044 48.3545 60.9617 48.8699 60.8973 49.4215L60.5294 52.5405C63.6497 52.7652 66.7855 52.6285 69.8744 52.1332Z" fill="white"/>
<path d="M70.376 47.7827H69.6342C69.3941 47.7827 69.157 47.7827 68.9198 47.8101C66.7449 47.9682 64.6838 48.8427 63.0587 50.2968L60.5598 52.5403C63.67 52.7627 66.7955 52.626 69.8744 52.133L71.5008 50.16C71.6737 49.9464 71.7828 49.6884 71.8155 49.4155C71.8482 49.1427 71.8032 48.8662 71.6856 48.6178C71.5681 48.3694 71.3829 48.1593 71.1512 48.0115C70.9195 47.8638 70.6508 47.7845 70.376 47.7827Z" fill="#455A64"/>
<path opacity="0.2" d="M70.376 47.7827H69.6342C69.3941 47.7827 69.157 47.7827 68.9198 47.8101C66.7449 47.9682 64.6838 48.8427 63.0587 50.2968L60.5598 52.5403C63.67 52.7627 66.7955 52.626 69.8744 52.133L71.5008 50.16C71.6737 49.9464 71.7828 49.6884 71.8155 49.4155C71.8482 49.1427 71.8032 48.8662 71.6856 48.6178C71.5681 48.3694 71.3829 48.1593 71.1512 48.0115C70.9195 47.8638 70.6508 47.7845 70.376 47.7827Z" fill="black"/>
<path d="M83.2261 75.4104L71.893 81.9951L60.4869 75.4104L71.817 68.8228L83.2261 75.4104Z" fill="#0092AC"/>
<g opacity="0.3">
<path opacity="0.3" d="M83.2261 75.4104L71.893 81.9951L60.4869 75.4104L71.817 68.8228L83.2261 75.4104Z" fill="white"/>
</g>
<path d="M83.2261 75.4104L83.1926 86.9381L71.8595 93.5227L71.8929 81.995L83.2261 75.4104Z" fill="#0092AC"/>
<g opacity="0.1">
<path opacity="0.1" d="M83.2261 75.4104L83.1926 86.9381L71.8595 93.5227L71.8929 81.995L83.2261 75.4104Z" fill="white"/>
</g>
<path d="M71.8929 81.995L71.8595 93.5227L60.4534 86.9381L60.4869 75.4104L71.8929 81.995Z" fill="#0092AC"/>
<path d="M73.8659 74.5653L77.7024 72.2215L75.7446 71.0906L71.8929 73.3888L73.8659 74.5653Z" fill="#E0E0E0"/>
<path d="M73.8659 74.5652L71.893 73.3887L67.9805 71.054L66.0288 72.1879L69.917 74.5652L71.893 75.772L77.1096 78.964L79.2011 77.748L73.8659 74.5652Z" fill="white"/>
<path d="M69.917 74.5652L64.5605 77.7602L66.6581 78.9732L71.893 75.7721L69.917 74.5652Z" fill="#E0E0E0"/>
<path d="M79.2011 77.748L77.1096 78.964L77.1278 78.9732L77.1582 90.4431L79.2741 89.2149L79.2437 77.7693L79.2011 77.748Z" fill="#E0E0E0"/>
<path d="M66.6581 78.9732L64.5605 77.7603L64.5422 77.7694L64.5088 89.2819L66.6246 90.5009L66.6581 78.9732Z" fill="white"/>
<path opacity="0.2" d="M66.6581 78.9732L64.5605 77.7603L64.5422 77.7694L64.5088 89.2819L66.6246 90.5009L66.6581 78.9732Z" fill="black"/>
<path d="M71.8869 78.0491L69.5157 79.4992L71.8869 80.8702L74.252 79.4961L71.8869 78.0491Z" fill="white"/>
<path d="M49.4517 77.6508C49.4517 77.6508 50.3363 64.7764 50.5217 63.9708C51.2301 60.9095 55.6685 61.1284 56.091 64.2414C56.2643 65.5121 54.2366 77.8514 54.2366 77.8514L61.5813 85.6217L63.0678 86.9866L64.3933 86.7191L67.415 87.0049C67.4954 87.0129 67.5709 87.0469 67.6302 87.1018C67.6894 87.1567 67.7292 87.2294 67.7433 87.3089C67.7627 87.403 67.7451 87.501 67.6942 87.5825C67.6433 87.6641 67.5629 87.7228 67.4697 87.7466L65.4725 88.233L66.9134 89.218C67.1154 89.3564 67.3444 89.4507 67.5853 89.4946L69.844 89.9233C69.9438 89.9417 70.0333 89.9962 70.0955 90.0763C70.1578 90.1565 70.1883 90.2567 70.1814 90.358C70.1767 90.4381 70.149 90.5152 70.1015 90.5799C70.054 90.6446 69.9889 90.6942 69.9139 90.7228L68.6979 91.1757C67.91 91.4715 67.0675 91.5936 66.228 91.5338C65.3886 91.474 64.5719 91.2337 63.8339 90.8292L61.2195 89.3761C60.8361 89.1698 60.4746 88.9254 60.1403 88.6465L50.768 80.8945C50.2957 80.5063 49.9279 80.0062 49.6981 79.4397C49.4682 78.8732 49.3835 78.2583 49.4517 77.6508Z" fill="#FFA8A7"/>
<path d="M55.9725 72.7169L56.9118 65.7249C56.9701 65.2484 56.934 64.7651 56.8055 64.3026C56.677 63.8401 56.4587 63.4074 56.163 63.0293C55.8673 62.6512 55.5 62.335 55.0821 62.0988C54.6642 61.8626 54.2039 61.7111 53.7274 61.6528C53.251 61.5945 52.7677 61.6306 52.3052 61.7591C51.8427 61.8876 51.41 62.1059 51.0319 62.4016C50.6538 62.6973 50.3376 63.0646 50.1014 63.4825C49.8652 63.9004 49.7136 64.3607 49.6554 64.8372L48.871 71.9721C49.9363 72.5874 51.1195 72.971 52.3432 73.0978C53.567 73.2246 54.8036 73.0916 55.9725 72.7077V72.7169Z" fill="#455A64"/>
<path opacity="0.2" d="M55.9725 72.7169L56.9118 65.7249C56.9701 65.2484 56.934 64.7651 56.8055 64.3026C56.677 63.8401 56.4587 63.4074 56.163 63.0293C55.8673 62.6512 55.5 62.335 55.0821 62.0988C54.6642 61.8626 54.2039 61.7111 53.7274 61.6528C53.251 61.5945 52.7677 61.6306 52.3052 61.7591C51.8427 61.8876 51.41 62.1059 51.0319 62.4016C50.6538 62.6973 50.3376 63.0646 50.1014 63.4825C49.8652 63.9004 49.7136 64.3607 49.6554 64.8372L48.871 71.9721C49.9363 72.5874 51.1195 72.971 52.3432 73.0978C53.567 73.2246 54.8036 73.0916 55.9725 72.7077V72.7169Z" fill="white"/>
<path d="M52.1998 73.0908C51.0226 72.9463 49.8859 72.5691 48.8558 71.9812L48.6765 73.6258C51.835 76.0578 55.708 74.5561 55.708 74.5561L55.9573 72.7169C54.7459 73.1083 53.4647 73.2358 52.1998 73.0908Z" fill="#455A64"/>
<path opacity="0.5" d="M52.1998 73.0908C51.0226 72.9463 49.8859 72.5691 48.8558 71.9812L48.6765 73.6258C51.835 76.0578 55.708 74.5561 55.708 74.5561L55.9573 72.7169C54.7459 73.1083 53.4647 73.2358 52.1998 73.0908Z" fill="white"/>
<path d="M134.35 96.6021L139.281 96.748L144.212 96.6021C144.421 99.946 143.774 103.327 142.877 104.983C142.665 105.409 142.323 105.756 141.901 105.974C140.445 106.816 138.095 106.816 136.648 105.974C136.221 105.751 135.879 105.393 135.675 104.956C134.781 103.29 134.14 99.9156 134.35 96.6021Z" fill="white"/>
<path d="M135.806 94.5833C133.876 95.699 133.863 97.5078 135.782 98.6235C137.7 99.7392 140.822 99.7361 142.755 98.6235C144.689 97.5109 144.698 95.699 142.777 94.5833C140.855 93.4677 137.736 93.4677 135.806 94.5833Z" fill="#EBEBEB"/>
<path d="M136.569 95.0273C135.049 95.8968 135.049 97.3073 136.551 98.1798C138.052 99.0523 140.484 99.0492 141.992 98.1798C143.5 97.3104 143.512 95.8968 142.008 95.0273C140.503 94.1579 138.077 94.1579 136.569 95.0273Z" fill="#E0E0E0"/>
<g opacity="0.15">
<path opacity="0.15" d="M136.569 95.0273C135.049 95.8968 135.049 97.3073 136.551 98.1798C138.052 99.0523 140.484 99.0492 141.992 98.1798C143.5 97.3104 143.512 95.8968 142.008 95.0273C140.503 94.1579 138.077 94.1579 136.569 95.0273Z" fill="black"/>
</g>
<path d="M141.795 86.5153C142.597 85.5181 143.528 84.6244 144.263 83.5786C144.765 82.8642 145.175 81.9887 144.972 81.1466C144.855 80.7575 144.632 80.4089 144.327 80.1402C144.022 79.8715 143.648 79.6936 143.248 79.6266C142.438 79.5061 141.613 79.6902 140.931 80.1434C140.256 80.5941 139.664 81.1576 139.18 81.8093C136.403 85.3261 135.09 89.7789 135.514 94.2399C135.524 94.7508 135.684 95.2475 135.973 95.6687C136.15 95.8765 136.383 96.0293 136.645 96.109C136.906 96.1887 137.184 96.1921 137.448 96.1186C138.791 95.7204 138.612 93.9055 138.831 92.8385C139.133 91.3736 139.653 89.9624 140.375 88.6524C140.784 87.8993 141.259 87.1841 141.795 86.5153Z" fill="#0092AC"/>
<path opacity="0.2" d="M141.795 86.5153C142.597 85.5181 143.528 84.6244 144.263 83.5786C144.765 82.8642 145.175 81.9887 144.972 81.1466C144.855 80.7575 144.632 80.4089 144.327 80.1402C144.022 79.8715 143.648 79.6936 143.248 79.6266C142.438 79.5061 141.613 79.6902 140.931 80.1434C140.256 80.5941 139.664 81.1576 139.18 81.8093C136.403 85.3261 135.09 89.7789 135.514 94.2399C135.524 94.7508 135.684 95.2475 135.973 95.6687C136.15 95.8765 136.383 96.0293 136.645 96.109C136.906 96.1887 137.184 96.1921 137.448 96.1186C138.791 95.7204 138.612 93.9055 138.831 92.8385C139.133 91.3736 139.653 89.9624 140.375 88.6524C140.784 87.8993 141.259 87.1841 141.795 86.5153Z" fill="white"/>
<path d="M137.362 94.7566C137.388 94.7512 137.412 94.7371 137.429 94.7167C137.446 94.6963 137.456 94.6707 137.457 94.6441C137.551 92.4888 138.253 85.132 143.324 80.9641C143.336 80.9547 143.346 80.9428 143.354 80.9293C143.361 80.9157 143.366 80.9008 143.367 80.8854C143.369 80.87 143.367 80.8544 143.362 80.8397C143.357 80.825 143.349 80.8115 143.339 80.8C143.33 80.7879 143.318 80.7778 143.304 80.7703C143.291 80.7628 143.276 80.758 143.261 80.7563C143.246 80.7546 143.23 80.756 143.215 80.7604C143.201 80.7647 143.187 80.772 143.175 80.7817C138.028 85.0195 137.317 92.4645 137.223 94.6441C137.222 94.6751 137.233 94.7051 137.254 94.7278C137.275 94.7506 137.304 94.7642 137.335 94.7657L137.362 94.7566Z" fill="#F0F0F0"/>
<path d="M136.624 94.9876C136.73 95.4594 136.93 95.9048 137.213 96.2971C137.495 96.6895 137.854 97.0206 138.268 97.2707C139.044 97.64 139.907 97.7853 140.761 97.6902C141.625 97.588 142.474 97.3839 143.29 97.0822C143.698 96.9454 144.148 96.763 144.202 96.2583C144.208 96.1264 144.186 95.9947 144.136 95.8724C144.086 95.7501 144.01 95.6401 143.914 95.55C143.831 95.4686 143.744 95.3925 143.652 95.322C143.61 95.2905 143.578 95.2467 143.561 95.1966C143.545 95.1465 143.544 95.0925 143.559 95.0418C143.573 94.9911 143.604 94.9462 143.645 94.9132C143.686 94.8801 143.736 94.8605 143.789 94.8569C144.031 94.8404 144.271 94.8099 144.509 94.7657C145.068 94.6785 145.593 94.4422 146.029 94.0817C146.346 93.8015 146.586 93.446 146.729 93.0481C146.85 92.7076 146.887 92.282 146.628 92.0297C146.469 91.8968 146.275 91.8124 146.069 91.7865C145.89 91.747 145.707 91.7136 145.528 91.6862C145.476 91.6785 145.428 91.6541 145.391 91.6166C145.355 91.5791 145.331 91.5306 145.325 91.4786C145.318 91.4266 145.329 91.3738 145.355 91.3284C145.381 91.283 145.422 91.2474 145.47 91.2271L146.236 90.908C146.456 90.8364 146.656 90.7122 146.817 90.5462C146.916 90.3919 146.98 90.218 147.006 90.0363C147.031 89.8547 147.016 89.6698 146.963 89.4944C146.868 89.014 146.704 88.552 146.592 88.0777C146.456 87.6104 146.434 87.1173 146.528 86.6398C145.095 86.4803 143.644 86.577 142.245 86.9256C141.823 87.0131 141.425 87.187 141.074 87.4363C140.597 87.8193 140.466 88.3908 140.524 89.014C140.526 89.0393 140.519 89.0644 140.504 89.0851C140.49 89.1058 140.469 89.1208 140.444 89.1277C140.42 89.1345 140.394 89.1326 140.371 89.1224C140.348 89.1122 140.329 89.0944 140.317 89.0718L139.84 88.1598C139.768 88.0298 139.65 87.9322 139.508 87.887C139.367 87.8417 139.214 87.8523 139.08 87.9166C138.651 88.1315 138.27 88.4314 137.961 88.7982C137.79 88.9924 137.66 89.2189 137.578 89.4643C137.496 89.7097 137.464 89.969 137.484 90.227C137.543 90.936 137.662 91.6387 137.84 92.3276C137.851 92.3668 137.85 92.4087 137.836 92.4472C137.823 92.4857 137.797 92.5188 137.763 92.5416C137.729 92.5643 137.688 92.5756 137.648 92.5738C137.607 92.5719 137.567 92.557 137.536 92.5313H137.514C137.383 92.4296 137.218 92.3818 137.052 92.3975C136.621 92.4492 136.511 92.887 136.481 93.2609C136.459 93.8401 136.507 94.4198 136.624 94.9876Z" fill="#0092AC"/>
<path opacity="0.2" d="M136.624 94.9876C136.73 95.4594 136.93 95.9048 137.213 96.2971C137.495 96.6895 137.854 97.0206 138.268 97.2707C139.044 97.64 139.907 97.7853 140.761 97.6902C141.625 97.588 142.474 97.3839 143.29 97.0822C143.698 96.9454 144.148 96.763 144.202 96.2583C144.208 96.1264 144.186 95.9947 144.136 95.8724C144.086 95.7501 144.01 95.6401 143.914 95.55C143.831 95.4686 143.744 95.3925 143.652 95.322C143.61 95.2905 143.578 95.2467 143.561 95.1966C143.545 95.1465 143.544 95.0925 143.559 95.0418C143.573 94.9911 143.604 94.9462 143.645 94.9132C143.686 94.8801 143.736 94.8605 143.789 94.8569C144.031 94.8404 144.271 94.8099 144.509 94.7657C145.068 94.6785 145.593 94.4422 146.029 94.0817C146.346 93.8015 146.586 93.446 146.729 93.0481C146.85 92.7076 146.887 92.282 146.628 92.0297C146.469 91.8968 146.275 91.8124 146.069 91.7865C145.89 91.747 145.707 91.7136 145.528 91.6862C145.476 91.6785 145.428 91.6541 145.391 91.6166C145.355 91.5791 145.331 91.5306 145.325 91.4786C145.318 91.4266 145.329 91.3738 145.355 91.3284C145.381 91.283 145.422 91.2474 145.47 91.2271L146.236 90.908C146.456 90.8364 146.656 90.7122 146.817 90.5462C146.916 90.3919 146.98 90.218 147.006 90.0363C147.031 89.8547 147.016 89.6698 146.963 89.4944C146.868 89.014 146.704 88.552 146.592 88.0777C146.456 87.6104 146.434 87.1173 146.528 86.6398C145.095 86.4803 143.644 86.577 142.245 86.9256C141.823 87.0131 141.425 87.187 141.074 87.4363C140.597 87.8193 140.466 88.3908 140.524 89.014C140.526 89.0393 140.519 89.0644 140.504 89.0851C140.49 89.1058 140.469 89.1208 140.444 89.1277C140.42 89.1345 140.394 89.1326 140.371 89.1224C140.348 89.1122 140.329 89.0944 140.317 89.0718L139.84 88.1598C139.768 88.0298 139.65 87.9322 139.508 87.887C139.367 87.8417 139.214 87.8523 139.08 87.9166C138.651 88.1315 138.27 88.4314 137.961 88.7982C137.79 88.9924 137.66 89.2189 137.578 89.4643C137.496 89.7097 137.464 89.969 137.484 90.227C137.543 90.936 137.662 91.6387 137.84 92.3276C137.851 92.3668 137.85 92.4087 137.836 92.4472C137.823 92.4857 137.797 92.5188 137.763 92.5416C137.729 92.5643 137.688 92.5756 137.648 92.5738C137.607 92.5719 137.567 92.557 137.536 92.5313H137.514C137.383 92.4296 137.218 92.3818 137.052 92.3975C136.621 92.4492 136.511 92.887 136.481 93.2609C136.459 93.8401 136.507 94.4198 136.624 94.9876Z" fill="black"/>
<path opacity="0.2" d="M136.624 94.9876C136.73 95.4594 136.93 95.9048 137.213 96.2971C137.495 96.6895 137.854 97.0206 138.268 97.2707C139.044 97.64 139.907 97.7853 140.761 97.6902C141.625 97.588 142.474 97.3839 143.29 97.0822C143.698 96.9454 144.148 96.763 144.202 96.2583C144.208 96.1264 144.186 95.9947 144.136 95.8724C144.086 95.7501 144.01 95.6401 143.914 95.55C143.831 95.4686 143.744 95.3925 143.652 95.322C143.61 95.2905 143.578 95.2467 143.561 95.1966C143.545 95.1465 143.544 95.0925 143.559 95.0418C143.573 94.9911 143.604 94.9462 143.645 94.9132C143.686 94.8801 143.736 94.8605 143.789 94.8569C144.031 94.8404 144.271 94.8099 144.509 94.7657C145.068 94.6785 145.593 94.4422 146.029 94.0817C146.346 93.8015 146.586 93.446 146.729 93.0481C146.85 92.7076 146.887 92.282 146.628 92.0297C146.469 91.8968 146.275 91.8124 146.069 91.7865C145.89 91.747 145.707 91.7136 145.528 91.6862C145.476 91.6785 145.428 91.6541 145.391 91.6166C145.355 91.5791 145.331 91.5306 145.325 91.4786C145.318 91.4266 145.329 91.3738 145.355 91.3284C145.381 91.283 145.422 91.2474 145.47 91.2271L146.236 90.908C146.456 90.8364 146.656 90.7122 146.817 90.5462C146.916 90.3919 146.98 90.218 147.006 90.0363C147.031 89.8547 147.016 89.6698 146.963 89.4944C146.868 89.014 146.704 88.552 146.592 88.0777C146.456 87.6104 146.434 87.1173 146.528 86.6398C145.095 86.4803 143.644 86.577 142.245 86.9256C141.823 87.0131 141.425 87.187 141.074 87.4363C140.597 87.8193 140.466 88.3908 140.524 89.014C140.526 89.0393 140.519 89.0644 140.504 89.0851C140.49 89.1058 140.469 89.1208 140.444 89.1277C140.42 89.1345 140.394 89.1326 140.371 89.1224C140.348 89.1122 140.329 89.0944 140.317 89.0718L139.84 88.1598C139.768 88.0298 139.65 87.9322 139.508 87.887C139.367 87.8417 139.214 87.8523 139.08 87.9166C138.651 88.1315 138.27 88.4314 137.961 88.7982C137.79 88.9924 137.66 89.2189 137.578 89.4643C137.496 89.7097 137.464 89.969 137.484 90.227C137.543 90.936 137.662 91.6387 137.84 92.3276C137.851 92.3668 137.85 92.4087 137.836 92.4472C137.823 92.4857 137.797 92.5188 137.763 92.5416C137.729 92.5643 137.688 92.5756 137.648 92.5738C137.607 92.5719 137.567 92.557 137.536 92.5313H137.514C137.383 92.4296 137.218 92.3818 137.052 92.3975C136.621 92.4492 136.511 92.887 136.481 93.2609C136.459 93.8401 136.507 94.4198 136.624 94.9876Z" fill="white"/>
<path d="M138.895 97.1552C139.163 96.0041 139.549 94.8835 140.047 93.8112C140.047 93.7946 140.051 93.7783 140.058 93.7632C140.064 93.748 140.074 93.7344 140.086 93.7231L140.168 93.5498C140.028 92.2151 139.64 90.9183 139.025 89.7255C139.011 89.6982 139.007 89.6664 139.015 89.6365C139.023 89.6065 139.042 89.5807 139.068 89.5643C139.095 89.5491 139.128 89.5453 139.158 89.5538C139.188 89.5624 139.214 89.5826 139.229 89.6099C139.805 90.7211 140.186 91.9233 140.354 93.1637C141.33 91.2059 142.886 88.9077 145.288 87.2479C145.314 87.2303 145.345 87.2236 145.376 87.2293C145.407 87.235 145.434 87.2526 145.452 87.2783C145.46 87.2908 145.467 87.305 145.47 87.3199C145.473 87.3348 145.473 87.3502 145.47 87.3652C145.467 87.3801 145.462 87.3944 145.453 87.4071C145.445 87.4199 145.434 87.4308 145.421 87.4394C142.944 89.1661 141.381 91.5555 140.433 93.5376C141.711 92.9602 143.13 92.768 144.516 92.9843C144.546 92.991 144.573 93.0092 144.591 93.0353C144.608 93.0614 144.615 93.0932 144.61 93.1242C144.605 93.1471 144.594 93.1682 144.577 93.1845C144.56 93.2007 144.539 93.2115 144.516 93.2154H144.47C144.449 93.2154 142.208 92.805 140.269 93.8872C139.775 94.9485 139.392 96.0579 139.126 97.1978C139.12 97.2204 139.109 97.241 139.092 97.2572C139.075 97.2733 139.054 97.2844 139.031 97.289H138.986C138.956 97.2831 138.93 97.2658 138.913 97.2408C138.896 97.2157 138.889 97.185 138.895 97.1552Z" fill="#F0F0F0"/>
<path d="M26.5483 106.677L20.9365 106.841L15.3277 106.677C15.0845 110.464 15.8262 114.325 16.8477 116.213C17.0887 116.699 17.4785 117.095 17.9603 117.344C19.6141 118.301 22.2893 118.301 23.9339 117.344C24.4221 117.092 24.8125 116.684 25.0435 116.186C26.0558 114.286 26.7885 110.446 26.5483 106.677Z" fill="white"/>
<path d="M24.8915 104.378C27.0894 105.649 27.1016 107.704 24.9189 108.975C22.7362 110.246 19.1824 110.243 16.9845 108.975C14.7866 107.707 14.7744 105.649 16.9571 104.378C19.1398 103.108 22.6936 103.111 24.8915 104.378Z" fill="#EBEBEB"/>
<path d="M24.016 104.88C25.7306 105.871 25.7397 107.476 24.0373 108.467C22.3349 109.458 19.5624 109.455 17.8478 108.467C16.1333 107.479 16.1242 105.871 17.8266 104.88C19.529 103.889 22.3075 103.895 24.016 104.88Z" fill="#E0E0E0"/>
<g opacity="0.15">
<path opacity="0.15" d="M24.016 104.88C25.7306 105.871 25.7397 107.476 24.0373 108.467C22.3349 109.458 19.5624 109.455 17.8478 108.467C16.1333 107.479 16.1242 105.871 17.8266 104.88C19.529 103.889 22.3075 103.895 24.016 104.88Z" fill="black"/>
</g>
<path d="M30.1629 82.7366C17.5195 86.8771 17.3949 95.3343 20.2555 101.357C20.9729 102.573 23.1496 103.232 25.0405 95.7417L21.7208 96.1673L25.5907 94.2035L26.5969 91.1999L23.3685 91.4401L27.4664 89.7164C28.22 87.3363 29.1206 85.0052 30.1629 82.7366Z" fill="#0092AC"/>
<path opacity="0.2" d="M30.1629 82.7366C17.5195 86.8771 17.3949 95.3343 20.2555 101.357C20.9729 102.573 23.1496 103.232 25.0405 95.7417L21.7208 96.1673L25.5907 94.2035L26.5969 91.1999L23.3685 91.4401L27.4664 89.7164C28.22 87.3363 29.1206 85.0052 30.1629 82.7366Z" fill="black"/>
<path opacity="0.2" d="M30.1629 82.7366C17.5195 86.8771 17.3949 95.3343 20.2555 101.357C20.9729 102.573 23.1496 103.232 25.0405 95.7417L21.7208 96.1673L25.5907 94.2035L26.5969 91.1999L23.3685 91.4401L27.4664 89.7164C28.22 87.3363 29.1206 85.0052 30.1629 82.7366Z" fill="white"/>
<path d="M26.5848 84.8523C19.9181 89.9109 19.3162 95.7142 21.201 101.77C20.5352 96.4377 19.8147 91.0448 26.5848 84.8523Z" fill="white"/>
<path d="M8.74911 91.3276C21.2131 93.0817 22.7331 100.94 21.0672 107.023C20.6021 108.279 18.6838 109.251 15.6773 102.588L18.848 102.448L14.896 101.25L13.4611 98.6176L16.5011 98.3136L12.4002 97.4016C11.308 95.3044 10.0888 93.276 8.74911 91.3276Z" fill="#0092AC"/>
<path opacity="0.2" d="M8.74911 91.3276C21.2131 93.0817 22.7331 100.94 21.0672 107.023C20.6021 108.279 18.6838 109.251 15.6773 102.588L18.848 102.448L14.896 101.25L13.4611 98.6176L16.5011 98.3136L12.4002 97.4016C11.308 95.3044 10.0888 93.276 8.74911 91.3276Z" fill="white"/>
<path opacity="0.1" d="M8.74911 91.3276C21.2131 93.0817 22.7331 100.94 21.0672 107.023C20.6021 108.279 18.6838 109.251 15.6773 102.588L18.848 102.448L14.896 101.25L13.4611 98.6176L16.5011 98.3136L12.4002 97.4016C11.308 95.3044 10.0888 93.276 8.74911 91.3276Z" fill="black"/>
<path d="M12.4305 92.72C19.4803 96.3254 21.0033 101.627 20.2555 107.579C19.991 102.487 19.76 97.3469 12.4305 92.72Z" fill="white"/>
<path d="M33.8078 94.2734C22.3805 94.4589 20.1278 101.372 20.9486 107.041C21.2283 108.224 22.8486 109.315 26.3051 103.646L23.4688 103.153L27.1441 102.524L28.7341 100.32L26.0224 99.6968L29.8224 99.3229C31.0459 97.5595 32.3769 95.8731 33.8078 94.2734Z" fill="#0092AC"/>
<path d="M30.3362 95.1003C23.5782 97.5597 21.6114 102.171 21.6205 107.619C22.4261 103.074 23.2043 98.4656 30.3362 95.1003Z" fill="white"/>
<path opacity="0.2" d="M33.8078 94.2734C22.3805 94.4589 20.1278 101.372 20.9486 107.041C21.2283 108.224 22.8486 109.315 26.3051 103.646L23.4688 103.153L27.1441 102.524L28.7341 100.32L26.0224 99.6968L29.8224 99.3229C31.0459 97.5595 32.3769 95.8731 33.8078 94.2734Z" fill="white"/>
<path d="M99.712 82.8523C96.7115 84.9377 93.328 86.3787 90.8261 89.1725C86.1475 94.3891 86.0381 102.786 89.7134 108.753C93.3888 114.721 100.226 118.305 107.187 119.126C114.483 119.989 122.153 117.97 127.884 113.35C133.614 108.729 137.259 101.539 137.256 94.1976C137.253 86.856 133.486 79.5205 127.327 75.5016C121.706 71.8536 113.632 70.7926 107.993 74.9848C105.144 77.1128 103.241 80.2349 100.393 82.3629C100.186 82.527 99.9552 82.6881 99.712 82.8523Z" fill="#0092AC"/>
<path opacity="0.2" d="M99.712 82.8523C96.7115 84.9377 93.328 86.3787 90.8261 89.1725C86.1475 94.3891 86.0381 102.786 89.7134 108.753C93.3888 114.721 100.226 118.305 107.187 119.126C114.483 119.989 122.153 117.97 127.884 113.35C133.614 108.729 137.259 101.539 137.256 94.1976C137.253 86.856 133.486 79.5205 127.327 75.5016C121.706 71.8536 113.632 70.7926 107.993 74.9848C105.144 77.1128 103.241 80.2349 100.393 82.3629C100.186 82.527 99.9552 82.6881 99.712 82.8523Z" fill="black"/>
<path opacity="0.1" d="M99.712 82.8523C96.7115 84.9377 93.328 86.3787 90.8261 89.1725C86.1475 94.3891 86.0381 102.786 89.7134 108.753C93.3888 114.721 100.226 118.305 107.187 119.126C114.483 119.989 122.153 117.97 127.884 113.35C133.614 108.729 137.259 101.539 137.256 94.1976C137.253 86.856 133.486 79.5205 127.327 75.5016C121.706 71.8536 113.632 70.7926 107.993 74.9848C105.144 77.1128 103.241 80.2349 100.393 82.3629C100.186 82.527 99.9552 82.6881 99.712 82.8523Z" fill="white"/>
<path opacity="0.1" d="M100.946 113.425C100.946 113.374 100.961 113.325 100.968 113.276C101.218 111.651 101.969 110.145 103.116 108.967C104.263 107.789 105.749 106.998 107.367 106.704C110.267 106.152 113.046 105.088 115.575 103.564C117.365 102.481 119.059 101.153 121.068 100.566C123.024 100.005 125.112 100.126 126.99 100.91C125.3 99.1374 122.406 98.3561 120.092 99.1587C121.691 96.7054 123.102 94.0667 123.655 91.1909C124.208 88.315 123.813 85.1565 122.08 82.7974C121.342 81.7887 120.39 80.9563 119.291 80.3603C118.193 79.7643 116.976 79.4195 115.728 79.3509C114.48 79.2822 113.232 79.4914 112.075 79.9634C110.918 80.4353 109.88 81.1582 109.036 82.08C107.318 83.9587 106.351 86.6035 105.224 88.8835C104.412 90.5221 103.576 92.2001 102.238 93.4435C100.226 95.3283 97.3256 96.0062 95.2463 97.8089C92.8781 99.8549 91.8567 103.123 91.8475 106.251C91.884 108.362 92.1905 110.459 92.7595 112.492C95.2079 114.83 98.1291 116.616 101.326 117.73C100.863 116.345 100.733 114.87 100.946 113.425Z" fill="black"/>
<path d="M133.35 93.1852C133.254 88.1081 131.363 83.2291 128.011 79.4149C124.658 75.6007 120.063 73.0983 115.04 72.3521C114.343 72.4214 113.651 72.5371 112.969 72.6986C118.252 72.979 123.233 75.2499 126.908 79.0543C130.584 82.8587 132.683 87.9142 132.781 93.2034C132.918 100.046 129.568 107.023 123.825 111.863C119.326 115.657 113.349 118.174 106.777 119.077C106.917 119.098 107.06 119.116 107.2 119.132C107.789 119.201 108.382 119.25 108.978 119.284C114.815 118.15 120.101 115.745 124.178 112.292C130.063 107.339 133.486 100.198 133.35 93.1852Z" fill="white"/>
<path d="M98.2954 118.457L99.0493 119.949C100.11 118.964 100.305 118.171 100.305 118.171C99.9613 116.955 99.56 115.718 99.3594 115.116C99.259 115.955 98.6875 116.675 98.4474 117.493C98.3591 117.807 98.308 118.131 98.2954 118.457Z" fill="#37474F"/>
<path d="M98.3318 119.986L99.0493 119.949L98.2954 118.457C98.2741 118.961 98.3166 119.472 98.3318 119.986Z" fill="#263238"/>
<path d="M98.8791 113.356C98.619 112.979 98.3205 112.631 97.9883 112.316C98.1703 112.968 98.165 113.658 97.9731 114.307C97.7512 115.17 97.3469 115.982 97.1432 116.852C96.897 117.91 96.9547 119.046 96.5048 120.038C96.2824 120.518 95.9509 120.941 95.5366 121.271C95.1223 121.602 94.6368 121.831 94.1184 121.941C93.7362 122.047 93.3275 121.998 92.9815 121.804C92.8361 121.7 92.7292 121.552 92.6775 121.381C92.452 121.852 92.178 122.299 91.8597 122.713C91.5071 123.169 91.0663 123.673 91.1635 124.233C91.2209 124.466 91.3463 124.678 91.5237 124.84C91.7012 125.002 91.9229 125.108 92.1607 125.145C92.6368 125.212 93.1219 125.171 93.5803 125.026C94.588 124.809 95.5499 124.417 96.4227 123.868C97.3025 123.306 97.9452 122.441 98.2285 121.436C98.332 120.952 98.3688 120.456 98.3379 119.962C98.3379 119.451 98.2802 118.937 98.3015 118.442C98.3131 118.116 98.3632 117.792 98.4504 117.478C98.6936 116.66 99.2651 115.94 99.3624 115.101C99.3624 115.055 99.3776 115.012 99.3807 114.967C99.3874 114.39 99.2119 113.826 98.8791 113.356Z" fill="#455A64"/>
<path opacity="0.1" d="M98.8791 113.356C98.619 112.979 98.3205 112.631 97.9883 112.316C98.1703 112.968 98.165 113.658 97.9731 114.307C97.7512 115.17 97.3469 115.982 97.1432 116.852C96.897 117.91 96.9547 119.046 96.5048 120.038C96.2824 120.518 95.9509 120.941 95.5366 121.271C95.1223 121.602 94.6368 121.831 94.1184 121.941C93.7362 122.047 93.3275 121.998 92.9815 121.804C92.8361 121.7 92.7292 121.552 92.6775 121.381C92.452 121.852 92.178 122.299 91.8597 122.713C91.5071 123.169 91.0663 123.673 91.1635 124.233C91.2209 124.466 91.3463 124.678 91.5237 124.84C91.7012 125.002 91.9229 125.108 92.1607 125.145C92.6368 125.212 93.1219 125.171 93.5803 125.026C94.588 124.809 95.5499 124.417 96.4227 123.868C97.3025 123.306 97.9452 122.441 98.2285 121.436C98.332 120.952 98.3688 120.456 98.3379 119.962C98.3379 119.451 98.2802 118.937 98.3015 118.442C98.3131 118.116 98.3632 117.792 98.4504 117.478C98.6936 116.66 99.2651 115.94 99.3624 115.101C99.3624 115.055 99.3776 115.012 99.3807 114.967C99.3874 114.39 99.2119 113.826 98.8791 113.356Z" fill="black"/>
<path d="M94.1184 121.94C94.6367 121.831 95.1223 121.601 95.5366 121.271C95.9508 120.941 96.2824 120.518 96.5048 120.037C96.9547 119.046 96.897 117.909 97.1432 116.851C97.3469 115.982 97.7512 115.17 97.9731 114.307C98.165 113.658 98.1703 112.968 97.9883 112.316C97.9032 112.231 97.8181 112.146 97.7299 112.063C96.4471 112.726 94.9939 113.279 93.8235 114.125C93.8487 115.621 93.7531 117.118 93.5378 118.599C93.3788 119.562 93.0872 120.498 92.6714 121.381C92.7231 121.552 92.8301 121.7 92.9754 121.804C93.1475 121.901 93.3371 121.962 93.5333 121.986C93.7294 122.009 93.9282 121.994 94.1184 121.94Z" fill="#AB6160"/>
<path d="M89.7621 117.995C89.5523 119.232 88.6039 121.752 88.6039 121.752C88.6039 121.752 93.0453 121.931 93.1456 121.728L94.4498 119.709L89.7621 117.995Z" fill="#C48281"/>
<path d="M103.056 88.543L91.732 94.8479C90.7049 95.4202 89.8833 96.3004 89.3831 97.3646C88.883 98.4287 88.7295 99.623 88.9443 100.779L91.1423 112.635L89.3395 118.365C90.896 120.451 94.468 120.557 94.468 120.557C96.4623 116.56 97.9245 114.863 99.0554 111.513C100.186 108.163 100.943 105.853 100.943 105.853L110.367 103.281C112.52 102.696 114.447 101.478 115.901 99.7867C117.355 98.0949 118.269 96.0061 118.524 93.79C118.685 92.3673 118.691 91.3975 118.691 91.3975L103.056 88.543Z" fill="#455A64"/>
<path opacity="0.2" d="M102.296 92.2732C102.298 93.5379 102.747 94.7612 103.564 95.7266L96.4227 100.186C95.2483 100.921 94.3782 102.054 93.9725 103.378L91.1422 112.635L93.6958 102.326C93.9895 101.141 94.736 100.117 95.7752 99.475L102.305 95.4561C101.551 93.5713 102.296 92.2732 102.296 92.2732Z" fill="black"/>
<path d="M91.0146 127.498L91.1179 129.163C92.4829 128.677 92.9723 128.023 92.9723 128.023C93.1334 126.768 93.252 125.473 93.3067 124.841C92.8811 125.573 92.0725 126.011 91.5283 126.665C91.3227 126.92 91.1501 127.199 91.0146 127.498Z" fill="#37474F"/>
<path d="M90.4461 128.914L91.1179 129.163L91.0146 127.498C90.7957 127.951 90.6315 128.44 90.4461 128.914Z" fill="#263238"/>
<path d="M93.553 123.032C93.462 122.584 93.3255 122.147 93.1456 121.728C93.0559 122.398 92.7799 123.03 92.3491 123.552C91.805 124.257 91.1118 124.844 90.5859 125.561C89.9414 126.44 89.5462 127.507 88.7467 128.239C88.3526 128.595 87.8813 128.853 87.37 128.995C86.8587 129.136 86.3215 129.156 85.801 129.054C85.4088 129 85.0537 128.794 84.813 128.48C84.717 128.328 84.6742 128.148 84.6914 127.969C84.2993 128.316 83.8725 128.622 83.4176 128.881C82.913 129.164 82.308 129.452 82.1742 130.015C82.1383 130.25 82.1721 130.491 82.2716 130.707C82.371 130.923 82.5316 131.105 82.7336 131.231C83.1443 131.48 83.6055 131.633 84.0834 131.681C85.096 131.877 86.1351 131.895 87.1538 131.732C88.1806 131.564 89.1093 131.023 89.7621 130.212C90.0488 129.808 90.2789 129.366 90.4461 128.899C90.6315 128.425 90.7957 127.935 91.0146 127.483C91.1503 127.185 91.3229 126.907 91.5283 126.653C92.0725 125.996 92.8811 125.558 93.3067 124.829C93.328 124.792 93.3554 124.756 93.3766 124.713C93.6114 124.185 93.6731 123.597 93.553 123.032Z" fill="#455A64"/>
<path d="M85.801 129.057C86.3215 129.159 86.8587 129.139 87.37 128.997C87.8813 128.856 88.3527 128.597 88.7467 128.242C89.5463 127.51 89.9415 126.443 90.5859 125.564C91.1119 124.847 91.8019 124.26 92.3491 123.555C92.78 123.033 93.0559 122.401 93.1456 121.731L93.0088 121.396C91.5679 121.503 90.0114 121.433 88.6039 121.755C88.0397 123.141 87.3636 124.479 86.5823 125.756C86.0591 126.58 85.4226 127.327 84.6914 127.975C84.6742 128.154 84.717 128.333 84.813 128.486C85.0543 128.799 85.4093 129.004 85.801 129.057Z" fill="#C48281"/>
<path d="M114.681 71.8018C116.527 67.5117 116.636 62.673 114.985 58.3042C114.456 56.924 113.708 55.5682 112.483 54.7261C110.914 53.6682 108.887 53.6834 106.996 53.7381C105.993 53.7685 104.968 53.7989 104.026 54.1455C103.556 54.305 103.132 54.5762 102.791 54.9357C102.449 55.2953 102.2 55.7325 102.065 56.2096C100.828 55.9816 99.5813 56.9575 99.2469 58.1704C98.9125 59.3834 99.3502 60.7027 100.119 61.6999C100.888 62.697 101.943 63.4114 103.026 64.065C102.375 64.4055 101.895 65.1898 101.67 65.889C101.445 66.5912 101.498 67.353 101.819 68.017C101.236 68.0229 100.669 68.2073 100.195 68.5454C99.7201 68.8836 99.3607 69.3591 99.1648 69.9079C99.0068 70.4572 98.9826 71.0364 99.0942 71.597C99.2058 72.1576 99.4499 72.6833 99.8062 73.1303C100.532 74.0217 101.533 74.6481 102.652 74.9117C103.765 75.1718 104.916 75.2335 106.05 75.0941C107.224 76.2311 109.373 76.2067 110.848 75.5015C112.322 74.7962 114.027 73.2975 114.681 71.8018Z" fill="#263238"/>
<path d="M104.178 68.9473H103.889C101.959 68.9685 99.5144 70.2849 98.3197 73.6532L93.6806 82.6394L98.9763 84.9863L101.873 76.5047L104.178 68.9473Z" fill="#C48281"/>
<path d="M100.457 74.9116C100.089 75.9726 100.065 77.1157 100.007 78.2557C99.9491 79.3957 99.8184 80.7302 99.3046 81.7304C98.7385 81.3382 98.0605 81.1399 97.3723 81.1652C96.684 81.1904 96.0224 81.4377 95.4864 81.8702C95.1012 82.1954 94.806 82.6141 94.6291 83.0862L98.9763 85.0136L101.873 76.532L103.299 71.8564C102.647 72.1528 102.06 72.5753 101.572 73.0997C101.085 73.6241 100.705 74.2399 100.457 74.9116Z" fill="#AB6160"/>
<path d="M99.0249 83.369C98.8244 82.8685 98.4989 82.4276 98.0795 82.0886C97.6602 81.7496 97.1609 81.5237 96.6294 81.4325C95.5685 81.2593 94.3677 81.8156 93.6806 82.6486C93.103 83.3447 93.1943 84.2902 93.559 85.1201C93.8639 85.7641 94.3824 86.2826 95.0264 86.5874C95.6705 86.8923 96.4002 86.9646 97.0915 86.7921C98.4595 86.406 99.5417 84.6914 99.0249 83.369Z" fill="#C48281"/>
<path d="M104.664 68.7831C102.621 69.1084 101.354 74.2764 100.691 76.2402C100.004 78.2679 100.937 79.7393 101.977 80.9644C102.165 81.187 102.304 81.4463 102.386 81.7258C102.469 82.0053 102.492 82.2989 102.454 82.5877L100.32 90.5738C106.187 94.9301 116.025 92.8204 118.694 91.3977C118.725 88.6078 118.136 85.8459 116.97 83.3113C116.184 81.6742 115.741 79.8938 115.669 78.0794L115.569 75.1489L116.277 70.0903L111.182 68.8743L106.692 68.6737C106.014 68.6717 105.337 68.7082 104.664 68.7831Z" fill="#0092AC"/>
<path opacity="0.4" d="M104.664 68.7831C102.621 69.1084 101.354 74.2764 100.691 76.2402C100.004 78.2679 100.937 79.7393 101.977 80.9644C102.165 81.187 102.304 81.4463 102.386 81.7258C102.469 82.0053 102.492 82.2989 102.454 82.5877L100.32 90.5738C106.187 94.9301 116.025 92.8204 118.694 91.3977C118.725 88.6078 118.136 85.8459 116.97 83.3113C116.184 81.6742 115.741 79.8938 115.669 78.0794L115.569 75.1489L116.277 70.0903L111.182 68.8743L106.692 68.6737C106.014 68.6717 105.337 68.7082 104.664 68.7831Z" fill="black"/>
<path d="M104.619 91.8566C104.619 91.8566 104.619 91.8566 104.619 91.8384C104.619 91.8201 104.619 91.8201 104.619 91.8019V91.7836V91.7684V91.7502L101.153 85.2963V85.278V85.2598V85.2416L101.138 85.2203V85.199C101.123 85.1777 101.123 85.1777 101.107 85.1565L101.089 85.1382L101.074 85.1169V85.1017V85.0865V85.0713L101.022 85.0257H101.004H100.989H100.971H100.949L100.928 85.0105H100.904L96.368 82.3049H96.3437H96.3224H96.2981H96.2768H96.2555H96.2342H96.216H96.1947H96.1704H96.1491H96.1248H96.064C96.0415 82.3055 96.0199 82.3141 96.0032 82.3293L95.529 82.8734H95.5442C95.5046 82.9038 95.5016 82.9677 95.5594 83.0741L99.025 89.528C99.219 89.8268 99.4817 90.0748 99.791 90.2515L103.776 92.495C103.98 92.6105 104.105 92.6136 104.123 92.5284C104.123 92.5284 104.123 92.5588 104.123 92.5649L104.6 92.0208C104.602 92.0127 104.602 92.0045 104.6 91.9964C104.602 91.9894 104.602 91.9822 104.6 91.9752L104.619 91.8566ZM95.6323 82.7609C95.6323 82.7609 95.6323 82.7609 95.6597 82.7609H95.6749H95.6323ZM100.192 85.3358C100.229 85.3662 100.268 85.3966 100.302 85.43C100.277 85.3966 100.238 85.3662 100.201 85.3358H100.192ZM100.442 85.579L100.49 85.6307L100.442 85.579ZM104.141 92.416C104.136 92.37 104.121 92.3256 104.099 92.2852C104.119 92.3221 104.134 92.3622 104.141 92.4038C104.141 92.4038 104.138 92.3977 104.141 92.416Z" fill="#455A64"/>
<path opacity="0.15" d="M104.619 91.8567C104.619 91.8567 104.619 91.8567 104.619 91.8385C104.619 91.8202 104.619 91.8202 104.619 91.802V91.7838V91.7685V91.7503L101.153 85.2964L100.624 85.8193L104.093 92.2732C104.113 92.31 104.128 92.3501 104.135 92.3917C104.139 92.4042 104.139 92.4174 104.137 92.4301C104.134 92.4429 104.128 92.4547 104.12 92.4647L104.597 91.9205C104.599 91.9125 104.599 91.9043 104.597 91.8962C104.599 91.8892 104.599 91.882 104.597 91.8749L104.619 91.8567Z" fill="white"/>
<path opacity="0.2" d="M101.095 85.2568V85.2385V85.2203L101.08 85.199V85.1777C101.065 85.1564 101.065 85.1564 101.05 85.1352L101.031 85.1169L101.016 85.0957V85.0804V85.0652V85.05L100.964 85.0044H100.946H100.931H100.913H100.892L100.87 84.9892H100.846L96.368 82.3049H96.3437H96.3224H96.2981H96.2768H96.2555H96.2342H96.216H96.1947H96.1704H96.1491H96.1248H96.064C96.0415 82.3055 96.0199 82.3141 96.0032 82.3293L95.529 82.8734C95.5513 82.8491 95.5908 82.843 95.6475 82.8552C95.7244 82.8751 95.7981 82.9058 95.8664 82.9464L99.8518 85.1899C99.9319 85.2331 100.008 85.2829 100.08 85.3388C100.156 85.3975 100.229 85.4604 100.299 85.5273C100.366 85.5896 100.429 85.6567 100.487 85.728C100.537 85.7864 100.581 85.8495 100.618 85.9164L101.095 85.3723V85.2568Z" fill="white"/>
<path d="M118.232 71.7804C117.666 70.8106 116.925 70.0658 115.8 69.9807C115.8 69.9807 113.976 70.9292 113.976 75.2338L114.097 86.0046C113.833 86.111 113.568 86.2234 113.307 86.3329C111.083 87.289 108.759 87.9916 106.379 88.4274C105.137 87.4415 103.592 86.9171 102.007 86.9439L102.594 88.0383C101.481 88.7527 98.9642 87.4668 98.9642 87.4668C98.7787 89.0354 99.7971 90.6649 101.147 91.4887C102.497 92.3126 115.368 91.1026 118.098 89.3364C119.895 88.1751 119.469 77.07 119.469 77.07C119.593 75.2229 119.162 73.3809 118.232 71.7804Z" fill="#C48281"/>
<path d="M96.2434 84.208C96.1575 84.6316 96.1086 85.0619 96.0974 85.4939C96.1972 86.5233 96.6331 87.4912 97.3378 88.2482C97.4838 88.4144 97.6671 88.5436 97.8728 88.6251C97.9736 88.6645 98.0831 88.6762 98.19 88.6591C98.2969 88.642 98.3973 88.5967 98.4808 88.5278C98.6319 88.347 98.709 88.1157 98.6966 87.8803C98.7309 87.5318 98.7114 87.1802 98.6389 86.8376C98.5677 86.4912 98.372 86.1829 98.0886 85.9712C97.8699 85.8418 97.6361 85.7397 97.3925 85.6672C97.1586 85.5647 96.9508 85.411 96.7845 85.2173L96.2434 84.208Z" fill="#C48281"/>
<path d="M106.677 66.6763V70.7438C106.278 71.1208 105.895 71.5524 105.859 72.0905C105.852 72.3481 105.916 72.6027 106.044 72.8263C106.172 73.0499 106.36 73.2339 106.585 73.3582C107.045 73.6016 107.583 73.654 108.081 73.5041C108.574 73.3521 109.026 73.0901 109.404 72.738C109.939 72.2435 110.37 71.6475 110.673 70.9847C110.976 70.3219 111.143 69.6055 111.167 68.8772V64.752L106.677 66.6763Z" fill="#C48281"/>
<path d="M110.993 64.752C110.568 66.9894 109.695 68.9289 106.677 69.616V66.6611L110.993 64.752Z" fill="#AB6160"/>
<path d="M109.939 62.3991C109.894 62.7575 109.894 63.1199 109.939 63.4783C109.988 63.7489 110.123 63.9962 110.325 64.1836C110.423 64.2726 110.541 64.336 110.669 64.3684C110.798 64.4007 110.932 64.4009 111.06 64.3691C110.975 64.0165 111.029 63.6446 111.212 63.3311C111.394 63.0176 111.691 62.7865 112.039 62.6861C112.388 62.5858 112.761 62.6238 113.083 62.7924C113.404 62.9609 113.647 63.247 113.763 63.5908C113.835 63.8387 113.851 64.0993 113.81 64.3541C113.77 64.6089 113.674 64.8517 113.529 65.0652C113.235 65.4908 112.847 65.8425 112.395 66.0927C112.134 66.1918 111.847 66.1961 111.584 66.1049C111.321 66.0138 111.098 65.833 110.954 65.5942C109.656 67.3847 107.324 68.7831 105.084 68.6859C104.47 68.6785 103.872 68.4949 103.36 68.1569C102.491 67.5489 102.387 66.5548 102.241 65.582C102.031 64.3551 101.989 63.1053 102.117 61.8671C102.32 60.1586 103.007 58.4562 104.281 57.3071C105.184 60.9612 108.631 62.1803 109.939 62.3991Z" fill="#C48281"/>
<path d="M105.269 62.168L103.816 64.1166L105.26 64.5483L105.269 62.168Z" fill="#AB6160"/>
<path d="M106.604 65.4148L105.427 65.8404C105.51 65.9769 105.636 66.0827 105.784 66.1419C105.933 66.2011 106.097 66.2105 106.251 66.1687C106.387 66.1023 106.496 65.9912 106.561 65.854C106.625 65.7169 106.64 65.5618 106.604 65.4148Z" fill="#AB6160"/>
<path opacity="0.3" d="M106.604 65.4148L105.427 65.8404C105.51 65.9769 105.636 66.0827 105.784 66.1419C105.933 66.2011 106.097 66.2105 106.251 66.1687C106.387 66.1023 106.496 65.9912 106.561 65.854C106.625 65.7169 106.64 65.5618 106.604 65.4148Z" fill="black"/>
<path d="M105.859 66.1657C105.987 66.2037 106.123 66.2037 106.251 66.1657C106.358 66.1176 106.449 66.0394 106.513 65.9407C106.576 65.842 106.61 65.7269 106.61 65.6094C106.438 65.588 106.264 65.6335 106.124 65.7364C105.984 65.8393 105.889 65.9919 105.859 66.1627V66.1657Z" fill="#AB6160"/>
<path d="M107.391 62.4752C107.391 62.5595 107.366 62.6419 107.319 62.7119C107.272 62.782 107.206 62.8365 107.128 62.8687C107.05 62.9008 106.964 62.909 106.881 62.8924C106.799 62.8757 106.723 62.8348 106.663 62.775C106.604 62.7152 106.564 62.6391 106.548 62.5563C106.532 62.4736 106.54 62.3879 106.573 62.3102C106.606 62.2325 106.661 62.1662 106.731 62.1198C106.802 62.0734 106.884 62.049 106.968 62.0496C107.024 62.0496 107.079 62.0606 107.131 62.082C107.182 62.1034 107.229 62.1348 107.268 62.1744C107.308 62.214 107.339 62.2609 107.36 62.3125C107.381 62.3642 107.391 62.4194 107.391 62.4752Z" fill="#263238"/>
<path d="M103.825 62.32C103.824 62.4326 103.778 62.5401 103.697 62.6192C103.617 62.6982 103.509 62.7426 103.396 62.7426C103.284 62.7426 103.175 62.6977 103.096 62.6179C103.016 62.5381 102.971 62.4298 102.971 62.317C102.971 62.2041 103.016 62.0958 103.096 62.016C103.175 61.9362 103.284 61.8914 103.396 61.8914C103.453 61.8914 103.509 61.9024 103.561 61.924C103.613 61.9455 103.66 61.9771 103.7 62.0169C103.739 62.0567 103.771 62.104 103.792 62.156C103.814 62.208 103.825 62.2637 103.825 62.32Z" fill="#263238"/>
<path d="M103.418 60.6298L102.472 61.2773C102.432 61.1603 102.429 61.0339 102.463 60.915C102.496 60.796 102.565 60.6902 102.661 60.6115C102.776 60.5437 102.908 60.5094 103.042 60.5127C103.176 60.5159 103.306 60.5564 103.418 60.6298Z" fill="#263238"/>
<path d="M107.057 60.5933L107.996 61.2499C108.038 61.1335 108.043 61.007 108.011 60.8875C107.979 60.768 107.911 60.6611 107.817 60.5811C107.701 60.5121 107.569 60.4767 107.435 60.4789C107.301 60.481 107.17 60.5206 107.057 60.5933Z" fill="#263238"/>
</svg>
