<svg width="52" height="40" viewBox="0 0 52 40" fill="none" xmlns="http://www.w3.org/2000/svg">
<g clip-path="url(#clip0_896_31541)">
<path d="M5.47491 39.2187C4.63834 38.7889 3.9799 38.4124 4.01029 38.3815C4.1175 38.2766 8.11882 37.4336 10.913 36.928C16.9597 35.8343 24.1486 34.9589 31.3096 34.4449C34.2582 34.2325 44.9267 34.2259 46.7771 34.4341L47.9902 34.5715L46.6227 34.5924C44.1957 34.6298 38.6285 35.0138 34.2667 35.4453C26.01 36.2625 16.8314 37.7685 10.1912 39.3961C8.83551 39.7285 7.56167 40 7.36076 40C7.15985 40 6.31063 39.6485 5.47491 39.2187ZM17.018 31.0189C16.8939 30.6807 17.413 30.5291 17.6393 30.4333C18.6556 30.0027 19.3706 29.3022 19.6104 28.5017C19.7243 28.1185 20.0738 25.9528 20.3853 23.6896C20.6977 21.4265 20.9771 19.6764 21.0083 19.5731C21.0311 19.4973 21.0919 19.2274 21.4211 19.1983C22.261 19.1899 22.8849 19.2008 23.7451 19.2008C24.2203 19.1558 24.1275 19.6689 24.0903 19.9979C24.0523 20.4136 23.9392 21.2157 23.8075 22.1936C23.6463 23.3873 23.4057 25.1707 23.2723 26.1569C22.9735 28.3743 22.8081 29.0573 22.2906 30.1993C21.676 31.5579 20.7356 32.3475 19.0304 32.9098C18.686 33.0164 17.6992 33.3471 17.5911 33.053C17.3683 32.3475 17.2104 31.7353 17.018 31.0189ZM36.5949 30.2751C35.4595 29.8228 35.5127 28.0752 36.7046 27.358C37.4585 26.9041 38.5187 26.9815 39.0632 27.5188C40.4046 28.8424 38.4318 31.0064 36.5949 30.2751ZM28.0081 29.2314C24.6677 28.6683 24.6905 24.7383 25.4385 22.4927C26.3755 19.8938 28.6589 19.1383 30.5355 19.0725C32.1191 19.0192 34.3148 19.3099 34.866 19.6456C35.0188 19.7389 34.9471 20.6393 34.5216 23.9803C34.2262 26.2993 33.9037 28.2935 33.8041 28.4117C33.2756 29.0406 29.7319 29.5412 28.0081 29.2314ZM30.9221 26.1211C31.2809 24.805 31.432 23.6163 31.6886 22.2278C31.6565 21.7488 30.8377 21.7455 30.6292 21.7446C29.5453 21.7446 28.9046 22.3452 28.5652 23.6805C28.0993 25.5122 28.5855 26.5334 29.9235 26.5334C30.3473 26.4942 30.7887 26.5176 30.9221 26.1211ZM6.50985 28.171C7.42323 25.9695 11.0903 18.0896 11.9707 16.457C12.137 16.0505 12.5751 15.9697 12.8748 15.9414C13.7375 15.9022 14.4829 15.913 15.241 15.9189C16.021 15.9255 16.0328 16.1954 16.1333 16.7677C16.2557 17.3382 17.7785 26.3085 18.123 28.4625C18.1669 28.8199 18.2555 28.9307 17.7845 28.9315C17.1302 28.9332 15.5576 29.0173 15.0232 28.9782C14.8527 28.9557 14.7413 28.8457 14.7151 28.7216C14.6661 28.49 14.6113 28.0935 14.5741 27.6804L14.477 26.6075H12.5169H10.5576L10.1296 27.6396C9.97681 28.0061 9.81051 28.3684 9.68642 28.6083C9.59947 28.8282 9.47032 28.9298 9.27616 28.9715C8.79668 28.9673 7.09654 29.0298 6.45751 28.974C6.14095 28.8307 6.42712 28.3709 6.50985 28.171ZM14.1309 23.6205C14.0761 23.0416 13.7013 20.0521 13.6126 19.6106C13.5898 19.5631 13.5788 19.5789 13.5552 19.6064C13.3231 19.9496 12.0712 22.9833 11.8576 23.688C11.8323 23.7854 11.8956 23.8204 11.9893 23.8129C12.3067 23.7913 13.6059 23.7671 14.0001 23.7521C14.1132 23.7438 14.1242 23.7046 14.1309 23.6205ZM36.746 25.074C36.7966 24.6834 36.9072 23.623 36.9925 22.7176C37.0777 21.8121 37.2136 20.3977 37.2947 19.5748C37.3572 18.9509 37.4112 18.3445 37.4348 18.0254C37.4821 17.7389 37.8324 17.7056 38.0629 17.7031C38.8302 17.7114 39.5528 17.6664 40.2433 17.7297C40.5692 17.7622 40.7059 17.833 40.7076 18.0246C40.3961 19.6006 39.2776 25.0365 39.1915 25.3731C39.1172 25.6638 39.0868 25.7487 38.6377 25.7746C38.0882 25.7654 37.629 25.7937 37.071 25.7912C36.7511 25.7871 36.6649 25.6946 36.746 25.074ZM21.2582 16.9976C21.2582 16.0371 21.8845 15.3058 22.6688 14.9976C23.3458 14.7635 24.1055 14.7644 24.5099 15.22C25.2274 16.043 24.7564 17.2591 23.9181 17.893C22.8444 18.6218 21.2751 18.1912 21.2582 16.9976ZM40.5 14.9734C40.2653 14.4595 39.5123 12.8369 38.8277 11.3675C38.1422 9.899 37.618 8.60373 37.6619 8.48961C37.7066 8.37633 38.4698 7.44007 39.3595 6.40969L40.8064 4.73292C40.9009 4.62047 41.0098 4.4822 41.1407 4.4797C42.0127 4.4847 42.9168 4.53551 43.7491 4.52801C44.3688 4.52218 44.6811 4.48303 44.221 4.94367C43.9264 5.30351 43.3465 5.96155 42.683 6.68374C41.7232 7.72828 40.9389 8.6104 40.9389 8.64455C40.9389 8.6787 41.6582 10.238 42.5369 12.1097C43.2275 13.5799 43.7981 14.8951 43.9906 15.4449C44.0725 15.6315 44.0007 15.7914 43.8251 15.8347C43.5921 15.888 43.1734 15.9089 42.4534 15.9089H41.3745C41.1111 15.9364 40.9178 15.8905 40.8165 15.6681L40.5 14.9734ZM8.22012 13.8789C7.24933 13.4016 6.79011 12.7977 6.70654 11.8873C6.65673 11.3417 7.56167 4.00658 7.9618 1.67426C8.05973 1.12617 8.10193 1.09535 8.6346 1.09535H9.68136C10.2318 1.09535 10.7323 1.08619 11.0472 1.10368C11.4777 1.11034 11.3984 1.37772 11.3655 1.69758C11.292 2.41311 11.0616 3.96243 10.772 5.95739C10.2588 9.49751 10.1279 10.7461 10.2512 10.9385C10.3947 11.1634 10.7594 11.2009 13.1779 11.2367L15.3406 11.2684C15.8564 11.2401 15.9628 11.365 15.9121 11.8215C15.7855 12.577 15.7163 13.1792 15.5913 13.8556C15.5052 14.2787 15.2283 14.168 14.7978 14.1938L12.2696 14.2288C9.02629 14.2688 9.00941 14.2671 8.22012 13.8789ZM33.1634 14.1513C33.1304 14.0888 33.2208 13.2309 33.3643 12.243C33.5078 11.2551 33.8066 9.13433 34.0295 7.5292C34.6609 2.97369 34.8686 1.60096 34.9564 1.07536C35.0492 0.463125 35.0501 0.496444 35.6587 0.496444H36.6236C37.0001 0.496444 37.2938 0.492279 37.5209 0.498943C38.3879 0.527264 38.2773 0.453129 38.0587 1.77755C37.9759 2.27816 37.7007 4.48053 37.4475 6.33222C36.8085 10.9952 36.3889 13.8548 36.3121 14.0763C36.2403 14.2837 33.2706 14.3537 33.1634 14.1513ZM16.6752 13.7956C17.0779 10.4637 17.4628 7.94402 17.9094 4.84288C17.9432 4.47137 18.3129 4.42889 18.7451 4.42806C19.2364 4.42806 19.7362 4.42139 20.2038 4.43639C21.1104 4.43972 21.3485 4.55967 21.2548 5.15774C20.853 8.06896 20.3566 10.667 19.8358 13.6274C19.7378 14.128 19.6197 14.113 19.1343 14.113C18.5687 14.1155 17.5658 14.1338 17.0543 14.1197C16.7537 14.068 16.6862 14.0339 16.6752 13.7956ZM23.074 6.33556C23.3221 5.04695 23.4944 4.84621 23.8557 4.61298C24.3014 4.32477 27.5944 4.02407 28.7315 4.16817C28.8902 4.19066 29.0413 4.21898 29.1848 4.2523C32.5159 5.03279 31.9976 8.7545 31.7815 10.4663C31.5527 12.1022 31.329 13.5915 31.2834 13.7765C31.2041 14.0988 31.1332 14.113 29.6247 14.113C29.1182 14.113 28.8531 14.0963 28.5652 14.0697C28.0993 14.0397 28.0562 13.9364 28.1026 13.6015C28.2723 12.2355 28.5011 11.0568 28.6716 9.78072C28.9012 8.03898 28.8404 6.3189 26.6498 6.68874C26.2742 6.78286 26.172 6.81285 26.1205 7.18185C25.847 8.90277 25.6064 10.6803 25.3566 12.3629C25.3017 12.7644 25.2249 13.1842 25.1464 13.5566C25.1261 13.6507 25.1151 13.7357 25.0974 13.7981C25.0755 13.8731 25.0231 13.9497 24.9733 13.8731C24.6222 13.2409 22.9659 13.3467 22.2745 13.8106C21.9284 14.0488 21.8567 14.1763 21.9985 13.4516C22.023 13.2975 22.0475 13.1442 22.0711 12.991C22.4138 10.7703 22.6451 8.58624 23.074 6.33556ZM18.3458 2.52222C17.9752 1.27694 19.0769 0.0466404 20.3102 0.00415902C21.9816 -0.106626 22.4434 2.16238 20.7331 3.1911C19.7429 3.6384 18.7021 3.54344 18.3458 2.52222Z" fill="#E9232A"/>
</g>
<defs>
<clipPath id="clip0_896_31541">
<rect width="44" height="40" fill="white" transform="translate(4)"/>
</clipPath>
</defs>
</svg>
