<svg width="234" height="129" viewBox="0 0 234 129" fill="none" xmlns="http://www.w3.org/2000/svg">
<g clip-path="url(#clip0_78146_12520)">
<path d="M2.15504 115.892C2.15424 115.727 2.218 115.569 2.3326 115.451C2.4472 115.333 2.60347 115.265 2.76779 115.262H6.28036C8.7659 115.262 10.4057 116.585 10.4057 118.757V118.788C10.4057 121.165 8.42069 122.393 6.07323 122.393H3.39781V125.733C3.39781 125.898 3.33234 126.056 3.21581 126.172C3.09928 126.289 2.94123 126.354 2.77642 126.354C2.61162 126.354 2.45357 126.289 2.33704 126.172C2.2205 126.056 2.15504 125.898 2.15504 125.733V115.892ZM6.12213 121.26C7.9489 121.26 9.14564 120.284 9.14564 118.835V118.811C9.14564 117.238 7.96328 116.418 6.18542 116.418H3.39781V121.268L6.12213 121.26Z" fill="#182958"/>
<path d="M11.6973 123.921V123.889C11.6973 122.163 13.1126 121.26 15.1753 121.26C16.0222 121.251 16.8657 121.368 17.6781 121.608V121.32C17.6781 119.856 16.7834 119.099 15.2559 119.099C14.5274 119.099 13.8073 119.255 13.1443 119.557C13.075 119.586 13.0009 119.603 12.9257 119.605C12.7885 119.605 12.6566 119.552 12.5568 119.458C12.4569 119.364 12.3965 119.236 12.3877 119.099C12.3889 118.992 12.4207 118.888 12.4794 118.799C12.538 118.71 12.621 118.639 12.7185 118.596C13.5558 118.223 14.4632 118.035 15.3796 118.043C16.5303 118.043 17.4106 118.331 18.0089 118.941C18.5613 119.493 18.8461 120.279 18.8461 121.32V125.776C18.8492 125.854 18.8366 125.931 18.8091 126.003C18.7816 126.076 18.7397 126.142 18.6859 126.198C18.6322 126.254 18.5677 126.298 18.4964 126.329C18.425 126.359 18.3483 126.375 18.2707 126.375C18.1181 126.375 17.9718 126.314 17.8639 126.206C17.756 126.098 17.6954 125.952 17.6954 125.799V125.054C17.3519 125.505 16.9056 125.868 16.3937 126.111C15.8818 126.355 15.3191 126.473 14.7524 126.455C13.2306 126.455 11.6973 125.589 11.6973 123.921ZM17.6954 123.291V122.505C16.9185 122.274 16.1123 122.157 15.3019 122.157C13.7743 122.157 12.9257 122.819 12.9257 123.843V123.875C12.9257 124.899 13.8692 125.497 14.9711 125.497C16.467 125.497 17.6954 124.582 17.6954 123.291Z" fill="#182958"/>
<path d="M20.9981 125.428C20.9295 125.377 20.8737 125.311 20.8353 125.234C20.7968 125.158 20.7767 125.074 20.7766 124.988C20.7789 124.848 20.8364 124.715 20.9367 124.617C21.037 124.52 21.1718 124.466 21.3117 124.467C21.4153 124.467 21.5163 124.5 21.5994 124.562C22.3553 125.105 23.258 125.406 24.1885 125.425C25.1637 125.425 25.8743 124.922 25.8743 124.134V124.102C25.8743 123.285 24.9134 122.968 23.8433 122.664C22.566 122.301 21.1506 121.861 21.1506 120.362V120.33C21.1506 118.929 22.3013 118 23.9209 118C24.827 118.021 25.7149 118.259 26.5101 118.694C26.5983 118.744 26.6714 118.818 26.722 118.906C26.7725 118.995 26.7986 119.095 26.7977 119.197C26.797 119.266 26.7825 119.335 26.7552 119.399C26.7279 119.462 26.6882 119.52 26.6385 119.569C26.5887 119.617 26.5299 119.655 26.4654 119.681C26.4009 119.706 26.332 119.719 26.2627 119.718C26.1698 119.717 26.0783 119.696 25.9951 119.654C25.3535 119.267 24.6238 119.05 23.8749 119.024C22.9141 119.024 22.3013 119.528 22.3013 120.207V120.236C22.3013 121.009 23.3082 121.309 24.3956 121.639C25.6556 122.016 27.0077 122.502 27.0077 123.97V123.99C27.0077 125.532 25.7333 126.429 24.1108 126.429C22.9971 126.41 21.914 126.062 20.9981 125.428Z" fill="#182958"/>
<path d="M28.656 123.921V123.889C28.656 122.163 30.0714 121.26 32.134 121.26C32.981 121.251 33.8245 121.368 34.6369 121.608V121.32C34.6369 119.856 33.7393 119.099 32.2146 119.099C31.4861 119.099 30.766 119.255 30.103 119.557C30.0337 119.586 29.9596 119.603 29.8844 119.605C29.7462 119.607 29.6129 119.555 29.5118 119.46C29.4107 119.366 29.3495 119.237 29.3407 119.099C29.3419 118.992 29.3737 118.888 29.4323 118.799C29.491 118.71 29.574 118.639 29.6715 118.596C30.5087 118.223 31.4162 118.035 32.3325 118.043C33.4833 118.043 34.3636 118.331 34.9619 118.941C35.5143 119.493 35.7962 120.279 35.7962 121.32V125.776C35.7993 125.854 35.7867 125.931 35.7592 126.003C35.7317 126.076 35.6898 126.142 35.636 126.198C35.5823 126.254 35.5178 126.298 35.4465 126.329C35.3751 126.359 35.2984 126.375 35.2208 126.375C35.0683 126.375 34.9219 126.314 34.814 126.206C34.7061 126.098 34.6455 125.952 34.6455 125.799V125.054C34.302 125.505 33.8557 125.868 33.3438 126.111C32.8319 126.355 32.2692 126.473 31.7025 126.455C30.1807 126.455 28.656 125.589 28.656 123.921ZM34.6541 123.291V122.505C33.8773 122.274 33.0711 122.157 32.2606 122.157C30.733 122.157 29.8844 122.819 29.8844 123.843V123.875C29.8844 124.899 30.828 125.497 31.9298 125.497C33.4257 125.497 34.6541 124.582 34.6541 123.291Z" fill="#182958"/>
<path d="M38.3853 118.679C38.3845 118.519 38.4467 118.364 38.5586 118.249C38.6705 118.134 38.8232 118.067 38.9837 118.064C39.0648 118.062 39.1454 118.077 39.2206 118.108C39.2958 118.139 39.3642 118.184 39.4216 118.241C39.479 118.299 39.5243 118.367 39.5548 118.442C39.5853 118.517 39.6005 118.598 39.5993 118.679V120.207C40.1977 118.852 41.3772 118.032 42.4013 118.032C42.4823 118.028 42.5631 118.042 42.6384 118.072C42.7137 118.102 42.7818 118.148 42.8383 118.206C42.8948 118.264 42.9384 118.333 42.9662 118.409C42.994 118.486 43.0054 118.567 42.9997 118.648C43.0035 118.798 42.9506 118.945 42.8515 119.058C42.7524 119.172 42.6143 119.244 42.4646 119.26C40.8881 119.45 39.5878 120.63 39.5878 122.977V125.747C39.5878 125.908 39.5238 126.063 39.41 126.177C39.2962 126.291 39.1418 126.354 38.9808 126.354C38.8198 126.354 38.6654 126.291 38.5516 126.177C38.4377 126.063 38.3738 125.908 38.3738 125.747L38.3853 118.679Z" fill="#182958"/>
<path d="M49.6912 115.892C49.6911 115.727 49.7555 115.569 49.8706 115.451C49.9856 115.333 50.1422 115.265 50.3068 115.262H53.5058C56.9579 115.262 59.3629 117.638 59.3629 120.727V120.759C59.3744 123.875 56.981 126.291 53.5058 126.291H50.3068C50.1422 126.287 49.9856 126.219 49.8706 126.102C49.7555 125.984 49.6911 125.826 49.6912 125.661V115.892ZM53.5058 125.14C56.2934 125.14 58.0713 123.25 58.0713 120.808V120.779C58.0713 118.337 56.2934 116.415 53.5058 116.415H50.9167V125.14H53.5058Z" fill="#182958"/>
<path d="M61.7996 115.592C61.7996 115.402 61.8753 115.219 62.0102 115.084C62.1451 114.949 62.328 114.873 62.5188 114.873C62.7095 114.873 62.8924 114.949 63.0273 115.084C63.1622 115.219 63.238 115.402 63.238 115.592V115.797C63.238 115.987 63.1622 116.17 63.0273 116.305C62.8924 116.44 62.7095 116.516 62.5188 116.516C62.328 116.516 62.1451 116.44 62.0102 116.305C61.8753 116.17 61.7996 115.987 61.7996 115.797V115.592ZM61.9118 118.679C61.911 118.519 61.9732 118.364 62.0851 118.249C62.197 118.134 62.3496 118.067 62.5101 118.064C62.5912 118.062 62.6716 118.078 62.7467 118.108C62.8217 118.139 62.8899 118.184 62.9471 118.241C63.0042 118.299 63.0493 118.367 63.0795 118.442C63.1097 118.518 63.1244 118.598 63.1229 118.679V125.747C63.126 125.828 63.1128 125.908 63.0841 125.983C63.0553 126.058 63.0116 126.126 62.9557 126.184C62.8997 126.241 62.8326 126.287 62.7585 126.318C62.6844 126.348 62.6048 126.364 62.5245 126.363C62.4435 126.364 62.363 126.349 62.288 126.319C62.2129 126.288 62.1448 126.243 62.0876 126.185C62.0304 126.128 61.9854 126.059 61.9552 125.984C61.925 125.909 61.9102 125.828 61.9118 125.747V118.679Z" fill="#182958"/>
<path d="M66.1464 127.873C66.0521 127.827 65.9727 127.756 65.9172 127.667C65.8618 127.578 65.8325 127.475 65.8329 127.37C65.8426 127.229 65.9041 127.096 66.0054 126.998C66.1068 126.899 66.241 126.841 66.3823 126.835C66.4771 126.835 66.5699 126.862 66.6499 126.913C67.4994 127.487 68.5012 127.795 69.5267 127.796C71.3218 127.796 72.4869 126.803 72.4869 124.899V123.938C71.7763 124.882 70.7867 125.664 69.2908 125.664C68.7874 125.673 68.2875 125.58 67.8206 125.392C67.3537 125.204 66.9293 124.924 66.5725 124.568C66.2157 124.213 65.9338 123.79 65.7435 123.324C65.5533 122.858 65.4584 122.359 65.4646 121.855V121.824C65.4666 121.005 65.729 120.209 66.2137 119.55C66.6984 118.891 67.3804 118.404 68.1607 118.158C68.9411 117.913 69.7793 117.922 70.5541 118.185C71.3288 118.448 71.9997 118.95 72.4696 119.62V118.691C72.4666 118.61 72.4797 118.529 72.5083 118.454C72.5369 118.378 72.5804 118.309 72.6362 118.251C72.692 118.192 72.759 118.145 72.8332 118.113C72.9073 118.081 72.9872 118.064 73.068 118.064C73.2313 118.064 73.3879 118.128 73.5033 118.244C73.6188 118.359 73.6836 118.516 73.6836 118.679V124.867C73.6836 126.124 73.3039 127.085 72.6422 127.744C71.9202 128.469 70.8327 128.831 69.5411 128.831C68.3419 128.838 67.1654 128.506 66.1464 127.873ZM72.5243 121.832V121.8C72.5243 120.132 71.0859 119.047 69.5324 119.047C67.979 119.047 66.7132 120.118 66.7132 121.786V121.818C66.7112 122.186 66.7831 122.551 66.9246 122.892C67.0662 123.232 67.2746 123.54 67.5375 123.799C67.8003 124.057 68.1123 124.26 68.455 124.395C68.7976 124.531 69.164 124.597 69.5324 124.588C71.0744 124.582 72.5243 123.463 72.5243 121.826V121.832Z" fill="#182958"/>
<path d="M76.3965 115.592C76.3965 115.402 76.4723 115.219 76.6071 115.084C76.742 114.949 76.9249 114.873 77.1157 114.873C77.3064 114.873 77.4894 114.949 77.6242 115.084C77.7591 115.219 77.8349 115.402 77.8349 115.592V115.797C77.8349 115.987 77.7591 116.17 77.6242 116.305C77.4894 116.44 77.3064 116.516 77.1157 116.516C76.9249 116.516 76.742 116.44 76.6071 116.305C76.4723 116.17 76.3965 115.987 76.3965 115.797V115.592ZM76.5087 118.679C76.5078 118.521 76.5685 118.368 76.6779 118.253C76.7874 118.138 76.9371 118.07 77.0955 118.064C77.1766 118.062 77.257 118.078 77.3321 118.108C77.4071 118.139 77.4753 118.184 77.5325 118.241C77.5896 118.299 77.6347 118.367 77.6649 118.442C77.6951 118.518 77.7099 118.598 77.7083 118.679V125.747C77.7114 125.828 77.6982 125.908 77.6695 125.983C77.6407 126.058 77.5971 126.126 77.5411 126.184C77.4851 126.241 77.4181 126.287 77.3439 126.318C77.2698 126.348 77.1902 126.364 77.1099 126.363C77.0289 126.364 76.9484 126.349 76.8734 126.319C76.7983 126.288 76.7302 126.243 76.673 126.185C76.6158 126.128 76.5708 126.059 76.5406 125.984C76.5104 125.909 76.4956 125.828 76.4972 125.747L76.5087 118.679Z" fill="#182958"/>
<path d="M80.9648 124.125V119.214H80.3031C80.1626 119.21 80.029 119.152 79.9296 119.053C79.8302 118.953 79.7724 118.82 79.7681 118.679C79.7696 118.538 79.8264 118.402 79.9264 118.302C80.0265 118.202 80.1617 118.146 80.3031 118.144H80.9648V116.222C80.9629 116.143 80.9768 116.063 81.0058 115.989C81.0348 115.915 81.0783 115.847 81.1337 115.79C81.1891 115.733 81.2554 115.687 81.3286 115.656C81.4019 115.624 81.4806 115.607 81.5603 115.607C81.7227 115.61 81.8775 115.676 81.9924 115.79C82.1072 115.905 82.173 116.06 82.1759 116.222V118.144H84.2875C84.4308 118.145 84.5684 118.201 84.6713 118.301C84.7743 118.4 84.8347 118.536 84.8399 118.679C84.8368 118.823 84.7771 118.96 84.6737 119.06C84.5703 119.16 84.4315 119.216 84.2875 119.214H82.1788V123.97C82.1788 124.959 82.7312 125.322 83.5482 125.322C83.7979 125.312 84.0458 125.276 84.2875 125.212C84.4254 125.213 84.5574 125.268 84.6549 125.366C84.7523 125.463 84.8074 125.595 84.8082 125.733C84.8061 125.838 84.7718 125.939 84.7101 126.023C84.6483 126.108 84.562 126.171 84.463 126.205C84.0825 126.356 83.6757 126.431 83.2662 126.424C81.9544 126.424 80.9648 125.779 80.9648 124.125Z" fill="#182958"/>
<path d="M86.3013 123.921V123.889C86.3013 122.163 87.7167 121.26 89.7793 121.26C90.6262 121.251 91.4697 121.368 92.2821 121.608V121.32C92.2821 119.856 91.3846 119.099 89.8599 119.099C89.1283 119.098 88.4051 119.255 87.7397 119.559C87.6695 119.589 87.5944 119.606 87.5182 119.608C87.3791 119.607 87.246 119.552 87.1463 119.455C87.0467 119.358 86.9882 119.227 86.9831 119.088C86.9843 118.981 87.0161 118.877 87.0747 118.787C87.1334 118.698 87.2164 118.628 87.3139 118.584C88.1511 118.212 89.0586 118.023 89.9749 118.032C91.1257 118.032 92.006 118.32 92.6043 118.929C93.1567 119.482 93.4386 120.267 93.4386 121.309V125.765C93.4417 125.842 93.4291 125.919 93.4016 125.992C93.3741 126.064 93.3322 126.131 93.2784 126.187C93.2247 126.242 93.1602 126.287 93.0889 126.317C93.0175 126.348 92.9408 126.363 92.8632 126.363C92.7106 126.363 92.5643 126.302 92.4564 126.195C92.3485 126.087 92.2879 125.94 92.2879 125.788V125.054C91.9444 125.505 91.4981 125.868 90.9862 126.111C90.4743 126.355 89.9116 126.473 89.3449 126.455C87.8116 126.455 86.3013 125.589 86.3013 123.921ZM92.2994 123.291V122.505C91.5225 122.274 90.7163 122.157 89.9059 122.157C88.3783 122.157 87.5268 122.819 87.5268 123.843V123.875C87.5268 124.899 88.4733 125.497 89.5751 125.497C91.0566 125.497 92.285 124.582 92.285 123.291H92.2994Z" fill="#182958"/>
<path d="M96.1284 115.325C96.1227 115.242 96.1341 115.158 96.1619 115.08C96.1897 115.002 96.2334 114.93 96.2902 114.869C96.347 114.808 96.4157 114.76 96.492 114.726C96.5684 114.693 96.6507 114.676 96.734 114.676C96.8172 114.676 96.8995 114.693 96.9759 114.726C97.0522 114.76 97.1209 114.808 97.1777 114.869C97.2345 114.93 97.2781 115.002 97.306 115.08C97.3338 115.158 97.3452 115.242 97.3395 115.325V125.747C97.3426 125.828 97.3294 125.908 97.3007 125.983C97.2719 126.058 97.2283 126.126 97.1723 126.184C97.1163 126.241 97.0493 126.287 96.9752 126.318C96.901 126.348 96.8214 126.364 96.7411 126.363C96.6601 126.364 96.5797 126.349 96.5046 126.319C96.4295 126.288 96.3614 126.243 96.3042 126.185C96.247 126.128 96.202 126.059 96.1718 125.984C96.1416 125.909 96.1268 125.828 96.1284 125.747V115.325Z" fill="#182958"/>
<path d="M104.914 121.671V115.811C104.914 115.646 104.98 115.488 105.096 115.372C105.213 115.255 105.371 115.19 105.535 115.19C105.7 115.19 105.858 115.255 105.975 115.372C106.091 115.488 106.157 115.646 106.157 115.811V121.59C106.157 123.97 107.431 125.307 109.526 125.307C111.557 125.307 112.848 124.079 112.848 121.671V115.811C112.842 115.726 112.854 115.64 112.883 115.559C112.912 115.479 112.957 115.405 113.015 115.342C113.073 115.28 113.144 115.23 113.222 115.196C113.301 115.162 113.386 115.144 113.471 115.144C113.557 115.144 113.641 115.162 113.72 115.196C113.798 115.23 113.869 115.28 113.927 115.342C113.986 115.405 114.031 115.479 114.059 115.559C114.088 115.64 114.1 115.726 114.094 115.811V121.565C114.094 124.775 112.25 126.455 109.491 126.455C106.732 126.455 104.914 124.787 104.914 121.671Z" fill="#182958"/>
<path d="M117.037 115.828C117.04 115.666 117.106 115.511 117.22 115.396C117.335 115.281 117.49 115.216 117.652 115.213H117.793C117.91 115.214 118.023 115.245 118.124 115.303C118.225 115.361 118.309 115.444 118.369 115.543L122.307 121.464L126.243 115.543C126.301 115.443 126.386 115.36 126.486 115.302C126.587 115.244 126.702 115.213 126.818 115.213H126.959C127.121 115.216 127.276 115.282 127.39 115.396C127.504 115.511 127.569 115.666 127.572 115.828V125.733C127.572 125.897 127.509 126.056 127.394 126.173C127.279 126.291 127.123 126.359 126.959 126.363C126.793 126.36 126.634 126.293 126.517 126.175C126.399 126.058 126.332 125.899 126.329 125.733V117.514L122.802 122.692C122.75 122.786 122.675 122.864 122.584 122.92C122.492 122.975 122.388 123.006 122.281 123.009C122.172 123.006 122.066 122.975 121.973 122.92C121.879 122.865 121.801 122.786 121.746 122.692L118.236 117.528V125.747C118.236 125.908 118.173 126.063 118.059 126.177C117.945 126.29 117.79 126.354 117.629 126.354C117.468 126.354 117.314 126.29 117.2 126.177C117.086 126.063 117.022 125.908 117.022 125.747L117.037 115.828Z" fill="#182958"/>
<path d="M130.705 115.811C130.699 115.726 130.711 115.64 130.739 115.559C130.768 115.479 130.813 115.405 130.871 115.342C130.93 115.28 131 115.23 131.079 115.196C131.157 115.162 131.242 115.144 131.327 115.144C131.413 115.144 131.498 115.162 131.576 115.196C131.654 115.23 131.725 115.28 131.783 115.342C131.842 115.405 131.887 115.479 131.915 115.559C131.944 115.64 131.956 115.726 131.95 115.811V121.852L138.233 115.411C138.296 115.345 138.371 115.291 138.454 115.253C138.538 115.216 138.628 115.195 138.719 115.193C138.879 115.198 139.029 115.265 139.141 115.379C139.252 115.493 139.315 115.646 139.318 115.805C139.315 115.889 139.296 115.971 139.261 116.047C139.226 116.122 139.176 116.19 139.113 116.245L135.207 120.112L139.395 125.29C139.507 125.416 139.568 125.579 139.568 125.747C139.564 125.913 139.497 126.072 139.379 126.189C139.262 126.306 139.104 126.374 138.938 126.377C138.836 126.376 138.737 126.349 138.649 126.299C138.561 126.249 138.487 126.177 138.434 126.09L134.324 120.972L131.947 123.351V125.745C131.953 125.83 131.941 125.916 131.913 125.996C131.884 126.077 131.839 126.151 131.781 126.213C131.722 126.276 131.652 126.325 131.573 126.36C131.495 126.394 131.41 126.411 131.324 126.411C131.239 126.411 131.154 126.394 131.076 126.36C130.997 126.325 130.927 126.276 130.868 126.213C130.81 126.151 130.765 126.077 130.736 125.996C130.708 125.916 130.696 125.83 130.702 125.745L130.705 115.811Z" fill="#182958"/>
<path d="M141.947 115.828C141.95 115.666 142.016 115.511 142.131 115.396C142.245 115.281 142.4 115.216 142.563 115.213H142.704C142.82 115.215 142.933 115.247 143.034 115.304C143.134 115.362 143.219 115.444 143.279 115.543L147.214 121.464L151.15 115.543C151.209 115.443 151.293 115.36 151.394 115.302C151.495 115.244 151.609 115.213 151.725 115.213H151.892C152.054 115.216 152.209 115.281 152.324 115.396C152.439 115.511 152.505 115.666 152.508 115.828V125.733C152.508 125.898 152.443 126.056 152.328 126.174C152.213 126.291 152.057 126.359 151.892 126.363C151.726 126.359 151.568 126.292 151.451 126.174C151.333 126.057 151.266 125.899 151.262 125.733V117.514L147.735 122.692C147.684 122.786 147.609 122.864 147.518 122.92C147.428 122.975 147.324 123.006 147.217 123.009C147.108 123.006 147.001 122.976 146.907 122.92C146.813 122.865 146.735 122.786 146.679 122.692L143.17 117.528V125.747C143.17 125.908 143.106 126.063 142.992 126.177C142.878 126.29 142.724 126.354 142.563 126.354C142.402 126.354 142.247 126.29 142.133 126.177C142.02 126.063 141.956 125.908 141.956 125.747L141.947 115.828Z" fill="#182958"/>
<path d="M160.45 115.811C160.45 115.646 160.516 115.488 160.632 115.372C160.749 115.255 160.907 115.19 161.072 115.19C161.237 115.19 161.395 115.255 161.511 115.372C161.628 115.488 161.693 115.646 161.693 115.811V125.733C161.693 125.898 161.628 126.056 161.511 126.172C161.395 126.289 161.237 126.354 161.072 126.354C160.907 126.354 160.749 126.289 160.632 126.172C160.516 126.056 160.45 125.898 160.45 125.733V115.811Z" fill="#182958"/>
<path d="M164.717 118.679C164.716 118.519 164.778 118.364 164.89 118.249C165.002 118.134 165.155 118.067 165.315 118.064C165.396 118.062 165.477 118.078 165.552 118.108C165.627 118.139 165.695 118.184 165.752 118.241C165.809 118.299 165.854 118.367 165.885 118.442C165.915 118.518 165.93 118.598 165.928 118.679V119.559C166.202 119.064 166.607 118.654 167.099 118.374C167.591 118.093 168.15 117.953 168.716 117.969C170.683 117.969 171.834 119.292 171.834 121.228V125.747C171.84 125.83 171.828 125.914 171.8 125.992C171.773 126.071 171.729 126.143 171.672 126.203C171.615 126.264 171.547 126.313 171.47 126.346C171.394 126.379 171.312 126.396 171.228 126.396C171.145 126.396 171.063 126.379 170.987 126.346C170.91 126.313 170.842 126.264 170.785 126.203C170.728 126.143 170.684 126.071 170.656 125.992C170.629 125.914 170.617 125.83 170.623 125.747V121.527C170.623 120.017 169.803 119.07 168.37 119.07C166.938 119.07 165.928 120.095 165.928 121.622V125.747C165.931 125.828 165.919 125.908 165.89 125.982C165.862 126.057 165.818 126.126 165.763 126.183C165.707 126.241 165.64 126.287 165.566 126.318C165.492 126.348 165.413 126.364 165.332 126.363C165.251 126.364 165.171 126.349 165.096 126.319C165.02 126.288 164.952 126.243 164.895 126.185C164.837 126.128 164.792 126.06 164.761 125.984C164.731 125.909 164.716 125.829 164.717 125.747V118.679Z" fill="#182958"/>
<path d="M182.165 125.747C182.165 125.908 182.101 126.063 181.987 126.177C181.873 126.29 181.719 126.354 181.558 126.354C181.397 126.354 181.242 126.29 181.128 126.177C181.014 126.063 180.951 125.908 180.951 125.747V124.646C180.289 125.621 179.328 126.455 177.832 126.455C175.882 126.455 173.946 124.913 173.946 122.238V122.206C173.946 119.545 175.882 117.969 177.832 117.969C179.345 117.969 180.321 118.788 180.951 119.695V115.325C180.947 115.245 180.961 115.165 180.989 115.09C181.018 115.015 181.062 114.946 181.118 114.889C181.174 114.831 181.241 114.786 181.315 114.755C181.389 114.724 181.469 114.708 181.549 114.709C181.63 114.708 181.711 114.723 181.786 114.754C181.861 114.784 181.929 114.83 181.987 114.887C182.044 114.944 182.09 115.013 182.12 115.088C182.151 115.163 182.166 115.244 182.165 115.325V125.747ZM175.194 122.189V122.221C175.194 124.142 176.532 125.371 178.071 125.371C179.61 125.371 181.017 124.093 181.017 122.221V122.189C181.031 121.789 180.966 121.391 180.825 121.017C180.684 120.642 180.471 120.3 180.197 120.008C179.923 119.717 179.594 119.483 179.229 119.319C178.864 119.156 178.471 119.066 178.071 119.056C176.48 119.056 175.194 120.221 175.194 122.189Z" fill="#182958"/>
<path d="M184.368 122.264V122.232C184.364 121.107 184.807 120.026 185.6 119.227C186.393 118.428 187.47 117.977 188.596 117.973C189.721 117.969 190.802 118.412 191.601 119.205C192.399 119.997 192.851 121.075 192.855 122.2V122.232C192.858 122.793 192.75 123.348 192.537 123.867C192.323 124.385 192.009 124.856 191.612 125.251C191.215 125.647 190.743 125.96 190.224 126.171C189.705 126.383 189.149 126.489 188.588 126.484C188.032 126.49 187.481 126.386 186.966 126.176C186.451 125.966 185.983 125.656 185.59 125.262C185.196 124.869 184.886 124.401 184.676 123.886C184.466 123.371 184.362 122.82 184.368 122.264ZM191.612 122.264V122.232C191.612 120.486 190.303 119.053 188.588 119.053C186.825 119.053 185.611 120.492 185.611 122.2V122.232C185.611 123.981 186.903 125.396 188.62 125.396C190.384 125.385 191.612 123.97 191.612 122.264Z" fill="#182958"/>
<path d="M195.044 118.679C195.043 118.519 195.105 118.364 195.217 118.249C195.329 118.134 195.482 118.067 195.642 118.064C195.724 118.062 195.804 118.078 195.879 118.108C195.955 118.139 196.023 118.184 196.08 118.241C196.138 118.299 196.183 118.367 196.214 118.442C196.244 118.517 196.259 118.598 196.258 118.679V119.559C196.531 119.064 196.936 118.654 197.427 118.373C197.918 118.093 198.477 117.953 199.043 117.969C201.01 117.969 202.161 119.292 202.161 121.228V125.747C202.167 125.83 202.155 125.914 202.128 125.992C202.1 126.071 202.056 126.143 201.999 126.203C201.943 126.264 201.874 126.313 201.798 126.346C201.721 126.379 201.639 126.396 201.556 126.396C201.472 126.396 201.39 126.379 201.314 126.346C201.237 126.313 201.169 126.264 201.112 126.203C201.055 126.143 201.011 126.071 200.984 125.992C200.956 125.914 200.944 125.83 200.95 125.747V121.527C200.95 120.017 200.13 119.07 198.698 119.07C197.265 119.07 196.258 120.095 196.258 121.622V125.747C196.261 125.828 196.248 125.908 196.219 125.983C196.19 126.058 196.147 126.126 196.091 126.184C196.035 126.241 195.968 126.287 195.894 126.318C195.82 126.348 195.74 126.364 195.66 126.363C195.578 126.364 195.498 126.349 195.423 126.319C195.347 126.288 195.279 126.243 195.222 126.185C195.164 126.128 195.119 126.06 195.089 125.984C195.058 125.909 195.043 125.829 195.044 125.747V118.679Z" fill="#182958"/>
<path d="M208.303 126.472C206.068 126.472 204.241 124.746 204.241 122.238V122.206C204.241 119.859 205.892 117.969 208.145 117.969C210.553 117.969 211.925 119.936 211.925 122.094C211.925 122.247 211.864 122.393 211.756 122.501C211.648 122.609 211.502 122.669 211.35 122.669H205.469C205.642 124.433 206.885 125.425 208.346 125.425C209.221 125.431 210.063 125.092 210.691 124.482C210.793 124.39 210.928 124.342 211.065 124.349C211.202 124.357 211.331 124.418 211.423 124.52C211.515 124.623 211.562 124.757 211.555 124.895C211.548 125.032 211.486 125.161 211.384 125.253C210.982 125.657 210.501 125.974 209.971 126.184C209.441 126.394 208.873 126.492 208.303 126.472ZM210.711 121.763C210.584 120.284 209.736 118.993 208.122 118.993C206.706 118.993 205.633 120.175 205.478 121.763H210.711Z" fill="#182958"/>
<path d="M213.625 125.428C213.556 125.377 213.501 125.311 213.462 125.234C213.424 125.158 213.404 125.074 213.404 124.988C213.404 124.919 213.419 124.85 213.446 124.786C213.473 124.722 213.513 124.665 213.563 124.616C213.613 124.568 213.671 124.53 213.736 124.504C213.8 124.479 213.869 124.466 213.939 124.467C214.042 124.467 214.143 124.5 214.226 124.562C214.981 125.107 215.885 125.408 216.815 125.425C217.791 125.425 218.501 124.922 218.501 124.134V124.102C218.501 123.285 217.54 122.968 216.47 122.664C215.193 122.301 213.778 121.861 213.778 120.362V120.33C213.778 118.929 214.943 118 216.548 118C217.454 118.021 218.342 118.259 219.137 118.694C219.225 118.744 219.298 118.818 219.349 118.906C219.399 118.995 219.426 119.095 219.425 119.197C219.424 119.266 219.409 119.335 219.382 119.399C219.355 119.462 219.315 119.52 219.265 119.569C219.216 119.617 219.157 119.655 219.092 119.681C219.028 119.706 218.959 119.719 218.89 119.718C218.797 119.717 218.705 119.696 218.622 119.654C217.979 119.266 217.247 119.05 216.496 119.024C215.535 119.024 214.923 119.528 214.923 120.207V120.236C214.923 121.009 215.929 121.309 217.017 121.639C218.274 122.016 219.629 122.502 219.629 123.97V123.99C219.629 125.532 218.355 126.429 216.732 126.429C215.62 126.41 214.539 126.061 213.625 125.428Z" fill="#182958"/>
<path d="M221.907 115.592C221.907 115.402 221.983 115.219 222.118 115.084C222.253 114.949 222.436 114.873 222.627 114.873C222.817 114.873 223 114.949 223.135 115.084C223.27 115.219 223.346 115.402 223.346 115.592V115.797C223.346 115.987 223.27 116.17 223.135 116.305C223 116.44 222.817 116.516 222.627 116.516C222.436 116.516 222.253 116.44 222.118 116.305C221.983 116.17 221.907 115.987 221.907 115.797V115.592ZM222.017 118.679C222.016 118.519 222.078 118.364 222.19 118.249C222.302 118.134 222.455 118.067 222.615 118.064C222.696 118.062 222.777 118.078 222.852 118.108C222.927 118.139 222.996 118.184 223.053 118.241C223.11 118.299 223.156 118.367 223.186 118.442C223.217 118.517 223.232 118.598 223.231 118.679V125.747C223.234 125.828 223.221 125.908 223.192 125.983C223.163 126.058 223.12 126.126 223.064 126.184C223.008 126.241 222.941 126.287 222.866 126.318C222.792 126.348 222.713 126.364 222.632 126.363C222.551 126.364 222.471 126.349 222.395 126.319C222.32 126.288 222.252 126.243 222.195 126.185C222.137 126.128 222.092 126.06 222.061 125.984C222.031 125.909 222.016 125.829 222.017 125.747V118.679Z" fill="#182958"/>
<path d="M225.434 123.921V123.889C225.434 122.163 226.853 121.26 228.915 121.26C229.762 121.251 230.606 121.369 231.418 121.608V121.32C231.418 119.856 230.521 119.099 228.993 119.099C228.265 119.099 227.546 119.255 226.884 119.557C226.814 119.586 226.739 119.603 226.663 119.606C226.523 119.605 226.39 119.55 226.29 119.453C226.19 119.356 226.132 119.224 226.128 119.085C226.128 118.978 226.16 118.873 226.218 118.784C226.277 118.695 226.361 118.624 226.458 118.581C227.296 118.208 228.203 118.02 229.12 118.029C230.27 118.029 231.151 118.317 231.749 118.927C232.298 119.479 232.583 120.264 232.583 121.306V125.762C232.586 125.839 232.574 125.917 232.546 125.989C232.519 126.062 232.477 126.128 232.423 126.184C232.369 126.24 232.305 126.284 232.233 126.314C232.162 126.345 232.085 126.36 232.008 126.36C231.932 126.363 231.856 126.349 231.785 126.321C231.714 126.293 231.65 126.251 231.596 126.197C231.542 126.143 231.499 126.079 231.471 126.008C231.443 125.937 231.43 125.861 231.432 125.785V125.054C231.088 125.505 230.642 125.868 230.129 126.111C229.617 126.355 229.054 126.473 228.487 126.455C226.976 126.455 225.434 125.589 225.434 123.921ZM231.432 123.291V122.505C230.656 122.274 229.849 122.157 229.039 122.157C227.511 122.157 226.663 122.819 226.663 123.843V123.875C226.663 124.899 227.606 125.497 228.708 125.497C230.204 125.497 231.432 124.582 231.432 123.291Z" fill="#182958"/>
<path d="M209.928 29.1361C208.548 29.1361 207.225 28.5879 206.249 27.6119C205.273 26.6359 204.724 25.3122 204.724 23.932C204.724 20.3461 203.3 16.907 200.764 14.3713C198.228 11.8356 194.789 10.4111 191.203 10.4111C187.617 10.4111 184.178 11.8356 181.643 14.3713C179.107 16.907 177.682 20.3461 177.682 23.932C177.699 24.6255 177.576 25.3153 177.322 25.9608C177.068 26.6063 176.687 27.1945 176.203 27.6907C175.718 28.187 175.139 28.5813 174.5 28.8506C173.86 29.1198 173.173 29.2585 172.48 29.2585C171.786 29.2585 171.099 29.1198 170.46 28.8506C169.821 28.5813 169.242 28.187 168.757 27.6907C168.272 27.1945 167.892 26.6063 167.637 25.9608C167.383 25.3153 167.261 24.6255 167.277 23.932C167.346 17.6299 169.898 11.6094 174.379 7.17737C178.86 2.74534 184.908 0.259521 191.211 0.259521C197.513 0.259521 203.561 2.74534 208.042 7.17737C212.523 11.6094 215.075 17.6299 215.144 23.932C215.144 24.6164 215.009 25.2941 214.747 25.9262C214.485 26.5584 214.1 27.1326 213.616 27.616C213.131 28.0994 212.556 28.4825 211.924 28.7433C211.291 29.0042 210.613 29.1377 209.928 29.1361Z" fill="#182958"/>
<path d="M153.736 26.0896V101.013H228.659V26.0896L191.198 63.5512L153.736 26.0896Z" fill="#009EA9"/>
<path d="M228.659 106.214H153.736C153.053 106.214 152.376 106.08 151.745 105.819C151.114 105.558 150.541 105.175 150.057 104.691C149.574 104.208 149.191 103.635 148.93 103.004C148.669 102.372 148.535 101.696 148.535 101.013V26.0896C148.534 25.0605 148.839 24.0542 149.41 23.1983C149.982 22.3424 150.794 21.6752 151.745 21.2813C152.696 20.8874 153.742 20.7844 154.752 20.9853C155.761 21.1863 156.688 21.6822 157.416 22.4102L191.198 56.1924L224.98 22.4102C225.707 21.6822 226.634 21.1863 227.644 20.9853C228.653 20.7844 229.699 20.8874 230.65 21.2813C231.601 21.6752 232.414 22.3424 232.985 23.1983C233.556 24.0542 233.861 25.0605 233.861 26.0896V101.013C233.861 102.392 233.313 103.715 232.337 104.691C231.362 105.666 230.039 106.214 228.659 106.214ZM158.937 95.7972H223.455V38.6497L194.877 67.2306C194.394 67.7141 193.821 68.0976 193.189 68.3593C192.558 68.6209 191.881 68.7556 191.198 68.7556C190.514 68.7556 189.838 68.6209 189.206 68.3593C188.575 68.0976 188.001 67.7141 187.518 67.2306L158.937 38.6497V95.7972Z" fill="#182958"/>
<path d="M0.860465 84.5978V61.7331C0.855874 61.0292 0.991165 60.3315 1.25848 59.6804C1.52579 59.0293 1.91981 58.4378 2.41763 57.9402C2.91546 57.4427 3.50718 57.049 4.15842 56.782C4.80967 56.5151 5.50747 56.3801 6.2113 56.3851C6.91585 56.3798 7.61444 56.5146 8.2664 56.7817C8.91836 57.0489 9.51068 57.443 10.0089 57.9412C10.5071 58.4394 10.9013 59.0318 11.1684 59.6837C11.4356 60.3357 11.5704 61.0343 11.565 61.7388V84.3274C11.565 92.2501 15.5264 96.3495 22.0595 96.3495C28.5927 96.3495 32.5541 92.3882 32.5541 84.6726V61.7331C32.5375 61.0198 32.6638 60.3103 32.9253 59.6465C33.1868 58.9827 33.5784 58.3778 34.0771 57.8675C34.5757 57.3571 35.1714 56.9516 35.8289 56.6748C36.4865 56.3979 37.1929 56.2553 37.9064 56.2553C38.6199 56.2553 39.3262 56.3979 39.9838 56.6748C40.6414 56.9516 41.237 57.3571 41.7356 57.8675C42.2343 58.3778 42.6259 58.9827 42.8874 59.6465C43.149 60.3103 43.2752 61.0198 43.2586 61.7331V84.2526C43.2586 98.9875 34.9879 106.214 21.9186 106.214C8.84931 106.214 0.860465 98.9156 0.860465 84.5978Z" fill="#182958"/>
<path d="M102.578 62.0553C102.578 60.6362 103.142 59.2752 104.145 58.2717C105.149 57.2682 106.51 56.7045 107.929 56.7045C109.348 56.7045 110.709 57.2682 111.712 58.2717C112.716 59.2752 113.28 60.6362 113.28 62.0553L113.259 78.3897L133.023 58.8275C134.346 57.51 135.667 56.7476 137.542 56.7505C140.531 56.7505 142.476 59.0519 142.473 61.6899C142.473 63.3585 141.705 64.607 140.52 65.7174L126.812 78.4904L141.734 97.2758C142.565 98.3172 143.19 99.4305 143.187 101.03C143.187 104.019 140.885 106.24 137.761 106.237C135.675 106.237 134.424 105.19 133.245 103.648L119.367 85.4407L113.245 91.131L113.231 100.863C113.23 101.566 113.09 102.261 112.821 102.91C112.551 103.559 112.156 104.148 111.658 104.645C111.161 105.141 110.57 105.534 109.921 105.802C109.271 106.07 108.575 106.208 107.873 106.207C107.17 106.206 106.474 106.067 105.826 105.797C105.177 105.527 104.587 105.132 104.091 104.635C103.595 104.137 103.202 103.547 102.934 102.897C102.666 102.247 102.528 101.551 102.529 100.849L102.578 62.0553Z" fill="#182958"/>
<path d="M48.5807 62.2193C48.575 61.515 48.7095 60.8166 48.9763 60.1648C49.2432 59.513 49.6371 58.9209 50.1351 58.4228C50.6332 57.9248 51.2253 57.5309 51.8771 57.264C52.5289 56.9972 53.2273 56.8627 53.9316 56.8684H55.1139C56.0995 56.8527 57.0712 57.1024 57.9271 57.5913C58.7829 58.0803 59.4916 58.7904 59.9786 59.6474L72.9069 80.7055L85.9014 59.5784C87.0147 57.7717 88.5423 56.8684 90.697 56.8684H91.8794C92.5837 56.8627 93.282 56.9972 93.9338 57.264C94.5856 57.5309 95.1778 57.9248 95.6758 58.4228C96.1738 58.9209 96.5677 59.513 96.8346 60.1648C97.1015 60.8166 97.2359 61.515 97.2302 62.2193V100.863C97.2302 102.275 96.6695 103.628 95.6714 104.626C94.6733 105.625 93.3196 106.185 91.9081 106.185C90.4966 106.185 89.1429 105.625 88.1449 104.626C87.1468 103.628 86.5861 102.275 86.5861 100.863V76.6061L77.202 91.062C76.0915 92.7305 74.702 93.7719 72.7544 93.7719C70.8069 93.7719 69.4174 92.7305 68.3069 91.062L59.0753 76.8103V100.998C59.0746 101.689 58.937 102.372 58.6705 103.009C58.404 103.646 58.0138 104.223 57.5226 104.708C57.0314 105.193 56.449 105.576 55.8089 105.835C55.1688 106.093 54.4838 106.222 53.7935 106.214C53.1073 106.221 52.4266 106.09 51.7914 105.83C51.1562 105.571 50.5791 105.187 50.094 104.702C49.6088 104.216 49.2254 103.639 48.966 103.004C48.7067 102.368 48.5767 101.688 48.5836 101.001L48.5807 62.2193Z" fill="#182958"/>
<path d="M65.807 28.6845C65.8039 28.3295 65.8715 27.9775 66.0059 27.6489C66.1402 27.3203 66.3386 27.0218 66.5895 26.7706C66.8404 26.5195 67.1387 26.3207 67.4672 26.1861C67.7956 26.0514 68.1476 25.9834 68.5025 25.9861H75.8211C81.6667 25.9861 85.2023 29.4382 85.2023 34.4611V34.5215C85.2023 40.1945 80.7922 43.1346 75.2946 43.1346H71.1981V48.0021C71.1981 48.717 70.9141 49.4027 70.4086 49.9082C69.9031 50.4137 69.2174 50.6977 68.5025 50.6977C67.7876 50.6977 67.102 50.4137 66.5965 49.9082C66.091 49.4027 65.807 48.717 65.807 48.0021V28.6845ZM75.4701 38.3476C78.1657 38.3476 79.7422 36.7366 79.7422 34.6366V34.5647C79.7422 32.1481 78.0621 30.8536 75.3637 30.8536H71.1981V38.3476H75.4701Z" fill="#009EA9"/>
<path d="M88.9622 44.9643V44.8952C88.9622 40.7987 92.0777 38.9057 96.5252 38.9057C98.088 38.8925 99.6411 39.1535 101.114 39.6767V39.3631C101.114 37.1566 99.7472 35.9311 97.0862 35.9311C95.8412 35.918 94.6015 36.0946 93.4097 36.4547C93.163 36.5468 92.902 36.5945 92.6387 36.5957C92.3505 36.6006 92.0641 36.5481 91.7965 36.4411C91.5288 36.3342 91.2851 36.1749 91.0796 35.9727C90.8742 35.7705 90.7112 35.5294 90.6 35.2634C90.4888 34.9974 90.4318 34.712 90.4322 34.4237C90.4332 33.9739 90.5715 33.5352 90.8285 33.1661C91.0855 32.797 91.4491 32.5151 91.8706 32.3581C93.5535 31.7281 95.3745 31.38 97.8601 31.38C100.766 31.38 102.866 32.1481 104.189 33.4801C105.587 34.8811 106.217 36.9466 106.217 39.4667V48.0108C106.218 48.3493 106.151 48.6845 106.02 48.9969C105.89 49.3093 105.699 49.5926 105.458 49.8303C105.217 50.0681 104.931 50.2555 104.617 50.3817C104.303 50.5079 103.967 50.5703 103.628 50.5654C102.086 50.5654 101.071 49.4808 101.071 48.3589V48.3301C99.776 49.7685 97.9895 50.7121 95.4004 50.7121C91.8677 50.7063 88.9622 48.6753 88.9622 44.9643ZM101.183 43.7272V42.7808C100.113 42.3099 98.9545 42.0716 97.7853 42.0817C95.5097 42.0817 94.1087 42.9908 94.1087 44.6708V44.7399C94.1087 46.1783 95.2997 47.0154 97.0172 47.0154C99.5027 47.0298 101.183 45.6633 101.183 43.7272Z" fill="#009EA9"/>
<path d="M109.983 28.8945C109.98 28.5395 110.048 28.1875 110.182 27.8589C110.316 27.5303 110.515 27.2318 110.766 26.9806C111.016 26.7295 111.315 26.5308 111.643 26.3961C111.972 26.2614 112.324 26.1934 112.679 26.1961H119.543C127.244 26.1961 132.566 31.4836 132.566 38.3822V38.4512C132.566 45.3555 127.244 50.7063 119.543 50.7063H112.679C112.324 50.709 111.972 50.6411 111.644 50.5066C111.316 50.3721 111.017 50.1736 110.767 49.9228C110.516 49.672 110.317 49.3737 110.183 49.0455C110.048 48.7172 109.98 48.3655 109.983 48.0108V28.8945ZM119.543 45.8388C123.953 45.8388 126.93 42.8642 126.93 38.5202V38.4512C126.93 34.1101 123.953 31.0636 119.543 31.0636H115.377V45.8388H119.543Z" fill="#009EA9"/>
<path d="M136.326 27.249C136.326 25.707 137.62 24.7605 139.303 24.7605C140.986 24.7605 142.278 25.707 142.278 27.249V27.3295C142.278 28.8686 140.983 29.8496 139.303 29.8496C137.623 29.8496 136.326 28.8686 136.326 27.3295V27.249ZM136.642 34.1792C136.642 33.4734 136.922 32.7966 137.422 32.2975C137.921 31.7985 138.597 31.5181 139.303 31.5181C140.009 31.5181 140.686 31.7985 141.185 32.2975C141.684 32.7966 141.964 33.4734 141.964 34.1792V48.0424C141.964 48.7482 141.684 49.425 141.185 49.924C140.686 50.4231 140.009 50.7034 139.303 50.7034C138.597 50.7034 137.921 50.4231 137.422 49.924C136.922 49.425 136.642 48.7482 136.642 48.0424V34.1792Z" fill="#009EA9"/>
</g>
<defs>
<clipPath id="clip0_78146_12520">
<rect width="233" height="128.834" fill="white" transform="translate(0.860352)"/>
</clipPath>
</defs>
</svg>
