<svg width="80" height="40" viewBox="0 0 80 40" fill="none" xmlns="http://www.w3.org/2000/svg">
<path d="M71.2152 23.3226V21.171V16.871H64.739H60.4227V14.7194H71.2152V10.4194H60.4227H53.9465V14.7194V16.871V21.171H60.4227H64.739V23.3226H53.9465V27.6226H64.739H71.2152V23.3226ZM72.9217 21.9774V28.9677C72.9217 29.1097 72.8634 29.2484 72.763 29.3484C72.6627 29.4484 72.5234 29.5065 72.381 29.5065H65.364V30.5806H73.4592C73.6017 30.5806 73.741 30.5226 73.8413 30.4226C73.9417 30.3226 74 30.1839 74 30.0419V21.9774H72.9217ZM14.636 8H6.54076C6.39829 8 6.25905 8.05806 6.15867 8.15806C6.05829 8.25806 6 8.39677 6 8.53871V16.6032H7.07829V9.6129C7.07829 9.47097 7.13657 9.33226 7.23695 9.23226C7.33733 9.13226 7.47657 9.07419 7.61905 9.07419H14.636V8ZM21.5655 33H25.8819V23.3226H21.5655V33ZM25.3444 10.4194H15.0893V14.7194H21.5655V21.171H25.8819V10.9548C25.8819 10.8129 25.8236 10.6742 25.7232 10.5742C25.6229 10.4742 25.4836 10.4161 25.3411 10.4161L25.3444 10.4194ZM12.9328 10.4194H9.1539C9.01143 10.4194 8.87219 10.4774 8.77181 10.5774C8.67143 10.6774 8.61314 10.8161 8.61314 10.9581V27.0871C8.61314 27.229 8.67143 27.3677 8.77181 27.4677C8.87219 27.5677 9.01143 27.6258 9.1539 27.6258H19.409V23.3258H12.9328V10.4226V10.4194ZM15.0926 21.171H19.409V16.871H15.0926V21.171ZM16.1709 17.9452H18.3307V20.0968H16.1709V17.9452ZM28.045 10.4194V14.7194H40.9973V16.871H32.3613H28.045V21.171V27.6226H32.3613V21.2355L38.8375 27.6226H45.3137L38.5558 21.171H40.9941H45.3105V16.871V14.7194V10.4194H40.9941H28.0417H28.045ZM47.4735 27.6226H51.7899V10.4194H47.4735V27.6226Z" fill="black"/>
</svg>
