<svg width="24" height="24" viewBox="0 0 24 24" fill="none" xmlns="http://www.w3.org/2000/svg">
<path fill-rule="evenodd" clip-rule="evenodd" d="M16.191 4H7.81C6.67883 4 6.03939 4.32366 5.68243 4.68224C5.32422 5.04208 5 5.6888 5 6.83V17.16C5 18.3339 5.32841 18.9775 5.67921 19.3283C6.03036 19.6794 6.66668 20 7.81 20H16.191C17.3663 20 17.9951 19.6755 18.3342 19.3338C18.6756 18.9897 19 18.3491 19 17.16V6.83C19 5.67359 18.6797 5.02975 18.331 4.67672C17.9862 4.32764 17.3541 4 16.191 4ZM7.81 2H16.191C19.28 2 21 3.78 21 6.83V17.16C21 20.26 19.28 22 16.191 22H7.81C4.77 22 3 20.26 3 17.16V6.83C3 3.78 4.77 2 7.81 2Z" fill="#808C92"/>
<path d="M7 8C7 7.44772 7.44772 7 8 7H11C11.5523 7 12 7.44772 12 8C12 8.55229 11.5523 9 11 9H8C7.44772 9 7 8.55229 7 8Z" fill="#808C92"/>
<path d="M7 12C7 11.4477 7.44772 11 8 11H16C16.5523 11 17 11.4477 17 12C17 12.5523 16.5523 13 16 13H8C7.44772 13 7 12.5523 7 12Z" fill="#808C92"/>
<path d="M7 16C7 15.4477 7.44772 15 8 15H16C16.5523 15 17 15.4477 17 16C17 16.5523 16.5523 17 16 17H8C7.44772 17 7 16.5523 7 16Z" fill="#808C92"/>
</svg>
