<svg width="24" height="24" viewBox="0 0 24 24" fill="none" xmlns="http://www.w3.org/2000/svg">
<path fill-rule="evenodd" clip-rule="evenodd" d="M24 12C24 5.373 18.6277 0 12 0C5.37225 0 0 5.373 0 12C0 18.6277 5.37217 24 12 24C18.6277 24 24 18.6278 24 12ZM17.8223 8.53206C18.4139 8.46302 18.978 8.31077 19.5022 8.0843C19.11 8.65431 18.6142 9.15381 18.0443 9.55288L18.0525 9.92039C18.0525 13.6704 15.111 17.9964 9.732 17.9964C8.07979 17.9964 6.54374 17.5262 5.2485 16.7207C5.47802 16.7469 5.71051 16.7604 5.94678 16.7604C7.31699 16.7604 8.5778 16.3074 9.57901 15.5454C8.29876 15.5228 7.21871 14.7024 6.84675 13.5744C7.02527 13.6081 7.20825 13.6254 7.39649 13.6254C7.6635 13.6254 7.92153 13.5901 8.16678 13.5256C6.82879 13.2646 5.82082 12.1178 5.82082 10.7423V10.7063C6.21602 10.92 6.66608 11.0468 7.14605 11.0618C6.36151 10.554 5.84553 9.68403 5.84553 8.70004C5.84553 8.17953 5.98954 7.69281 6.24155 7.27356C7.68303 8.99028 9.83852 10.1206 12.2685 10.2391C12.2183 10.0313 12.1928 9.81453 12.1928 9.59176C12.1928 8.02432 13.5023 6.75454 15.1163 6.75454C15.9577 6.75454 16.7175 7.09882 17.2508 7.65005C17.9175 7.52335 18.543 7.28707 19.1085 6.96083C18.8903 7.62452 18.4268 8.18028 17.8223 8.53206Z" fill="#00ACEE"/>
</svg>
